<svg width="48" height="48" viewBox="0 0 48 48" fill="none" xmlns="http://www.w3.org/2000/svg">
<path d="M24.0005 26.9204C25.6131 26.9204 26.9204 25.6131 26.9204 24.0005C26.9204 22.3879 25.6131 21.0806 24.0005 21.0806C22.3879 21.0806 21.0806 22.3879 21.0806 24.0005C21.0806 25.6131 22.3879 26.9204 24.0005 26.9204Z" fill="white"/>
<path fill-rule="evenodd" clip-rule="evenodd" d="M23.5714 8.39343V4.50464C20.3297 4.57451 17.2826 5.43553 14.616 6.90225L16.5651 10.2684C18.6579 9.13277 21.0394 8.46175 23.5714 8.39343Z" fill="white"/>
<path fill-rule="evenodd" clip-rule="evenodd" d="M31.4347 10.2682L33.3751 6.89737C30.7106 5.43354 27.6669 4.5744 24.4287 4.50464V8.39343C26.9605 8.46175 29.342 9.13277 31.4347 10.2682Z" fill="white"/>
<path fill-rule="evenodd" clip-rule="evenodd" d="M40.6721 13.8806C39.8588 12.5435 38.8891 11.312 37.7886 10.2115C36.6865 9.10943 35.4531 8.13867 34.1139 7.32471L32.1733 10.6957C33.2163 11.3378 34.178 12.0991 35.0396 12.9606C35.9007 13.8218 36.6617 14.7831 37.3036 15.8256L40.6721 13.8806Z" fill="white"/>
<path fill-rule="evenodd" clip-rule="evenodd" d="M43.4955 23.5731C43.4258 20.3327 42.5658 17.2867 41.1003 14.6206L37.7319 16.5656C38.8676 18.6588 39.5386 21.0408 39.6066 23.5731H43.4955Z" fill="white"/>
<path fill-rule="evenodd" clip-rule="evenodd" d="M41.1003 33.3795C42.5657 30.7134 43.4258 27.6676 43.4955 24.427H39.6066C39.5386 26.9594 38.8676 29.3414 37.7319 31.4346L41.1003 33.3795Z" fill="white"/>
<path fill-rule="evenodd" clip-rule="evenodd" d="M40.672 34.1195L37.3036 32.1746C36.6617 33.217 35.9007 34.1783 35.0396 35.0394C34.178 35.9009 33.2163 36.6622 32.1733 37.3043L34.1139 40.6754C35.4531 39.8613 36.6865 38.8906 37.7886 37.7885C38.8891 36.688 39.8587 35.4566 40.672 34.1195Z" fill="white"/>
<path fill-rule="evenodd" clip-rule="evenodd" d="M33.3751 41.1025L31.4347 37.7317C29.342 38.8671 26.9605 39.5381 24.4287 39.6064V43.4952C27.6669 43.4255 30.7106 42.5663 33.3751 41.1025Z" fill="white"/>
<path fill-rule="evenodd" clip-rule="evenodd" d="M23.5714 39.6065C21.0394 39.5382 18.658 38.8672 16.5651 37.7317L14.616 41.0977C17.2826 42.5644 20.3297 43.4255 23.5714 43.4953V39.6065Z" fill="white"/>
<path fill-rule="evenodd" clip-rule="evenodd" d="M12.9605 35.0395C12.0991 34.1781 11.338 33.2166 10.696 32.1738L7.32739 34.1184C8.14081 35.4559 9.11057 36.6877 10.2114 37.7885C11.3107 38.8879 12.5407 39.8565 13.876 40.6693L15.825 37.3033C14.7828 36.6614 13.8216 35.9005 12.9605 35.0395Z" fill="white"/>
<path fill-rule="evenodd" clip-rule="evenodd" d="M10.2686 31.4352C9.13276 29.3418 8.46153 26.9597 8.39354 24.427H4.50464C4.57429 27.6677 5.43443 30.7136 6.90003 33.3799L10.2686 31.4352Z" fill="white"/>
<path fill-rule="evenodd" clip-rule="evenodd" d="M8.39354 23.5731C8.46153 21.0404 9.13265 18.6582 10.2686 16.5647L6.90003 14.6201C5.43443 17.2864 4.57429 20.3324 4.50464 23.5731H8.39354Z" fill="white"/>
<path fill-rule="evenodd" clip-rule="evenodd" d="M12.9604 12.9605C13.8215 12.0995 14.7826 11.3385 15.8249 10.6966L13.8758 7.33081C12.5405 8.14345 11.3106 9.1121 10.2113 10.2114C9.11043 11.3123 8.14067 12.5441 7.32715 13.8816L10.6958 15.8262C11.3379 14.7834 12.099 13.8218 12.9604 12.9605Z" fill="white"/>
<path fill-rule="evenodd" clip-rule="evenodd" d="M48 24C48 10.7451 37.2549 0 24 0C10.7451 0 0 10.7451 0 24C0 37.2549 10.7451 48 24 48C37.2549 48 48 37.2549 48 24ZM24 3.64286C29.6215 3.64286 34.7108 5.92144 38.3946 9.60538C42.0786 13.2892 44.3571 18.3785 44.3571 24C44.3571 29.6215 42.0786 34.7108 38.3946 38.3946C34.7123 42.0769 29.6259 44.3551 24.0075 44.3571C24.005 44.3571 24.0025 44.3572 24 44.3572C23.9975 44.3572 23.995 44.3571 23.9925 44.3571C18.3741 44.3551 13.2877 42.0769 9.60538 38.3946C5.92144 34.7108 3.64286 29.6215 3.64286 24C3.64286 18.3785 5.92144 13.2892 9.60538 9.60538C13.2892 5.92144 18.3785 3.64286 24 3.64286Z" fill="white"/>
<path fill-rule="evenodd" clip-rule="evenodd" d="M23.5713 21.9781L18.2856 16.6925C18.3291 16.194 18.1602 15.6807 17.7788 15.2992C17.0941 14.6145 15.984 14.6145 15.2992 15.2992C14.6145 15.984 14.6145 17.0941 15.2992 17.7788C15.648 18.1275 16.1072 18.2986 16.5643 18.2921L21.9573 23.6851C22.0874 22.8343 22.7364 22.1542 23.5713 21.9781Z" fill="white"/>
<path fill-rule="evenodd" clip-rule="evenodd" d="M32.7006 17.7788C33.3854 17.0941 33.3854 15.984 32.7006 15.2992C32.0159 14.6145 30.9057 14.6145 30.2211 15.2992C29.8723 15.648 29.7012 16.1072 29.7077 16.5643L24.3147 21.9573C25.1655 22.0874 25.8456 22.7364 26.0217 23.5713L31.3073 18.2856C31.8058 18.3291 32.3192 18.1602 32.7006 17.7788Z" fill="white"/>
<path fill-rule="evenodd" clip-rule="evenodd" d="M31.4357 29.7077L26.0427 24.3147C25.9126 25.1655 25.2636 25.8456 24.4287 26.0217L29.7145 31.3073C29.6709 31.8058 29.8398 32.3192 30.2213 32.7006C30.9059 33.3854 32.0161 33.3854 32.7008 32.7006C33.3856 32.0159 33.3856 30.9057 32.7008 30.2211C32.352 29.8723 31.8928 29.7012 31.4357 29.7077Z" fill="white"/>
<path fill-rule="evenodd" clip-rule="evenodd" d="M23.6851 26.0427C22.8343 25.9126 22.1542 25.2636 21.9781 24.4287L16.6925 29.7145C16.194 29.6709 15.6807 29.8398 15.2992 30.2213C14.6145 30.9059 14.6145 32.0161 15.2992 32.7008C15.984 33.3856 17.0941 33.3856 17.7788 32.7008C18.1275 32.352 18.2986 31.8928 18.2921 31.4357L23.6851 26.0427Z" fill="white"/>
</svg>
