<svg width="293" height="39" viewBox="0 0 293 39" fill="none" xmlns="http://www.w3.org/2000/svg">
<path d="M6.46061 22.146H6.94834C8.16766 22.146 9.58208 22.146 10.8014 22.146C11.5818 22.146 12.2158 21.9997 12.8011 21.512C14.2155 20.439 14.2155 18.4393 12.8011 17.5126C12.3134 17.2199 11.8744 16.8785 11.3867 16.8785C9.67963 16.7322 8.11889 16.8785 6.46061 16.7322V22.146ZM6.46061 31.5592H6.94834C8.36275 31.5592 9.58208 31.5592 10.9477 31.5592C11.2404 31.5592 11.5818 31.5592 11.8744 31.5592C13.7278 31.2666 14.9471 29.5595 14.3618 27.7061C14.0692 26.4868 12.9474 25.8528 11.8744 25.5601C11.094 25.4138 10.1674 25.4138 9.38699 25.4138C8.4603 25.4138 7.53361 25.4138 6.46061 25.4138V31.5592ZM0.266434 13.1718C1.97349 13.1718 3.82686 13.1718 5.53392 13.1718C7.87502 13.1718 10.1674 13.1718 12.5085 13.3181C14.3618 13.3181 15.9226 13.9522 16.9956 15.4641C18.2149 17.1712 18.5563 19.0245 17.9223 21.0242C17.6296 21.9509 16.9956 22.585 16.2152 23.0239C15.9226 23.1703 15.7275 23.3166 15.4348 23.5117C16.0689 23.8043 16.6542 24.1457 17.1419 24.5847C18.3612 25.6577 18.9953 27.2184 18.9953 28.9255C18.9953 30.7788 18.3612 32.3396 16.8493 33.5589C15.7762 34.4856 14.5082 34.9733 13.1425 35.1196C12.6548 35.1196 12.2158 35.266 11.7281 35.266C8.02134 35.266 4.3146 35.266 0.607847 35.266C0.461528 35.266 0.315209 35.266 0.120117 35.266V31.7055H1.82717V16.8785H0.120117L0.266434 13.1718ZM281.443 28.4865C281.443 27.9988 281.443 27.5598 281.443 27.0721C281.296 25.9991 280.662 25.2187 279.736 24.731C278.029 23.658 276.029 24.2433 275.249 26.1454C274.761 27.5598 274.761 28.7791 275.102 30.1448C275.395 31.2178 275.883 31.9982 276.956 32.4859C278.955 33.2663 281.443 31.5592 281.443 29.4132V28.4865ZM277.443 38.8264C276.809 38.6801 276.029 38.5337 275.59 38.1923C274.371 37.5583 273.59 36.6316 273.103 35.266C273.737 35.266 274.322 35.266 274.956 35.266C275.102 35.266 275.102 35.4123 275.249 35.4123C276.322 37.2657 278.516 37.7534 280.37 36.6316C281.15 36.1439 281.443 35.5586 281.589 34.6319C281.589 33.7052 281.589 32.7785 281.589 31.8518C281.443 31.9982 281.296 32.3396 281.101 32.4859C279.248 34.6319 275.834 34.193 274.273 31.9982C273.2 30.5838 273.054 29.0718 273.2 27.3647C273.2 26.2917 273.688 25.365 274.127 24.4384C275.688 22.0972 279.394 21.6583 281.101 24.1457C281.248 24.292 281.394 24.4383 281.589 24.7798V22.7801H285.003V24.1945H283.296V24.6822C283.296 27.95 283.296 31.169 283.296 34.4368C283.296 36.7779 281.882 38.1436 279.736 38.6313C279.443 38.6313 279.248 38.7776 278.955 38.7776H277.395V38.8264H277.443ZM291.831 6.34357C291.831 3.85614 289.832 1.85645 287.344 1.85645C284.857 1.85645 282.857 3.85614 282.711 6.34357C282.711 8.83099 284.711 10.8307 287.198 10.977C289.832 10.8307 291.831 8.83099 291.831 6.34357ZM292.758 6.97762C292.612 7.9043 292.27 8.68467 291.685 9.46504C290.271 11.3184 287.978 12.0988 285.784 11.4647C283.638 10.8307 282.077 8.97731 281.931 6.8313C281.638 3.90492 283.638 1.27118 286.418 0.783447C286.418 0.783447 286.564 0.783447 286.71 0.783447H287.93H288.076C289.637 1.07609 290.71 1.71013 291.636 2.92946C292.27 3.70982 292.417 4.4902 292.709 5.41688V6.97762H292.758ZM184.97 23.658C184.677 25.2187 184.189 26.7307 183.897 28.2914C183.409 30.4374 182.824 32.6322 182.336 34.7782C182.336 34.9245 182.336 35.0709 182.043 35.0709C180.629 35.0709 179.263 35.0709 177.849 35.0709C177.703 34.5831 177.556 34.1442 177.556 33.6564C176.483 29.8034 175.41 25.9015 174.484 22.0485C174.484 21.7558 174.337 21.5607 173.996 21.5607C173.703 21.5607 173.362 21.5607 172.923 21.5607V18.293H179.556V21.5607H177.849C178.629 24.8285 179.41 28.0476 180.19 31.3153C180.336 31.0227 180.336 30.535 180.483 30.2423C181.263 26.3893 182.043 22.4874 182.97 18.7807C182.97 18.6344 183.116 18.488 183.263 18.488C184.482 18.488 185.75 18.488 186.969 18.488C187.262 18.488 187.262 18.6344 187.262 18.7807C188.189 22.7801 188.969 26.8282 189.896 30.8276C189.896 30.9739 189.896 30.9739 190.042 31.1202L192.188 21.512H190.481V18.2442H197.114V21.512C196.822 21.512 196.334 21.512 196.041 21.512C195.895 21.512 195.749 21.512 195.749 21.8046C194.676 25.9991 193.408 30.2911 192.335 34.4856C192.188 34.7782 192.188 34.9733 191.847 34.9733C190.627 34.9733 189.359 34.9733 188.14 34.9733C187.847 34.9733 187.847 34.9733 187.652 34.6807C186.726 31.1203 185.945 27.5598 185.019 23.8531C185.116 23.8043 185.116 23.8043 184.97 23.658ZM162.681 17.4638C161.608 20.7316 160.681 23.8043 159.754 27.0721H165.461C164.534 23.8043 163.607 20.5853 162.681 17.4638ZM173.02 31.5592V35.1196H168.094C167.802 34.0466 167.46 32.9736 167.168 31.8518C167.021 31.3641 166.875 30.9252 166.68 30.4374C166.68 30.2911 166.534 30.2911 166.387 30.2911C163.9 30.2911 161.461 30.2911 159.12 30.2911C158.827 30.2911 158.827 30.4374 158.827 30.5838C158.34 31.9982 158.047 33.3638 157.608 34.7782C157.608 34.9245 157.608 34.9245 157.462 35.0709H152.341V31.5104C152.828 31.5104 153.267 31.5104 153.755 31.5104C154.048 31.5104 154.048 31.5104 154.243 31.2178C156.096 25.1699 158.096 19.3172 159.949 13.2693C159.949 12.9767 160.096 12.9767 160.437 12.9767C161.998 12.9767 163.51 12.9767 165.217 12.9767C165.509 12.9767 165.509 13.123 165.704 13.2693C167.704 19.1709 169.558 25.17 171.606 31.0715C171.752 31.3641 171.752 31.3641 172.094 31.3641C172.094 31.5592 172.581 31.5592 173.02 31.5592ZM233.694 24.5847L240.815 24.731C240.815 22.8776 239.4 21.4632 237.547 21.4632C235.694 21.3657 233.84 22.8776 233.694 24.5847ZM245.595 27.7061H233.694C233.84 29.2669 234.328 30.6325 235.547 31.5592C236.62 32.3396 237.889 32.4859 239.254 32.0469C240.181 31.7543 240.669 31.1202 241.108 30.1936C241.254 30.0472 241.254 29.9009 241.595 29.9009C242.815 29.9009 244.229 29.9009 245.448 29.7546C245.448 30.0472 245.302 30.2423 245.302 30.3887C244.375 33.315 242.376 35.0221 239.254 35.5098C237.401 35.8025 235.694 35.6561 233.987 34.7295C231.841 33.6565 230.426 31.8031 229.792 29.3157C229.158 26.3893 229.5 23.6092 231.353 21.1218C234.426 16.9273 240.961 17.1224 244.034 21.2681C244.961 22.8776 245.741 25.8528 245.595 27.7061ZM26.1161 24.5847L33.237 24.731C33.3833 23.0239 32.0177 21.6583 30.1643 21.4632C28.2621 21.2193 26.2624 22.7313 26.1161 24.5847ZM37.7241 27.7061H25.8235C25.8235 27.9988 25.8235 28.3402 25.9698 28.6328C26.1161 29.2669 26.2624 29.8522 26.6039 30.4862C27.3842 31.9006 28.7499 32.3396 30.3106 32.1933C31.725 32.0469 32.6517 31.2666 33.0907 30.0472C33.0907 29.9009 33.237 29.9009 33.3833 29.9009C34.6026 29.9009 36.017 29.7546 37.2364 29.7546H37.3827C37.2364 30.6813 36.895 31.4617 36.456 32.242C35.2367 34.0954 33.5296 35.1684 31.3348 35.5098C29.4815 35.8025 27.6281 35.6561 25.921 34.7295C23.5799 33.5101 22.3606 31.4617 21.7266 29.023C21.2388 26.5356 21.4339 24.0969 22.7996 21.9022C25.5796 17.1224 32.7005 16.6347 35.9683 21.2681C37.1876 23.1215 37.8217 25.2675 37.8217 27.6086C37.8704 27.5598 37.8704 27.5598 37.7241 27.7061ZM209.064 27.2184C207.991 27.3647 206.918 27.3647 205.991 27.7061C205.211 27.8525 204.577 27.9988 203.845 28.3402C202.918 28.6328 202.626 29.4132 202.626 30.3399C202.626 31.2666 203.26 31.9006 204.186 32.1933C205.601 32.681 207.259 32.1933 208.381 31.1202C209.259 29.9985 209.259 28.6328 209.064 27.2184ZM209.064 24.4384C209.064 23.9506 208.917 23.3653 208.917 22.8776C208.771 21.9509 208.137 21.3169 207.21 21.1706C206.576 21.0242 205.796 21.0242 205.211 21.1706C204.138 21.4632 203.357 22.0972 203.357 23.3166C203.357 23.4629 203.357 23.6092 203.357 23.8043L199.358 23.658C199.358 22.8776 199.504 22.0972 199.992 21.512C200.626 20.2926 201.699 19.366 202.918 18.8782C205.406 17.9515 207.844 17.9515 210.332 19.0245C212.331 19.8049 213.258 21.512 213.404 23.5117C213.551 25.365 213.404 27.2184 213.404 29.2181C213.404 30.1448 213.404 31.0715 213.404 32.1445H214.819V35.4123H209.551V33.5589C209.405 33.7052 209.064 34.0466 208.917 34.193C206.43 36.339 202.284 36.1926 199.943 34.0466C197.943 32.0469 197.943 27.9988 201.016 26.4868C202.431 25.7064 203.796 25.4138 205.357 25.2675C206.576 25.1212 207.844 24.9748 209.21 24.7798C208.917 24.4383 208.917 24.4384 209.064 24.4384ZM84.7413 21.3656C85.3753 20.7316 85.8143 20.1463 86.4483 19.5123C87.8628 18.293 89.3747 17.8052 91.2281 18.0979C92.6425 18.3905 93.3741 19.1709 93.8618 20.439C94.0081 20.7316 94.0081 21.073 94.1545 21.3656C94.3008 21.2193 94.4471 20.8779 94.6422 20.7316C95.4226 19.5123 96.4956 18.3905 98.0563 18.0979C99.4707 17.8052 100.836 17.8052 101.909 18.7319C102.836 19.5123 103.129 20.5853 103.324 21.6583C103.324 21.9509 103.324 22.4387 103.324 22.7313C103.324 25.9991 103.324 29.2181 103.324 32.3396V32.8273H105.665V34.827H101.031V34.3393C101.031 30.4862 101.031 26.7795 101.031 22.8776C101.031 22.3899 101.031 22.0972 100.885 21.6583C100.593 20.0975 99.4707 19.3172 97.8124 19.8049C96.5931 20.0976 95.8128 20.8779 95.0324 21.9509C94.3983 22.8776 94.1057 23.9506 94.1057 25.0236C94.1057 27.511 94.1057 29.9497 94.1057 32.4371V32.9249H96.5931V34.9245H91.5207V34.4368C91.5207 30.5838 91.5207 26.6819 91.5207 22.8288C91.5207 22.3411 91.5207 21.9022 91.3744 21.4144C91.0818 20.4877 90.4477 20 89.521 19.8537C88.1066 19.7074 87.1799 20.3414 86.2533 21.2681C85.1802 22.4874 84.5462 23.7555 84.6925 25.4626C84.6925 27.8037 84.6925 30.096 84.6925 32.5834V33.0712H87.1799V35.0709H80.1078V33.0712H82.449V20.2439H80.1078V18.2442H85.0339C84.595 19.3172 84.595 20.2926 84.7413 21.3656ZM56.4042 26.1454H51.283C51.283 25.5114 51.283 24.731 51.4293 24.1457H59.1842V34.9733H56.7456V31.5592C56.5993 31.7055 56.5993 31.7055 56.5993 31.8518C55.0385 34.1929 53.0388 35.4123 50.2588 35.5586C48.1128 35.5586 46.4057 34.7782 44.6986 33.4126C42.8453 31.7055 41.7723 29.5595 41.2845 27.2184C40.6505 24.1457 40.9919 21.0242 42.2112 18.0979C43.1379 16.0982 44.5523 14.3911 46.552 13.4644C49.8198 11.9037 53.8192 12.5377 56.1603 15.9519C56.1603 16.0982 56.3066 16.0982 56.4529 16.2445V12.8304H58.794V19.8049H56.2578C56.1115 18.8782 55.6238 18.0979 55.1848 17.3175C53.9655 15.6104 52.2585 14.6838 50.2588 14.6838C48.4054 14.6838 46.8447 15.6104 45.7716 17.0249C44.6986 18.2442 44.2109 19.8049 43.9183 21.512C43.6256 23.8531 43.772 25.9991 44.5523 28.1451C45.0401 29.3644 45.6253 30.4862 46.6983 31.4129C48.5517 33.1199 50.8928 33.4126 53.0388 32.3396C55.1848 31.4129 56.5993 28.7792 56.4042 26.1454ZM122.004 26.6331C122.004 26.3405 122.004 25.9991 122.004 25.5601C121.858 24.3408 121.516 23.0727 120.931 21.9997C119.712 20.2926 117.663 19.6586 115.81 20.5853C114.103 21.3657 112.396 23.5117 112.737 25.8528C112.883 27.0721 112.737 28.1939 113.03 29.4132C113.322 31.4129 115.371 33.1199 117.37 33.4126C119.077 33.5589 120.638 32.6322 121.37 31.0715C121.711 29.5595 122.004 28.1451 122.004 26.6331ZM110.103 14.2448H107.957V12.2451H112.591V21.8534C112.737 21.7071 112.737 21.5607 112.883 21.5607C113.371 20.7804 114.103 20 114.883 19.4147C117.029 17.854 119.663 17.854 121.858 19.7074C123.418 20.9267 124.199 22.6338 124.638 24.4871C125.272 27.2672 124.93 29.9009 123.418 32.3883C122.638 33.6077 121.565 34.7295 120.15 35.3147C118.004 36.0951 115.517 35.4611 113.956 33.754C113.664 33.2663 113.176 32.8273 112.737 32.3396V35.266H107.957V33.2663H110.298V14.2448H110.103ZM72.987 26.6331C72.8407 26.6331 72.6944 26.6331 72.6944 26.6331C71.2799 26.7795 69.9143 27.1209 68.3535 27.4135C67.4269 27.5598 66.5002 27.9012 65.7198 28.4865C65.2321 28.7791 64.7931 29.2669 64.7931 30.0472C64.5005 31.9006 65.8661 33.754 67.8658 33.9003C70.0118 34.0466 72.3529 32.3396 72.7919 30.1936C72.987 28.7791 72.7919 27.7061 72.987 26.6331ZM75.133 33.2663H77.4741C77.4741 33.9003 77.6204 34.6807 77.6204 35.266H72.8407V32.3396C72.6944 32.4859 72.6944 32.4859 72.6944 32.4859C71.475 34.4856 69.6217 35.4123 67.2805 35.5586C65.2809 35.7049 63.7201 34.9245 62.6471 33.2175C61.7204 31.6568 61.4278 30.1448 62.3545 28.4377C62.8422 27.3647 63.7689 26.877 64.8419 26.438C66.2563 25.804 67.7683 25.5114 69.329 25.2187C70.402 25.0724 71.6701 24.9261 72.8894 24.731C72.8894 23.9506 72.8894 23.0239 72.7431 22.2436C72.4505 21.0242 71.5238 20.3902 70.402 20.0976C69.4753 19.8049 68.4023 19.9512 67.4756 20.0976C66.2563 20.3902 65.4759 21.3169 65.1345 22.4387C64.9882 22.7313 64.9882 22.9264 64.5005 22.9264C63.7201 22.9264 63.0861 22.9264 62.3545 22.9264C62.8422 20.9267 63.7689 19.5123 65.6223 18.5856C67.7683 17.6589 69.9631 17.6589 72.1091 18.5856C73.8161 19.366 74.7428 20.7316 75.0355 22.585C75.0355 23.0727 75.0355 23.3653 75.0355 23.8043C75.0355 26.7307 75.0355 29.5107 75.0355 32.4859L75.133 33.2663ZM137.758 25.365H146.878C146.878 23.9506 146.39 22.8776 145.805 21.8046C144.878 20.5853 143.805 19.9512 142.245 20.2439C139.318 20.5853 137.953 22.7313 137.758 25.365ZM149.707 27.2184H137.66C137.806 27.8525 137.806 28.2914 137.953 28.7791C138.099 29.7058 138.44 30.6325 139.026 31.5592C140.245 33.4126 143.025 34.0466 144.732 32.9736C145.512 32.4859 145.951 31.7543 146.439 30.9739C146.585 30.6813 146.732 30.4862 147.073 30.4862C147.854 30.4862 148.634 30.4862 149.414 30.4862C149.268 30.7788 149.268 31.1202 149.122 31.4129C148.049 33.9003 145.122 35.6074 142.293 35.266C138.44 34.9733 135.807 32.3396 135.173 28.4377C134.685 25.9503 135.026 23.5117 136.392 21.3169C137.465 19.4635 139.172 18.2442 141.318 17.9028C144.391 17.415 147.219 18.9758 148.585 21.7558C149.366 23.3166 149.658 25.0236 149.658 26.877C149.707 27.2184 149.707 27.2184 149.707 27.2184ZM222.525 31.8518H224.525V35.1196H216.77V31.8518H218.477V21.6583H216.77V18.3905H222.476V20.8779C222.623 20.7316 222.769 20.3902 222.769 20.2439C223.403 19.3172 224.183 18.3905 225.403 18.2442C226.329 17.9515 227.402 18.0979 228.329 18.2442L228.475 18.3905C228.475 19.6098 228.475 20.8779 228.475 22.0972C227.988 22.0972 227.549 21.9509 227.061 21.9509C225.842 21.8046 224.574 22.0972 223.647 22.8776C222.866 23.5117 222.574 24.4384 222.427 25.365C222.427 27.3647 222.427 29.3644 222.427 31.5592C222.379 31.7055 222.379 31.7055 222.525 31.8518ZM128.344 14.0985H126.003V12.2451H130.783V33.1199H132.929V35.1196H126.003V33.1199H128.344V14.0985ZM253.496 29.0718C253.496 29.9985 253.642 30.9252 253.984 31.8518C254.618 33.0712 255.544 33.8515 256.91 33.8515C258.276 33.8515 259.397 33.2175 259.983 31.9982C260.275 31.2178 260.47 30.5837 260.617 29.6571C260.763 28.4377 260.617 27.1696 259.983 26.0966C259.349 24.8773 258.276 24.2433 256.91 24.2433C255.544 24.2433 254.764 25.0236 254.13 26.0966C253.496 27.0721 253.496 27.9988 253.496 29.0718ZM262.421 28.7791C262.421 30.3399 262.129 31.7055 261.348 32.7785C260.129 34.6319 258.422 35.266 256.227 35.1196C254.227 34.9733 252.813 33.7052 252.033 31.8518C251.252 29.8521 251.106 27.6574 252.033 25.6577C252.959 23.658 254.666 22.585 256.959 22.585C259.251 22.585 260.812 23.658 261.738 25.6577C262.275 26.7795 262.421 27.8525 262.421 28.7791ZM269.25 34.9733H263.836V33.5589H265.543V24.4384H263.836V23.0239H267.396V25.5114C268.03 24.4383 268.811 23.3653 270.03 22.8776C270.664 22.7313 271.737 22.7313 272.371 22.8776V24.5847C272.078 24.5847 271.737 24.5847 271.444 24.4384C269.298 24.292 267.445 25.8528 267.445 27.9988C267.445 29.7058 267.445 31.5592 267.445 33.2663V33.4126H269.445L269.25 34.9733ZM247.594 32.9736H249.594V34.9733H247.594V32.9736ZM285.93 3.85614V5.70952C286.564 5.70952 287.149 5.70952 287.783 5.70952C287.93 5.70952 288.076 5.70951 288.271 5.5632C288.759 5.41688 288.905 5.07547 288.759 4.49019C288.759 4.00246 288.466 3.70983 287.978 3.70983C287.344 3.85615 286.71 3.85614 285.93 3.85614ZM288.564 6.19725C289.198 6.34356 289.344 6.83129 289.344 7.27025C289.344 7.70921 289.49 8.34326 289.49 8.83099C288.564 8.83099 288.71 8.97731 288.564 8.05062C288.564 7.75798 288.564 7.41658 288.417 7.12394C288.271 6.63621 288.125 6.34357 287.491 6.34357C286.857 6.34357 286.271 6.34357 285.637 6.34357V8.68466H284.857V3.12455C285.003 3.12455 285.15 3.12455 285.491 3.12455C286.271 3.12455 287.052 3.12455 287.832 3.12455C288.612 3.12455 289.051 3.61228 289.246 4.19756C289.685 5.12424 289.344 5.70952 288.564 6.19725Z" fill="#888888"/>
</svg>
