<svg width="51" height="51" viewBox="0 0 51 51" fill="none" xmlns="http://www.w3.org/2000/svg">
<path d="M36.1635 17.3289H10.6691C10.4669 17.3286 10.2667 17.3682 10.0799 17.4454C9.893 17.5225 9.72319 17.6358 9.58014 17.7787C9.4371 17.9215 9.32361 18.0912 9.24619 18.2779C9.16876 18.4647 9.12891 18.6649 9.12891 18.867V37.329H37.7017V18.867C37.7017 18.4591 37.5396 18.0678 37.2511 17.7794C36.9627 17.4909 36.5714 17.3289 36.1635 17.3289ZM34.8446 34.4715H11.9875V20.1859H34.8446V34.4715Z" fill="#696969"/>
<path d="M38.2117 38.3484H8.61897L4.84497 45.9H41.9878L38.2117 38.3484ZM10.9165 43.8385L11.7738 40.4098H14.9165L15.7738 43.8385H10.9165ZM19.7023 43.8385L20.5591 40.4098H23.7022L24.559 43.8385H19.7023ZM32.2019 43.8385C30.1507 43.8385 28.4876 43.071 28.4876 42.1239C28.4876 41.1769 30.1507 40.4098 32.2019 40.4098C34.2531 40.4098 35.9162 41.1748 35.9162 42.1239C35.9162 43.073 34.2531 43.8385 32.2019 43.8385Z" fill="#696969"/>
<path d="M35.4017 6.53881L32.7941 16.3089H14.0383L11.4307 6.53881L19.0312 12.6731L23.4162 5.1001L27.8012 12.6731L35.4017 6.53881Z" fill="#696969"/>
<path d="M19.607 35.2365C19.4042 35.2365 19.2096 35.1559 19.0661 35.0124C18.9226 34.869 18.842 34.6744 18.842 34.4715V20.1859C18.842 19.983 18.9226 19.7884 19.0661 19.645C19.2096 19.5015 19.4042 19.4209 19.607 19.4209C19.8099 19.4209 20.0045 19.5015 20.148 19.645C20.2914 19.7884 20.372 19.983 20.372 20.1859V34.4715C20.372 34.6744 20.2914 34.869 20.148 35.0124C20.0045 35.1559 19.8099 35.2365 19.607 35.2365Z" fill="#696969"/>
<path d="M27.2259 35.2365C27.023 35.2365 26.8285 35.1559 26.685 35.0124C26.5415 34.869 26.4609 34.6744 26.4609 34.4715V20.1859C26.4609 19.983 26.5415 19.7884 26.685 19.645C26.8285 19.5015 27.023 19.4209 27.2259 19.4209C27.4288 19.4209 27.6234 19.5015 27.7669 19.645C27.9103 19.7884 27.9909 19.983 27.9909 20.1859V34.4715C27.9909 34.6744 27.9103 34.869 27.7669 35.0124C27.6234 35.1559 27.4288 35.2365 27.2259 35.2365Z" fill="#696969"/>
<path d="M41.1304 25.041V29.6121C41.1303 30.3434 40.8965 31.0555 40.4632 31.6446C40.0299 32.2336 39.4197 32.6689 38.7217 32.8868V21.7688C39.4193 21.9866 40.0292 22.4215 40.4624 23.01C40.8957 23.5986 41.1297 24.3101 41.1304 25.041Z" fill="#696969"/>
<path d="M41.8497 21.2671L41.2688 22.384C41.5858 22.8079 41.8244 23.2851 41.9731 23.7931L42.9385 21.9367C42.5339 21.7897 42.1634 21.5619 41.8497 21.2671Z" fill="#696969"/>
<path d="M44.0119 21.1049C45.1955 21.1049 46.1549 20.1454 46.1549 18.9619C46.1549 17.7783 45.1955 16.8188 44.0119 16.8188C42.8284 16.8188 41.8689 17.7783 41.8689 18.9619C41.8689 20.1454 42.8284 21.1049 44.0119 21.1049Z" fill="#696969"/>
<path d="M19.607 32.3794H11.9881C11.7853 32.3794 11.5907 32.2988 11.4472 32.1553C11.3037 32.0118 11.2231 31.8173 11.2231 31.6144C11.2231 31.4115 11.3037 31.2169 11.4472 31.0734C11.5907 30.93 11.7853 30.8494 11.9881 30.8494H19.607C19.8099 30.8494 20.0045 30.93 20.148 31.0734C20.2914 31.2169 20.372 31.4115 20.372 31.6144C20.372 31.8173 20.2914 32.0118 20.148 32.1553C20.0045 32.2988 19.8099 32.3794 19.607 32.3794Z" fill="#696969"/>
<path d="M34.8448 32.3794H27.2254C27.0226 32.3794 26.828 32.2988 26.6845 32.1553C26.541 32.0118 26.4604 31.8173 26.4604 31.6144C26.4604 31.4115 26.541 31.2169 26.6845 31.0734C26.828 30.93 27.0226 30.8494 27.2254 30.8494H34.8448C35.0477 30.8494 35.2423 30.93 35.3858 31.0734C35.5293 31.2169 35.6098 31.4115 35.6098 31.6144C35.6098 31.8173 35.5293 32.0118 35.3858 32.1553C35.2423 32.2988 35.0477 32.3794 34.8448 32.3794Z" fill="#696969"/>
<path d="M27.2254 23.8083H19.607C19.4042 23.8083 19.2096 23.7277 19.0661 23.5843C18.9226 23.4408 18.842 23.2462 18.842 23.0433C18.842 22.8404 18.9226 22.6458 19.0661 22.5024C19.2096 22.3589 19.4042 22.2783 19.607 22.2783H27.2254C27.4283 22.2783 27.6229 22.3589 27.7664 22.5024C27.9098 22.6458 27.9904 22.8404 27.9904 23.0433C27.9904 23.2462 27.9098 23.4408 27.7664 23.5843C27.6229 23.7277 27.4283 23.8083 27.2254 23.8083Z" fill="#696969"/>
<path d="M14.8976 29.2918C14.6796 29.2915 14.4703 29.2068 14.3136 29.0554C14.1568 28.904 14.0649 28.6977 14.0571 28.4799C13.9816 26.3379 14.8262 24.9655 15.5519 24.1918H13.8847C13.6615 24.1918 13.4475 24.1031 13.2897 23.9453C13.1319 23.7875 13.0432 23.5735 13.0432 23.3503C13.0432 23.1271 13.1319 22.9131 13.2897 22.7553C13.4475 22.5974 13.6615 22.5088 13.8847 22.5088H16.9447C17.1679 22.5088 17.3819 22.5974 17.5397 22.7553C17.6976 22.9131 17.7862 23.1271 17.7862 23.3503V24.1229C17.789 24.274 17.7499 24.4229 17.6731 24.553C17.5962 24.6831 17.4848 24.7894 17.3512 24.8599C17.2375 24.9267 15.6503 25.9044 15.7391 28.4222C15.743 28.5327 15.7251 28.6428 15.6864 28.7463C15.6477 28.8498 15.589 28.9447 15.5137 29.0256C15.4383 29.1064 15.3478 29.1716 15.2472 29.2175C15.1467 29.2633 15.0381 29.2889 14.9277 29.2928L14.8976 29.2918Z" fill="#696969"/>
<path d="M22.899 32.1495C22.6811 32.1493 22.4716 32.0646 22.3149 31.9132C22.1581 31.7617 22.0662 31.5554 22.0586 31.3375C21.9831 29.1925 22.8276 27.8226 23.5534 27.0495H21.8862C21.663 27.0495 21.449 26.9608 21.2911 26.803C21.1333 26.6452 21.0447 26.4311 21.0447 26.208C21.0447 25.9848 21.1333 25.7707 21.2911 25.6129C21.449 25.4551 21.663 25.3665 21.8862 25.3665H24.9462C25.1694 25.3665 25.3834 25.4551 25.5412 25.6129C25.699 25.7707 25.7877 25.9848 25.7877 26.208V26.9791C25.7905 27.1301 25.7513 27.279 25.6745 27.4092C25.5977 27.5393 25.4863 27.6455 25.3526 27.716C25.2389 27.7828 23.6518 28.76 23.7405 31.2779C23.7444 31.3883 23.7265 31.4984 23.6878 31.602C23.6492 31.7055 23.5905 31.8004 23.5151 31.8812C23.4398 31.962 23.3493 32.0272 23.2487 32.0731C23.1482 32.119 23.0396 32.1446 22.9291 32.1484L22.899 32.1495Z" fill="#696969"/>
<path d="M30.9003 29.2918C30.6824 29.2917 30.4729 29.207 30.3162 29.0555C30.1594 28.9041 30.0675 28.6977 30.0598 28.4799C29.9844 26.3379 30.8289 24.9655 31.5541 24.1918H29.8859C29.6628 24.1918 29.4487 24.1031 29.2909 23.9453C29.1331 23.7875 29.0444 23.5735 29.0444 23.3503C29.0444 23.1271 29.1331 22.9131 29.2909 22.7553C29.4487 22.5974 29.6628 22.5088 29.8859 22.5088H32.9459C33.1691 22.5088 33.3832 22.5974 33.541 22.7553C33.6988 22.9131 33.7874 23.1271 33.7874 23.3503V24.1229C33.7901 24.2736 33.751 24.4221 33.6745 24.5519C33.598 24.6817 33.487 24.7878 33.3539 24.8584C33.2402 24.9252 31.6531 25.9028 31.7418 28.4207C31.7457 28.5312 31.7278 28.6413 31.6891 28.7448C31.6505 28.8483 31.5918 28.9432 31.5164 29.024C31.4411 29.1049 31.3505 29.1701 31.25 29.2159C31.1494 29.2618 31.0409 29.2874 30.9304 29.2913L30.9003 29.2918Z" fill="#696969"/>
</svg>
