<svg width="45" height="53" viewBox="0 0 45 53" fill="none" xmlns="http://www.w3.org/2000/svg">
<path d="M44.7467 13.6422C44.6834 12.2478 44.6834 10.9169 44.6834 9.58595C44.6834 8.50852 43.8594 7.6846 42.782 7.6846C34.8597 7.6846 28.8388 5.40299 23.8319 0.52287C23.0714 -0.17429 21.9306 -0.17429 21.1701 0.52287C16.1632 5.40299 10.1423 7.6846 2.21998 7.6846C1.14255 7.6846 0.318632 8.50852 0.318632 9.58595C0.318632 10.9169 0.318632 12.2478 0.255254 13.6422C0.0017411 26.9516 -0.378529 45.2045 21.8672 52.8732L22.501 53L23.1348 52.8732C45.3171 45.2045 45.0002 27.0149 44.7467 13.6422ZM20.9799 32.0852C20.5996 32.4021 20.156 32.5922 19.649 32.5922H19.5856C19.0786 32.5922 18.5715 32.3387 18.2547 31.9584L12.3605 25.4305L15.2125 22.8954L19.8391 28.029L30.1064 18.2688L32.7049 21.0574L20.9799 32.0852Z" fill="#888888"/>
</svg>
