<svg width="63" height="63" viewBox="0 0 63 63" fill="none" xmlns="http://www.w3.org/2000/svg">
<g clip-path="url(#clip0_1860_1956)">
<path d="M25.1454 23.8322V10.9512H2.71631L25.1454 23.8322Z" fill="#888888"/>
<path d="M20.0706 25.1749L0 13.6479V25.1749H20.0706Z" fill="#888888"/>
<path d="M34.1633 28.8665V10.9512H28.8367V28.8665H0V34.1931H28.8367V52.1084H34.1633V34.1931H63V28.8665H34.1633Z" fill="#888888"/>
<path d="M42.9292 37.8843L62.9998 49.4113V37.8843H42.9292Z" fill="#888888"/>
<path d="M37.8545 39.2275V52.1085H60.2836L37.8545 39.2275Z" fill="#888888"/>
<path d="M37.8545 10.9512V23.8322L60.2836 10.9512H37.8545Z" fill="#888888"/>
<path d="M42.9292 25.1749H62.9998V13.6479L42.9292 25.1749Z" fill="#888888"/>
<path d="M25.1454 39.2275L2.71631 52.1085H25.1454V39.2275Z" fill="#888888"/>
<path d="M0 37.8843V49.4113L20.0706 37.8843H0Z" fill="#888888"/>
</g>
<defs>
<clipPath id="clip0_1860_1956">
<rect width="63" height="63" fill="white"/>
</clipPath>
</defs>
</svg>
