<svg width="65" height="65" viewBox="0 0 65 65" fill="none" xmlns="http://www.w3.org/2000/svg">
<g clip-path="url(#clip0_1860_7795)">
<path d="M56.5866 41.4042C56.4727 40.5732 56.1149 39.7346 55.7691 38.9237C55.5485 38.4063 55.1882 37.5617 55.1793 37.2188C56.2046 35.9697 55.5343 34.4689 55.087 33.4678C54.7221 32.6506 54.4796 32.0488 54.6833 31.7451C56.1064 29.623 56.4776 27.7986 55.7863 26.3226C55.1843 25.0371 53.8421 24.2235 52.0071 24.0318C51.4372 23.9722 50.8631 23.9401 50.3079 23.909C49.5777 23.8683 48.4992 23.8079 48.1158 23.6669C46.2724 20.8529 44.5767 20.1349 42.606 19.931C41.9833 19.8665 41.4046 19.7896 40.8745 19.7016C40.6789 17.6389 39.7459 15.6544 38.2453 14.1595C37.1302 13.0486 35.7875 12.2717 34.3384 11.8727C34.4997 11.1992 34.9564 10.3693 35.6348 9.55319C37.0992 7.7914 39.1827 6.5159 40.7014 6.45166C41.7669 6.40658 42.5862 5.75575 42.8395 4.75323C43.1988 3.33133 42.3197 1.57374 40.7946 0.664788C39.6793 -7.74941e-06 36.6147 -1.11452 32.2638 2.88619C31.3794 3.69928 27.8661 4.72441 26.1776 5.21704L25.7399 5.34502C23.8324 5.90507 23.4237 6.80754 23.0547 8.02134C22.8719 8.6229 22.6442 9.37162 21.9324 10.4384C21.6284 10.8941 21.4219 11.1409 21.2993 11.2696C20.0875 11.0894 19.5282 12.1929 19.3078 12.6277C18.4082 14.4016 17.7719 14.4509 17.3507 14.4834C15.7804 14.605 14.2573 15.844 13.3756 17.7167C12.4719 19.6362 12.5244 21.623 13.5159 23.0314C13.7326 23.3392 13.906 23.7932 14.0315 24.3809C14.1588 24.9774 14.6856 25.3859 15.272 25.3859C15.3598 25.3859 15.449 25.3767 15.5383 25.3577C16.224 25.2114 16.6614 24.5369 16.515 23.851C16.315 22.9133 16.0132 22.167 15.5923 21.5694C15.0515 20.8013 15.2794 19.6343 15.673 18.7982C16.1367 17.8132 16.9248 17.0632 17.5468 17.0151C18.6896 16.9268 20.1714 16.4864 21.5291 13.8609C22.5029 13.8311 23.2566 13.0286 24.0447 11.8476C24.9645 10.469 25.2772 9.44044 25.4842 8.75977C25.7155 7.99848 25.7155 7.99849 26.4552 7.78137L26.8888 7.65453C29.9304 6.76704 32.7619 5.87751 33.9824 4.75526C36.1405 2.7709 38.138 2.06853 39.4637 2.82791C40.0295 3.15206 40.284 3.64037 40.3577 3.92934C37.7048 4.15204 35.1188 6.20115 33.6819 7.9298C32.6568 9.16315 32.0198 10.4144 31.8113 11.5678C29.5688 11.6161 27.4442 12.5298 25.8082 14.1595C24.1119 15.8493 23.1391 18.1644 23.1391 20.5114C23.1391 23.8616 25.2629 27.2082 26.5288 28.9047C27.0757 29.6377 29.9111 33.2944 32.0268 33.2944C34.1424 33.2944 36.9779 29.6377 37.5249 28.9047C38.5705 27.5033 40.2003 24.9759 40.7361 22.2507C41.2399 22.3288 41.7768 22.3979 42.3446 22.4566C43.5043 22.5766 44.5847 22.8639 46.0663 25.1733C46.7593 26.2537 48.2627 26.3377 50.1661 26.4443C50.6913 26.4736 51.2342 26.5041 51.7432 26.5571C52.6314 26.65 53.2832 26.9648 53.4866 27.3994C53.7619 27.987 53.4293 29.0555 52.5741 30.3305C51.5721 31.8247 52.292 33.4366 52.7684 34.5031C52.9233 34.8497 53.1767 35.4174 53.1834 35.645C52.1288 36.8619 52.8214 38.4856 53.4332 39.9196C53.6642 40.4615 54.2055 41.7305 54.0751 42.037C54.075 42.0371 54.0618 42.0527 54.0192 42.0779C53.5352 42.3648 53.2199 42.2677 52.0336 41.4667C50.8994 40.7007 49.1856 39.543 47.1002 40.7922C45.5232 41.7368 46.0644 43.3186 46.3246 44.0787C46.5559 44.755 46.6872 45.1931 46.4693 45.6254C46.3955 45.6698 46.1808 45.7329 46.036 45.7754C45.3763 45.9691 44.2719 46.2934 43.7049 47.6752C43.1858 48.9396 43.6216 49.8215 43.9718 50.5301C44.1366 50.8637 44.3071 51.2085 44.4325 51.6671C44.755 52.8455 44.6231 53.1926 44.3341 53.953C44.1418 54.4587 43.9026 55.0882 43.7656 56.0153C43.5992 57.1405 43.6693 58.3019 43.7312 59.3264C43.8915 61.9878 43.7014 62.313 42.8834 62.4519C42.8644 62.4551 42.8486 62.4571 42.8358 62.4582C42.6362 62.2016 42.4309 61.288 42.3055 60.7304C42.0603 59.6397 41.7825 58.4036 41.0845 57.4106C40.4576 56.5185 39.2432 55.5098 37.0154 55.77C36.7634 55.7995 36.4712 55.8691 36.1014 55.9572C35.2449 56.1611 33.4626 56.5857 32.7325 56.0859C32.5913 55.9893 32.3943 55.7953 32.3163 55.2288C32.1601 54.096 31.0818 53.857 30.7275 53.7786C30.6306 53.7571 30.4895 53.7258 30.4274 53.6987C30.4045 53.6478 30.3403 53.4638 30.3532 53.0328C30.3674 52.5492 30.2327 51.4053 28.6747 51.2288C28.653 51.2264 28.6285 51.2236 28.6047 51.2207C28.5739 51.1397 28.5296 50.987 28.4976 50.7257C28.4119 50.0252 27.9286 49.1827 24.9956 47.7721C23.3404 46.976 21.5201 46.3074 20.3581 46.0686C19.8691 45.9683 18.571 45.7012 17.9801 46.7166C17.9501 46.7681 17.9242 46.8065 17.9033 46.8344C17.5285 46.6983 16.7518 46.0348 16.2715 45.6246C15.0618 44.5912 13.7002 43.428 12.0918 43.3511C11.7798 43.1367 11.2891 42.6398 11.0478 42.2862C11.822 41.5366 11.6371 40.5322 11.5512 40.0997C11.7425 40.0515 12.0664 39.9947 12.5928 39.9635C14.3546 39.8589 15.8892 38.3028 16.598 35.9026C16.7964 35.2301 16.4123 34.5239 15.7398 34.3253C15.0669 34.1265 14.3611 34.5111 14.1625 35.1835C13.7893 36.4474 13.0658 37.3917 12.4422 37.4288C10.828 37.5246 9.91192 37.8601 9.37929 38.5502C8.80172 39.2987 8.96741 40.1289 9.05642 40.5751C9.05883 40.5865 9.06111 40.5987 9.06378 40.6114C8.45053 41.1211 8.22682 41.9173 8.47986 42.7579C8.83664 43.9428 10.6497 45.9387 11.8847 45.8874C11.8963 45.887 11.908 45.8867 11.9196 45.8867C12.6682 45.8867 13.7501 46.8109 14.622 47.5557C15.8505 48.6052 17.012 49.5969 18.3728 49.3647C18.7705 49.2972 19.3008 49.094 19.7848 48.5416C20.3572 48.6536 21.4906 49.0007 22.927 49.6202C24.7171 50.3923 25.7006 51.0294 26.0164 51.3057C26.2846 52.8896 27.0844 53.4414 27.8373 53.6495C28.028 55.5202 29.2556 56.0211 29.9283 56.1987C30.2204 57.2486 30.8139 57.8505 31.2985 58.1821C32.9569 59.3167 35.2935 58.7602 36.6895 58.4278C36.9317 58.3702 37.2062 58.3048 37.3102 58.2927C38.8713 58.1105 39.2697 58.8044 39.828 61.2877C40.0244 62.1618 40.21 62.9872 40.5979 63.6619C41.1011 64.5368 41.8708 65.0001 42.7988 65.0001C42.9638 65.0001 43.1338 64.9855 43.3081 64.9559C44.7692 64.708 45.7432 63.86 46.1246 62.5034C46.4061 61.5024 46.338 60.3714 46.2658 59.174C46.2088 58.2287 46.1499 57.2512 46.2776 56.3867C46.3742 55.7328 46.5361 55.3067 46.7076 54.8556C47.0593 53.9306 47.423 52.9741 46.8818 50.9969C46.6918 50.3028 46.4354 49.7842 46.2484 49.4055C45.9706 48.8431 45.9753 48.8317 46.0541 48.6396C46.145 48.4181 46.1948 48.3755 46.7517 48.212C47.3328 48.0414 48.2112 47.7834 48.7198 46.8025C49.4552 45.3842 49.0173 44.104 48.7274 43.2569C48.6864 43.1368 48.6366 42.9915 48.6006 42.8696C49.1162 42.6485 49.5557 42.8575 50.6127 43.5713C51.7051 44.3091 53.3557 45.4239 55.3148 44.2623C55.8892 43.9216 56.8187 43.097 56.5866 41.4042ZM35.658 27.1576C34.0556 29.3697 32.5406 30.5548 32.0269 30.7408C31.5132 30.5548 29.9982 29.3697 28.3958 27.1576C26.6689 24.7738 25.6786 22.3514 25.6786 20.5116C25.6786 18.8349 26.3792 17.1755 27.6006 15.9588C28.8026 14.7612 30.3638 14.1028 32.0085 14.1028H32.055C33.69 14.1028 35.2513 14.7613 36.4533 15.9588C37.6747 17.1755 38.3753 18.8351 38.3753 20.5118C38.3752 22.3514 37.3847 24.7738 35.658 27.1576Z" fill="#888888"/>
<path d="M32.0268 16.7021C29.9265 16.7021 28.2178 18.4109 28.2178 20.5111C28.2178 22.6114 29.9265 24.3201 32.0268 24.3201C34.127 24.3201 35.8357 22.6114 35.8357 20.5111C35.8357 18.4109 34.127 16.7021 32.0268 16.7021ZM32.0268 21.7808C31.3267 21.7808 30.7571 21.2112 30.7571 20.5111C30.7571 19.811 31.3267 19.2415 32.0268 19.2415C32.7269 19.2415 33.2964 19.811 33.2964 20.5111C33.2964 21.2112 32.7269 21.7808 32.0268 21.7808Z" fill="#888888"/>
<path d="M15.4088 31.0993C16.1099 31.0993 16.6785 30.5308 16.6785 29.8296V29.8287C16.6785 29.1275 16.1099 28.5596 15.4088 28.5596C14.7077 28.5596 14.1392 29.1284 14.1392 29.8296C14.1392 30.5308 14.7077 31.0993 15.4088 31.0993Z" fill="#888888"/>
</g>
<defs>
<clipPath id="clip0_1860_7795">
<rect width="65" height="65" fill="white"/>
</clipPath>
</defs>
</svg>
