<svg width="90" height="90" viewBox="0 0 90 90" fill="none" xmlns="http://www.w3.org/2000/svg">
<path d="M45 82.9875C65.9812 82.9875 82.9875 65.9812 82.9875 45C82.9875 24.0188 65.9812 7.0125 45 7.0125C24.0188 7.0125 7.0125 24.0188 7.0125 45C7.0125 65.9812 24.0188 82.9875 45 82.9875ZM45 90C20.1488 90 0 69.8512 0 45C0 20.1488 20.1488 0 45 0C69.8512 0 90 20.1488 90 45C90 69.8512 69.8512 90 45 90Z" fill="#888888"/>
<path fill-rule="evenodd" clip-rule="evenodd" d="M41.2276 44.0887C38.7526 42.825 37.5151 40.89 37.5151 38.2875C37.5151 33.9862 40.9951 30.87 45.7088 30.87C50.3851 30.87 53.7076 33.9862 53.7076 38.325C53.7076 40.9687 52.5076 42.7875 49.8826 44.0887C52.9351 45.3112 54.5176 47.52 54.5176 50.5987C54.5176 55.2112 50.8088 58.53 45.6676 58.53C40.4551 58.53 36.6301 55.215 36.6301 50.6775C36.6301 48.7837 37.3238 46.965 38.5613 45.705C39.2963 45.0337 39.8738 44.64 41.2276 44.0887ZM45.5926 34.6162C43.6613 34.6162 42.0376 36.315 42.0376 38.2875C42.0376 40.3387 43.6238 41.9962 45.6301 41.9962C47.6026 41.9962 49.1851 40.3387 49.1851 38.325C49.1851 36.2737 47.5651 34.6162 45.5926 34.6162ZM45.5551 46.2187C43.4288 46.2187 41.6551 48.0712 41.6551 50.2837C41.6551 52.5712 43.3913 54.465 45.5926 54.465C47.7188 54.465 49.4926 52.5712 49.4926 50.3212C49.4926 48.0337 47.7563 46.2187 45.5551 46.2187ZM24.1163 58.53V39.3075H17.2163V35.1412C18.3188 35.1412 20.7038 35.055 22.7138 33.945C24.7276 32.835 25.5113 31.3087 25.5113 30.87H29.6176V58.53H24.1163ZM61.8263 41.925L56.3176 41.9475V47.4562H61.8301V52.9537H67.3313V47.4562H72.8288V41.9437H67.3313V36.45H61.8263V41.925Z" fill="#888888"/>
</svg>
