<svg width="71" height="71" viewBox="0 0 71 71" fill="none" xmlns="http://www.w3.org/2000/svg">
<path fill-rule="evenodd" clip-rule="evenodd" d="M71 58.5584V12.4414H16.1869V25.688C18.6904 25.8339 21.0434 26.9312 22.7643 28.7552C24.4852 30.5793 25.4437 32.9922 25.4437 35.4999C25.4437 38.0076 24.4852 40.4205 22.7643 42.2446C21.0434 44.0686 18.6904 45.1659 16.1869 45.3118V58.5584H71ZM15.0415 45.3118C12.538 45.1659 10.185 44.0686 8.46408 42.2446C6.7432 40.4205 5.78464 38.0076 5.78464 35.4999C5.78464 32.9922 6.7432 30.5793 8.46408 28.7552C10.185 26.9312 12.538 25.8339 15.0415 25.688V12.4414H0V58.5584H15.0416L15.0415 45.3118ZM6.92943 35.4999C6.9293 33.7822 7.43851 32.1031 8.39269 30.6748C9.34686 29.2466 10.7031 28.1334 12.29 27.4759C13.8769 26.8185 15.6231 26.6464 17.3077 26.9814C18.9924 27.3163 20.5399 28.1434 21.7546 29.3579C22.9692 30.5724 23.7965 32.1198 24.1317 33.8044C24.4669 35.4891 24.295 37.2353 23.6378 38.8222C22.9805 40.4092 21.8675 41.7656 20.4393 42.7199C19.0112 43.6743 17.3321 44.1837 15.6145 44.1838C13.312 44.1812 11.1046 43.2655 9.47645 41.6376C7.84828 40.0096 6.9323 37.8023 6.92943 35.4999ZM15.6145 42.4335C14.0521 42.4321 12.5541 41.811 11.4492 40.7064C10.3443 39.6018 9.72273 38.104 9.7209 36.5416V31.1104C9.72116 30.9585 9.7816 30.813 9.88898 30.7056C9.99636 30.5983 10.1419 30.5379 10.2938 30.5377H20.9339C21.0858 30.5377 21.2314 30.5981 21.3387 30.7055C21.4461 30.8129 21.5064 30.9585 21.5065 31.1104V36.5413C21.505 38.1035 20.8837 39.6013 19.7791 40.706C18.6745 41.8107 17.1767 42.432 15.6145 42.4335ZM10.8659 36.5413V31.6828H20.3608V36.5412C20.3608 37.8003 19.8606 39.0079 18.9702 39.8982C18.0799 40.7886 16.8723 41.2888 15.6132 41.2888C14.3541 41.2888 13.1465 40.7886 12.2562 39.8982C11.3658 39.0079 10.8656 37.8003 10.8656 36.5412L10.8659 36.5413ZM18.2494 36.2966C18.2494 36.9955 17.9717 37.6657 17.4775 38.1599C16.9833 38.6541 16.3131 38.9318 15.6142 38.9318C14.9153 38.9318 14.245 38.6541 13.7508 38.1599C13.2566 37.6657 12.979 36.9955 12.979 36.2966V34.1888C12.9791 34.0369 13.0395 33.8912 13.1469 33.7838C13.2544 33.6764 13.4001 33.6161 13.552 33.6162H17.6771C17.7523 33.6162 17.8267 33.631 17.8962 33.6597C17.9657 33.6885 18.0288 33.7307 18.082 33.7838C18.1352 33.837 18.1774 33.9001 18.2062 33.9696C18.235 34.0391 18.2498 34.1136 18.2498 34.1888V36.2966H18.2494ZM14.1239 36.2966V34.7619H17.1036V36.2964C17.1036 36.6917 16.9467 37.0707 16.6672 37.3501C16.3877 37.6296 16.0087 37.7866 15.6135 37.7866C15.2183 37.7866 14.8392 37.6296 14.5598 37.3501C14.2803 37.0707 14.1233 36.6917 14.1233 36.2964L14.1239 36.2966Z" fill="#888888"/>
</svg>
