<svg width="215" height="39" viewBox="0 0 215 39" fill="none" xmlns="http://www.w3.org/2000/svg">
<path fill-rule="evenodd" clip-rule="evenodd" d="M2.24729 38.739H103.982C105.23 38.739 106.229 37.7402 106.229 36.4917V2.2473C106.229 0.998795 105.23 0 103.982 0H18.8701C8.45409 0 0 8.4541 0 18.8701V36.4917C0 37.7402 0.998795 38.739 2.24729 38.739ZM0.85611 18.8701C0.85611 8.95349 8.91782 0.891785 18.8344 0.891785L104.017 0.85611C104.802 0.85611 105.409 1.4982 105.409 2.2473V36.4917C105.409 37.2765 104.767 37.8829 104.017 37.8829H2.24729C1.46252 37.8829 0.85611 37.2408 0.85611 36.4917V18.8701ZM2.21162 38.3109H103.946V38.418C104.981 38.418 105.837 37.5619 105.837 36.5274V2.28297C105.837 1.2485 104.981 0.392395 103.946 0.392395H18.7274C8.5611 0.392395 0.321041 8.63246 0.321041 18.7988V36.4204C0.321041 37.4548 1.17715 38.3109 2.21162 38.3109ZM35.9566 18.014V32.1398C35.9566 32.2825 35.8496 32.3895 35.7069 32.3895H30.1422C29.9995 32.3895 29.8925 32.2825 29.8925 32.1398C29.8925 31.9971 29.7855 31.8901 29.6428 31.8901H29.5358C28.9651 32.0685 28.43 32.2112 27.8236 32.2825C27.1458 32.3895 26.4324 32.4609 25.719 32.4609C24.0068 32.4252 22.3302 32.0685 20.7607 31.4264C19.1198 30.7843 17.6216 29.7855 16.4088 28.537C15.1603 27.3242 14.1972 25.8617 13.5551 24.2565C12.9487 22.6869 12.6276 21.0104 12.6276 19.2982C12.6276 17.5859 12.9487 15.9094 13.5551 14.3399C14.1972 12.699 15.1603 11.2008 16.4088 9.98796C17.6573 8.73947 19.1198 7.74066 20.7607 7.09859C23.9354 5.81442 27.5025 5.81442 30.6773 7.09859C32.2112 7.705 33.638 8.63245 34.8152 9.8096C34.9222 9.91661 34.9222 10.095 34.8152 10.1663L30.8913 14.0901C30.7843 14.1972 30.6059 14.1972 30.5346 14.0901C29.8925 13.4837 29.1791 13.02 28.3587 12.699C26.6464 12.0212 24.7202 12.0212 23.008 12.699C22.1162 13.0557 21.3314 13.5551 20.6537 14.2328C17.8713 17.0152 17.8713 21.5098 20.618 24.2565L20.6537 24.2921C21.2601 24.8986 21.9735 25.3979 22.7583 25.7547C23.5074 26.1114 24.3278 26.2897 25.1482 26.3611C25.9687 26.4324 26.7891 26.3611 27.6096 26.147C28.3587 25.933 29.1078 25.612 29.7498 25.1483C29.8212 25.1126 29.8569 25.0056 29.8569 24.9342V24.0424C29.8569 23.8997 29.7498 23.7927 29.6072 23.7927H24.8985C24.7559 23.7927 24.6488 23.6857 24.6488 23.543V18.0497C24.6488 17.907 24.7559 17.8 24.8985 17.8H35.6713C35.8139 17.7286 35.9566 17.8356 35.9566 18.014ZM55.7185 29.5358L56.6103 32.2468C56.6103 32.4252 56.7173 32.5322 56.86 32.5322H62.6388C62.6625 32.556 62.6863 32.5481 62.7101 32.5401C62.722 32.5362 62.7339 32.5322 62.7458 32.5322C62.8885 32.4609 62.9241 32.3182 62.8885 32.1755L54.6127 6.49219C54.577 6.38518 54.47 6.31383 54.363 6.31383H49.048C48.941 6.31383 48.834 6.38518 48.7983 6.49219L40.0588 32.1755V32.2825C40.0588 32.4252 40.1659 32.5322 40.3085 32.5322H46.123C46.23 32.5322 46.337 32.4609 46.3727 32.3539L47.3001 29.5358C47.3358 29.4288 47.4428 29.3575 47.5498 29.3575H55.4688C55.5758 29.3575 55.6829 29.4288 55.7185 29.5358ZM53.3285 23.222H49.8328C49.7614 23.2577 49.7257 23.2577 49.6544 23.222C49.5117 23.1507 49.4404 23.008 49.5117 22.8653L51.4023 17.6216C51.438 17.5503 51.4736 17.4789 51.5807 17.4433C51.7233 17.4076 51.866 17.4789 51.9017 17.6216L53.6139 22.8653V22.9723C53.6139 23.115 53.4712 23.222 53.3285 23.222ZM86.0748 6.17114H91.8535C91.9962 6.17114 92.1032 6.27815 92.1032 6.42084L93.6014 32.1398C93.6014 32.2825 93.4944 32.4252 93.3517 32.4252H93.316H87.8583C87.7157 32.4252 87.6086 32.3182 87.6086 32.1755L87.0736 23.0793C87.0736 22.9366 86.9666 22.8296 86.8239 22.8296C86.6812 22.8296 86.5742 22.9366 86.5742 23.0793L83.4708 32.2468C83.4351 32.3539 83.3281 32.4252 83.2211 32.4252H77.5137C77.4067 32.4252 77.2996 32.3539 77.264 32.2468L73.8752 22.5443C73.8752 22.4016 73.7682 22.2946 73.6255 22.2946C73.4828 22.2946 73.3758 22.4016 73.3758 22.5443L72.7694 32.1042C72.7694 32.2468 72.6267 32.3539 72.5197 32.3539H66.955C66.8123 32.3539 66.7053 32.2468 66.7053 32.1042V32.0685L68.3818 6.45651C68.3818 6.31383 68.5245 6.2068 68.6315 6.2068H74.4103C74.5173 6.2068 74.6243 6.27815 74.66 6.38516L80.082 21.9022C80.1177 22.0448 80.2604 22.1162 80.403 22.0805C80.5101 22.0448 80.5457 21.9735 80.5814 21.9022L85.8607 6.38516C85.8607 6.27815 85.9678 6.2068 86.0748 6.17114ZM211.78 0.42807H110.01C108.976 0.42807 108.155 1.21284 108.12 2.21164V36.456C108.12 37.4905 108.976 38.3466 110.01 38.3466H195.265C205.431 38.3466 213.671 30.1066 213.671 19.9402V2.31865C213.671 1.28418 212.815 0.42807 211.78 0.42807ZM195.158 38.739H110.01C108.762 38.739 107.763 37.7402 107.763 36.4917V2.2473C107.763 0.998795 108.762 0 110.01 0H211.78C213.029 0 214.028 0.998795 214.028 2.2473V19.8689C214.028 30.2849 205.574 38.7033 195.158 38.739ZM110.01 0.891785C109.261 0.891785 108.619 1.4982 108.619 2.28296V36.4917C108.619 37.2408 109.225 37.8829 110.01 37.8829H195.193C205.11 37.8829 213.171 29.8212 213.171 19.9046V2.28296C213.171 1.53387 212.565 0.891785 211.78 0.891785H110.01ZM122.495 32.1041C123.28 32.3538 124.136 32.4608 124.956 32.4608C125.566 32.4608 126.208 32.3965 126.883 32.3289L126.99 32.3182C129.273 31.8188 131.27 30.4633 132.554 28.537C133.446 27.1815 133.91 25.5763 133.91 23.9354C133.874 20.618 131.912 17.6216 128.88 16.3018C128.452 16.0878 128.06 15.9451 127.632 15.8024L126.419 15.41L125.135 14.9463C124.742 14.8036 124.386 14.6609 124.029 14.4469C123.672 14.1972 123.423 13.8405 123.316 13.4481C123.209 13.0557 123.244 12.6276 123.423 12.2709C123.53 12.0212 123.744 11.8072 123.993 11.6645C124.207 11.5218 124.457 11.4505 124.707 11.4148C124.921 11.3791 125.099 11.3791 125.313 11.4148H125.599C125.92 11.5218 126.205 11.6645 126.49 11.8429C126.776 12.0212 126.99 12.3779 126.99 12.7346C126.99 12.8417 127.097 12.9487 127.239 12.9487H132.697H132.733C132.875 12.9487 132.982 12.806 132.982 12.6633C132.947 11.8785 132.804 11.0938 132.554 10.3803C132.269 9.63124 131.912 8.91782 131.413 8.27574C130.878 7.63365 130.236 7.06291 129.522 6.59918C128.773 6.09979 127.917 5.77875 127.061 5.56471C126.169 5.31502 125.242 5.24367 124.314 5.31502C123.423 5.35069 122.566 5.56471 121.782 5.92143C120.997 6.27814 120.284 6.77754 119.641 7.34828C118.999 7.9547 118.464 8.66812 118.036 9.45288C117.573 10.309 117.287 11.2721 117.216 12.2352C117.037 14.1615 117.573 16.0521 118.714 17.5859C119.285 18.335 119.998 18.9771 120.819 19.4765C121.425 19.8689 122.031 20.1899 122.709 20.4396L124.6 21.0817L125.527 21.4028L126.348 21.7238C126.669 21.8665 126.918 22.0448 127.168 22.2589C127.346 22.4372 127.525 22.6513 127.632 22.8653C127.703 23.0436 127.774 23.2577 127.81 23.4717C127.846 23.7927 127.846 24.0781 127.81 24.3991C127.81 24.5775 127.739 24.7915 127.632 24.9699C127.525 25.1839 127.346 25.3979 127.168 25.5763C126.918 25.826 126.669 26.0044 126.348 26.1114C125.884 26.3254 125.385 26.4324 124.885 26.3967C124.386 26.3967 123.922 26.2184 123.494 25.933C123.173 25.719 122.888 25.4336 122.674 25.1126C122.388 24.7202 122.21 24.2208 122.21 23.7214C122.21 23.5787 122.103 23.4717 121.96 23.4717H116.36H116.324C116.181 23.4717 116.074 23.6144 116.074 23.7571C116.11 25.1839 116.467 26.5751 117.144 27.8236C117.858 29.1078 118.892 30.2136 120.141 31.034C120.89 31.5334 121.675 31.8901 122.495 32.1041ZM205.645 17.2649C205.645 18.7274 205.36 20.1543 204.824 21.5098C204.289 22.7939 203.505 23.9711 202.506 24.9699C201.507 25.9687 200.33 26.7891 199.046 27.3599C197.797 27.9306 196.477 28.216 195.086 28.2517C194.943 28.2517 194.836 28.3587 194.836 28.5014V32.1755C194.836 32.3182 194.729 32.4252 194.587 32.4252H189.093C188.951 32.4252 188.844 32.3182 188.844 32.1755V6.49219C188.844 6.3495 188.951 6.24249 189.093 6.24249H194.836C196.299 6.24249 197.726 6.56352 199.046 7.16994C200.33 7.74068 201.507 8.56111 202.506 9.55991C203.505 10.5587 204.289 11.7359 204.824 13.02C205.36 14.3755 205.645 15.8024 205.645 17.2649ZM194.801 21.9735C194.801 22.1162 194.908 22.2232 195.051 22.2232H195.086C195.621 22.1875 196.156 22.0092 196.656 21.7952C197.226 21.5455 197.726 21.1531 198.154 20.725C198.582 20.2613 198.939 19.7262 199.188 19.1555C199.688 17.9427 199.688 16.5872 199.188 15.3743C198.939 14.8036 198.618 14.2685 198.154 13.8048C197.726 13.3411 197.191 12.9844 196.656 12.7347C196.156 12.485 195.621 12.3423 195.086 12.3066C194.943 12.3066 194.836 12.3779 194.801 12.5206V21.9735ZM175.182 7.24127C173.576 6.56351 171.829 6.2068 170.081 6.2068C168.333 6.2068 166.585 6.56351 164.98 7.24127C161.841 8.56111 159.344 11.0581 158.024 14.1972C156.668 17.4433 156.668 21.1174 158.024 24.3992C159.344 27.5382 161.841 30.0352 164.98 31.355C168.261 32.7462 171.936 32.7462 175.182 31.355C176.751 30.6773 178.142 29.7142 179.355 28.5013C180.568 27.3242 181.495 25.8973 182.173 24.3635C183.564 21.1174 183.564 17.4433 182.173 14.1615C181.495 12.6276 180.532 11.2008 179.355 10.0236C178.142 8.84648 176.751 7.91902 175.182 7.24127ZM172.827 25.8617C171.971 26.2184 171.044 26.3967 170.081 26.3967C169.153 26.3967 168.226 26.2184 167.334 25.8617C165.622 25.1483 164.266 23.7927 163.553 22.0805C162.804 20.3326 162.804 18.335 163.553 16.5871C164.266 14.8749 165.622 13.5194 167.334 12.806C169.082 12.0569 171.079 12.0569 172.827 12.806C174.54 13.5194 175.895 14.8749 176.608 16.5871C177.358 18.335 177.358 20.3326 176.608 22.0805C175.895 23.7927 174.54 25.1483 172.827 25.8617ZM143.363 11.9856H148.928C149.07 11.9856 149.177 12.0926 149.177 12.2352V12.2709H143.113V12.2352C143.113 12.0926 143.22 11.9856 143.363 11.9856ZM143.113 12.2709V32.1755C143.113 32.3182 143.22 32.4252 143.363 32.4252H148.928C149.07 32.4252 149.177 32.3182 149.177 32.1755V12.2709H153.922C154.064 12.2709 154.171 12.1639 154.171 12.0212V6.45651C154.171 6.31383 154.064 6.2068 153.922 6.2068H138.369C138.226 6.2068 138.119 6.34949 138.119 6.45651V12.0212C138.119 12.1639 138.226 12.2709 138.369 12.2709H143.113Z" fill="#888888"/>
</svg>
