<svg width="135" height="74" viewBox="0 0 135 74" fill="none" xmlns="http://www.w3.org/2000/svg">
<path d="M85.7218 37.7825C85.7218 46.4299 82.3453 52.0131 75.5922 54.5322L89.0913 73.835H74.4362L62.6264 56.6162H54.3949V73.835H42.5078V19.875H62.7179C71.0029 19.875 76.9092 21.2897 80.4366 24.1191C83.964 26.9485 85.7257 31.503 85.7218 37.7825ZM71.3926 44.1831C72.8706 42.8642 73.6096 40.7437 73.6096 37.8217C73.6096 34.8996 72.8475 32.9205 71.3234 31.8842C69.7993 30.8059 67.1226 30.2621 63.3135 30.2621H54.3949V46.1924H63.0884C67.1519 46.1924 69.9165 45.5298 71.3914 44.1843L71.3926 44.1831Z" fill="#888888"/>
<path d="M89.1006 19.875V73.835H100.998V36.7043L89.1006 19.875Z" fill="#888888"/>
<path d="M107.494 30.0875V19.875H135.001V54.8219C135.001 61.2004 133.373 65.9726 130.117 69.1384C128.447 70.7302 126.483 71.9698 124.336 72.7853C122.19 73.6008 119.905 73.9758 117.614 73.8884C114.487 73.8919 111.393 73.232 108.533 71.951C105.673 70.6701 103.11 68.7965 101.008 66.4511L107.123 57.8833C110.301 61.3595 113.629 63.0941 117.106 63.0869C117.916 63.0878 118.717 62.9116 119.454 62.5701C120.191 62.2287 120.846 61.7301 121.375 61.1086C122.665 59.4481 123.296 57.3591 123.143 55.2518V30.0768L107.494 30.0875Z" fill="#888888"/>
<path d="M96.4361 23.2891C96.3775 26.1391 101.203 27.7221 102.57 24.2094C105.862 15.7509 108.03 0.1875 108.03 0.1875C108.03 0.1875 96.6706 11.4759 96.4361 23.2891Z" fill="#888888"/>
<path d="M100.306 21.9445L89.1406 13.6641L96.9548 24.9228C96.9548 24.9228 101.048 22.1725 100.306 21.9445Z" fill="#888888"/>
<path d="M16.4858 29.9992C15.9296 30.4533 15.4849 31.0318 15.1867 31.6892C14.8885 32.3467 14.7448 33.0653 14.7671 33.7885C14.7596 34.5456 14.9499 35.2913 15.3186 35.9498C15.6874 36.6084 16.2215 37.1566 16.8668 37.5386C18.2605 38.4554 21.4971 39.5471 26.5768 40.8138C31.6565 42.0804 35.5645 43.9733 38.3009 46.4924C41.1014 49.0186 42.5017 52.7022 42.5017 57.5433C42.5643 59.7948 42.1105 62.0303 41.176 64.0741C40.2414 66.1179 38.8515 67.9143 37.1156 69.3221C33.5272 72.3304 28.8126 73.8346 22.9716 73.8346C14.506 73.8346 6.90641 70.6679 0.172852 64.3346L7.26478 55.5352C13.008 60.6272 18.323 63.1732 23.2096 63.1732C25.0427 63.2835 26.8611 62.783 28.387 61.7482C28.985 61.3079 29.4676 60.7262 29.7927 60.0537C30.1178 59.3813 30.2756 58.6384 30.2523 57.89C30.2728 57.131 30.1047 56.379 29.7634 55.703C29.4221 55.027 28.9186 54.4487 28.2991 54.0211C26.9801 53.032 24.3914 52.1021 20.4849 51.132C14.236 49.6349 9.67292 47.6894 6.79582 45.2954C3.91871 42.9014 2.4829 39.1517 2.48837 34.0462C2.37686 31.7674 2.81486 29.4953 3.7645 27.4263C4.71415 25.3574 6.14689 23.5537 7.93892 22.1712C11.8855 19.2693 16.6824 17.7992 21.5553 17.9983C25.1913 18.0133 28.7993 18.6418 32.2313 19.858C35.6316 21.0139 38.7864 22.8082 41.5309 25.1471L35.5129 33.9465C31.4553 30.5913 26.4097 28.701 21.1731 28.5742C19.4934 28.478 17.8336 28.9823 16.4835 29.9992H16.4858Z" fill="#888888"/>
</svg>
