<svg width="291" height="56" viewBox="0 0 291 56" fill="none" xmlns="http://www.w3.org/2000/svg">
<path d="M22.7607 0.370453L26.6578 7.90043H52.8583L50.681 11.6469H28.6339L42.2281 37.464L51.9618 21.6064L40.9291 21.625L39.3373 18.4164H53.828L64.6595 0.370453H22.7607Z" fill="url(#paint0_linear_1450_89)"/>
<path d="M0 0.370453L32.4212 53.8407L40.5448 40.4128L32.1101 24.8707L25.3038 24.9263L33.9946 40.4499L32.4394 43.2134L12.0024 7.99316H15.6434L23.4926 21.9403L30.6282 21.9218L18.9184 0.370453H0Z" fill="url(#paint1_linear_1450_89)"/>
<path d="M71.0996 53.693L87.3286 0.501007H105.113L98.9651 53.7116H89.0118L90.0912 45.1058H83.7424L81.3273 53.7116H71.0996V53.693ZM86.2857 36.6115H91.0427L94.4093 9.53326H93.9153L86.2857 36.6115Z" fill="white"/>
<path d="M104.93 50.5955C103.32 48.203 103.064 44.3453 104.18 39.0222L105.278 33.8106H115.597L114.206 40.4318C113.657 43.0654 114.206 44.401 115.871 44.401C116.805 44.401 117.518 44.1226 117.994 43.5662C118.469 43.0098 118.854 42.0639 119.128 40.7472C119.494 39.0222 119.585 37.5756 119.421 36.4443C119.256 35.3131 118.927 34.367 118.451 33.5881C117.975 32.8277 117.097 31.6407 115.798 30.0272L112.23 25.446C109.449 21.9778 108.516 18.1388 109.394 13.9286C110.346 9.38464 112.102 5.93495 114.664 3.56097C117.244 1.18699 120.5 0 124.452 0C129.173 0 132.32 1.26118 133.857 3.80207C135.393 6.34298 135.613 10.312 134.479 15.7276H123.794L124.507 12.0739C124.654 11.3691 124.58 10.8128 124.269 10.4047C123.977 9.99669 123.464 9.79267 122.787 9.79267C121.964 9.79267 121.305 10.0152 120.811 10.4789C120.317 10.9426 119.97 11.5546 119.805 12.3336C119.439 14.077 120.043 15.8574 121.616 17.7307L126.483 23.6842C127.618 25.0938 128.514 26.4105 129.191 27.6718C129.868 28.9329 130.307 30.4167 130.508 32.1229C130.728 33.8292 130.582 35.8694 130.088 38.2249C128.99 43.4735 127.215 47.4425 124.745 50.1503C122.275 52.8582 118.872 54.2122 114.517 54.2122C109.724 54.1935 106.54 52.9879 104.93 50.5955Z" fill="white"/>
<path d="M129.813 53.693L140.974 0.501007H151.11L139.949 53.693H129.813Z" fill="white"/>
<path d="M144.175 53.693L155.318 0.501007H166.149L165.637 25.9471L170.961 0.501007H181.116L169.955 53.693H159.691L160.02 27.0599L154.439 53.693H144.175Z" fill="white"/>
<path d="M178.189 50.2616C176.542 47.6466 176.213 43.9557 177.201 39.2078L182.508 13.873C183.476 9.29192 185.287 5.82368 187.977 3.50533C190.685 1.16844 194.144 0 198.388 0C202.634 0 205.596 1.16844 207.317 3.50533C209.018 5.84223 209.403 9.29192 208.432 13.873L203.127 39.2078C202.12 43.9929 200.255 47.7022 197.509 50.2987C194.766 52.8953 191.27 54.1936 187.044 54.1936C182.781 54.1936 179.835 52.8766 178.189 50.2616ZM191.216 43.1767C191.709 42.3607 192.112 41.1923 192.423 39.7085L197.876 13.6875C198.113 12.5376 198.169 11.5917 198.003 10.8684C197.856 10.1451 197.309 9.79267 196.376 9.79267C194.619 9.79267 193.466 11.128 192.899 13.8173L187.465 39.7642C187.136 41.285 187.08 42.4534 187.283 43.2324C187.484 44.0113 188.069 44.401 189.056 44.401C190.009 44.401 190.722 43.9929 191.216 43.1767Z" fill="white"/>
<path d="M202.943 53.693L204.974 44.0303L224.021 10.2751H213.207L215.257 0.501007H237.194L235.255 9.79292L215.806 43.919H227.551L225.483 53.693H202.943Z" fill="white"/>
<path d="M229.346 53.693L240.507 0.501007H261.51L259.351 10.7759H249.033L246.873 21.125H256.772L254.668 31.1588H244.769L242.208 43.3624H253.204L251.026 53.693H229.346Z" fill="white"/>
<path d="M61.2379 40.3758C60.6707 43.0651 59.5731 44.4004 57.9445 44.4004C57.1213 44.4004 56.5908 44.085 56.3162 43.436C56.0418 42.7869 56.0601 41.7668 56.3529 40.3758L61.2379 17.0625L45.6495 41.8038C44.8261 45.9213 45.4664 48.1468 47.2229 50.5393C49.0159 52.969 51.8153 54.193 55.6576 54.193C64.4948 54.193 69.8555 49.7419 71.7219 40.8209L73.8259 30.787H63.2505L61.2379 40.3758Z" fill="white"/>
<path d="M71.1359 0.44455L65.2628 9.7921C66.1228 9.81065 66.6717 10.0888 66.9096 10.6452C67.1474 11.2202 67.1107 12.2774 66.7997 13.7982L65.1531 21.6621H75.6003L77.5213 12.4999C78.363 8.45673 77.8324 5.35943 75.9297 3.20802C74.7221 1.87265 73.1303 0.945311 71.1359 0.44455Z" fill="white"/>
<path d="M270.238 29.4154C271.738 29.4154 272.743 29.6193 273.22 30.0274C273.695 30.4355 273.786 31.3813 273.475 32.8836L269.121 53.693H271.078L283.739 33.5328C284.197 31.3627 284.197 29.6379 283.757 28.3582C283.318 27.0785 282.331 26.281 280.813 25.9471C282.861 25.2795 284.453 24.1111 285.588 22.4233C286.722 20.7355 287.6 18.3801 288.222 15.3569C288.918 12.0556 289.247 9.34779 289.193 7.21493C289.156 5.08205 288.551 3.43139 287.381 2.26294C286.228 1.0945 284.361 0.501007 281.8 0.501007H265.663L254.502 53.7116H265.132L270.238 29.4154ZM274.299 10.3493H276.75C277.354 10.3493 277.793 10.4792 278.068 10.7573C278.342 11.017 278.453 11.5178 278.435 12.204C278.416 12.9088 278.25 13.9659 277.957 15.3569C277.281 18.5841 276.22 20.1791 274.738 20.1791H272.231L274.299 10.3493Z" fill="white"/>
<defs>
<linearGradient id="paint0_linear_1450_89" x1="2.51745e-05" y1="27.1056" x2="64.6595" y2="27.1056" gradientUnits="userSpaceOnUse">
<stop stop-color="#00FFC8"/>
<stop offset="1" stop-color="#00AAFD"/>
</linearGradient>
<linearGradient id="paint1_linear_1450_89" x1="0" y1="27.1056" x2="64.6595" y2="27.1056" gradientUnits="userSpaceOnUse">
<stop stop-color="#00FFC8"/>
<stop offset="1" stop-color="#00AAFD"/>
</linearGradient>
</defs>
</svg>
