<svg width="44" height="58" viewBox="0 0 44 58" fill="none" xmlns="http://www.w3.org/2000/svg">
<path d="M25.6318 8.66137C25.644 8.59374 25.673 8.53087 25.673 8.45837C25.673 8.14662 25.557 7.86387 25.3636 7.65124L23.208 3.33987V1.20837C23.208 0.541371 22.6666 0 21.9996 0C21.3326 0 20.7912 0.541371 20.7912 1.20837V3.33987L18.5026 7.91949C18.4977 7.92912 18.5002 7.94124 18.4953 7.95087C18.4228 8.1055 18.3745 8.27712 18.3745 8.46075C18.3745 12.3806 18.0917 15.979 17.6108 19.3358H26.3857C25.9171 16.037 25.6416 12.5014 25.6318 8.66137Z" fill="#888888"/>
<path d="M43.5225 56.0848L42.1208 54.149C39.7936 50.9421 37.2996 47.4524 34.9578 43.4988H36.4997C37.1667 43.4988 37.7081 42.9574 37.7081 42.2904C37.7081 41.6234 37.1667 41.082 36.4997 41.082H8.70798C8.04098 41.082 7.49961 41.6234 7.49961 42.2904C7.49961 42.9574 8.04098 43.4988 8.70798 43.4988H9.0391C6.69973 47.4549 4.20335 50.9421 1.8761 54.149L0.474357 56.0848C0.210978 56.4521 0.174728 56.9403 0.380107 57.3439C0.585486 57.7475 1.00361 57.9988 1.45798 57.9988H11.1899C11.533 57.9988 11.8592 57.8514 12.0912 57.5976C12.3209 57.3415 12.4296 57.0008 12.3934 56.6575C12.3522 56.3047 12.333 55.9446 12.333 55.5821C12.333 50.251 16.6685 45.9155 21.9996 45.9155C27.3307 45.9155 31.6662 50.251 31.6662 55.5821C31.6662 55.9446 31.6469 56.3048 31.6082 56.6575C31.5696 57.0007 31.6807 57.339 31.9104 57.5976C32.14 57.8514 32.4662 57.9988 32.8117 57.9988H42.5436C42.998 57.9988 43.4112 57.7474 43.619 57.3439C43.827 56.9403 43.7883 56.4521 43.5225 56.0848Z" fill="#888888"/>
<path d="M17.5048 38.6666L19.6459 32.2431C19.8103 31.7501 20.2718 31.4166 20.7914 31.4166H23.2081C23.7277 31.4166 24.1892 31.7501 24.3536 32.2431L26.4947 38.6666H32.3068C30.243 34.4738 28.5054 29.6742 27.3019 24.1666H28.0391C28.7061 24.1666 29.2474 23.6253 29.2474 22.9583C29.2474 22.2913 28.7061 21.75 28.0391 21.75H15.9582C15.2912 21.75 14.7498 22.2914 14.7498 22.9584C14.7498 23.6254 15.2912 24.1667 15.9582 24.1667H16.6953C15.4942 29.6744 13.7542 34.4739 11.6904 38.6667H17.5048V38.6666Z" fill="#888888"/>
</svg>
