<svg width="63" height="63" viewBox="0 0 63 63" fill="none" xmlns="http://www.w3.org/2000/svg">
<path d="M51.6828 60.1918C53.7154 58.1026 54.8717 55.8815 55.5219 53.9054C63.3752 49.6043 64.729 41.9717 59.9573 39.1655C54.9067 36.192 51.3718 37.6807 51.3718 37.6807L40.2651 49.0096C36.9745 59.5016 46.1312 65.8998 51.6828 60.1918Z" fill="#9190FB"/>
<path d="M42.0268 60.072C42.646 59.8673 43.1104 59.2912 42.8991 57.9276C42.3849 54.6135 44.6221 48.3918 45.2656 52.1864C45.909 55.9811 48.9566 59.5887 49.3147 55.9259C49.6741 52.2645 49.0912 46.8451 51.6932 45.9028C54.2953 44.9605 61.1604 44.4665 59.4562 43.3452C57.7507 42.2239 51.2894 41.0568 56.3225 41.2816C61.3543 41.505 60.7001 39.6797 60.7001 39.6797C60.4726 39.494 60.2249 39.323 59.957 39.1655C54.9064 36.192 51.3715 37.6807 51.3715 37.6807L40.2647 49.0096C38.7583 53.8125 39.8582 57.754 42.0268 60.072Z" fill="#8989FA"/>
<path d="M55.5215 53.9054C57.328 52.916 58.8046 51.7301 59.9408 50.458C59.405 47.4777 56.2565 47.8008 56.2565 47.8008C56.2565 47.8008 56.6468 50.4863 55.5215 53.9054Z" fill="#8989FA"/>
<path d="M21.9499 47.2785C25.0466 49.664 29.6073 50.9674 33.4726 51.6399C36.0477 52.0882 37.9094 52.1864 37.9094 52.1864C37.9094 52.1864 38.8894 51.9078 40.3472 51.1796C44.1252 49.2959 47.4058 46.3043 49.6017 42.5241C23.0432 10.642 23.4293 11.0897 23.4158 11.0897C23.4158 11.0897 12.7883 16.1013 10.2401 26.2927C8.20329 34.4393 16.2855 42.9158 21.9499 47.2785Z" fill="#8989FA"/>
<path d="M39.1636 47.9408C39.1636 47.9408 39.7855 49.8267 40.3468 51.1796C41.7562 50.4769 43.6165 49.3529 45.4688 47.6541C45.3476 47.0537 45.2655 46.6405 45.2655 46.6405L41.4183 45.0049L39.1636 47.9408Z" fill="#A3A3F5"/>
<path d="M15.7696 23.0297L17.8251 22.9341L23.4411 12.491C23.4411 12.491 23.9163 6.61386 19.8429 2.39784C15.9268 -1.65651 8.8483 1.67202 6.54874 10.1582C4.7786 11.2526 2.89001 12.8962 1.3339 15.3595C-2.91456 22.0852 6.32892 28.6858 15.7696 23.0297Z" fill="#9190FB"/>
<path d="M3.7207 24.011C6.69022 25.6344 11.2064 25.7636 15.7697 23.0297L17.8253 22.9341L23.4412 12.491C23.4412 12.491 23.9164 6.61385 19.8431 2.39783C19.8431 2.39783 19.1175 5.25024 19.1175 8.4809C19.1175 11.7116 18.6935 8.52263 16.988 5.44004C15.2811 2.3561 17.7714 11.5097 14.5407 13.4615C11.3101 15.4134 7.20444 14.6057 4.37761 16.6249C1.55077 18.644 8.53978 20.1921 12.3143 19.7882C16.0888 19.3844 5.62276 21.168 3.7207 24.011Z" fill="#8989FA"/>
<path d="M6.54883 10.1582C9.60988 8.26285 12.3142 8.01516 12.3142 8.01516C12.3142 8.01516 12.5929 4.16663 10.3327 3.29031C8.71216 4.90834 7.34048 7.23711 6.54883 10.1582Z" fill="#8989FA"/>
<path d="M26.7997 42.9804C28.7669 44.3215 30.8917 45.44 33.1358 46.3941C36.9937 48.033 41.1658 48.7108 44.882 46.8464L45.2656 46.6404C47.652 45.3141 49.4144 43.1298 50.6851 40.7001V40.6987C52.6181 37.0036 53.139 33.283 53.139 33.283C49.9401 25.5367 44.7575 17.2838 37.6709 12.674C37.6695 12.6713 37.6682 12.6713 37.6682 12.6713C34.1936 10.4108 29.8928 8.87397 25.9126 9.97105C23.3493 10.6752 21.4039 12.4025 20.1082 14.7053C14.9082 23.9652 15.6067 35.3412 26.7997 42.9804Z" fill="#9190FB"/>
<path d="M26.8735 9.75702C26.9867 9.87305 28.577 14.1484 29.8807 19.2121C32.4491 20.7897 35.2477 22.8493 37.9143 25.4917C36.7446 19.8703 34.716 14.2167 31.2686 9.89432C29.7273 9.56991 28.2479 9.52279 26.8735 9.75702Z" fill="#9190FB"/>
<path d="M37.6709 12.674C37.8001 12.8046 41.9596 17.0677 43.6113 27.1851C44.0044 29.592 44.3032 31.9382 44.532 34.1203C46.1649 37.0077 47.5285 40.2895 48.4586 44.0102C49.3538 42.9831 50.0874 41.8429 50.6851 40.7001V40.6987C52.6181 37.0036 53.1391 33.283 53.1391 33.283C49.94 25.5367 44.7575 17.2838 37.6709 12.674Z" fill="#9190FB"/>
<path d="M20.1079 14.7053C20.1079 14.7053 21.2831 15.0257 23.1663 15.7943C22.6709 14.6501 22.1096 13.6284 21.4715 12.775C21.4516 12.775 20.7394 13.5832 20.1079 14.7053Z" fill="#9190FB"/>
<path d="M37.9148 25.4917C40.2678 36.7802 39.164 47.9408 39.164 47.9408C41.3972 48.0821 43.2885 47.646 44.8823 46.8464L45.2659 46.6404C45.278 41.7872 44.711 33.918 43.6115 27.1851C41.9599 17.0677 37.8004 12.8046 37.6711 12.674C37.6698 12.6713 37.6685 12.6713 37.6685 12.6713C35.4878 11.2525 33.3232 10.3264 31.269 9.89432C34.7163 14.2167 36.745 19.8703 37.9148 25.4917Z" fill="#C5C5FE"/>
<path d="M28.3612 50.4149C30.1569 50.983 31.9405 51.3734 33.4724 51.6399C33.4724 51.6399 32.0698 48.7081 32.2824 46.0212C30.2296 45.0965 28.407 44.0761 26.7997 42.9804C26.7997 42.9804 26.1415 47.0591 28.3612 50.4149Z" fill="#A3A3F5"/>
<path d="M21.4707 12.7723V12.7736C21.4707 12.775 21.4707 12.775 21.4721 12.775C27.3629 20.6545 26.7932 42.9669 26.8 42.9804C28.4072 44.0761 30.2298 45.0965 32.2827 46.0212C33.3124 35.8796 31.6338 26.0651 29.8812 19.2121C29.1509 16.3754 27.9281 12.2884 26.8767 9.75836C26.7617 9.75836 25.9576 9.94561 25.6315 10.0545C25.5357 10.0758 24.8932 10.3057 24.6408 10.4274C23.4325 10.9617 22.3606 11.7661 21.4707 12.7723Z" fill="#C5C5FE"/>
<path d="M31.269 9.89432C34.7164 14.2167 36.745 19.8703 37.9148 25.4917C40.3176 27.8703 42.6114 30.7227 44.5323 34.1203C44.3034 31.9382 44.0046 29.592 43.6115 27.1851C41.9599 17.0677 37.8004 12.8046 37.6711 12.674C37.6698 12.6713 37.6685 12.6713 37.6685 12.6713C35.4876 11.2525 33.3232 10.3264 31.269 9.89432Z" fill="#D0D0FC"/>
<path d="M21.4707 12.7723V12.7737C21.4707 12.775 21.4707 12.775 21.4721 12.775C22.1101 13.6284 22.6714 14.6501 23.1668 15.7943C24.9181 16.5105 27.2819 17.6143 29.8812 19.2121C28.6035 14.2491 27.0065 9.89271 26.874 9.75702C24.6825 10.1351 22.8752 11.1843 21.4707 12.7723Z" fill="#D0D0FC"/>
<path d="M48.916 24.9078C48.916 24.9078 51.6189 33.945 50.6851 40.6993C52.6185 37.0039 53.139 33.283 53.139 33.283C51.8613 30.1894 50.4379 27.3961 48.9172 24.9082C48.916 24.9078 48.916 24.9078 48.916 24.9078Z" fill="#D0D0FC"/>
<path d="M25.9788 35.6831C27.057 37.2406 28.7854 39.3499 30.9944 40.6772C31.9205 41.2331 32.9947 41.2479 33.8347 40.7512C34.7999 40.1832 36.2631 39.4455 37.694 39.2005C40.9187 39.1874 43.4578 37.3037 44.7315 34.4783C46.5353 30.4804 45.7572 24.8012 42.1429 20.534C37.5068 15.0572 30.5717 14.7048 27.3384 19.9471C25.0974 23.5805 26.0757 27.7549 26.0757 27.9012C26.0744 27.9753 25.9976 30.191 25.365 32.2478C25.0258 33.349 25.2667 34.656 25.9788 35.6831Z" fill="#BCBAFC"/>
<path d="M30.1652 24.1265C28.9659 25.8934 28.9167 28.1956 29.9991 29.3188C31.0671 30.4272 32.8997 30.0331 34.1492 28.3937C35.4503 26.6864 35.651 24.2588 34.5335 23.0207C33.3999 21.7646 31.4156 22.2846 30.1652 24.1265Z" fill="#9190FB"/>
<path d="M35.6333 29.983C34.3661 31.576 34.2061 33.6848 35.2193 34.7364C36.2196 35.7745 38.046 35.4485 39.3551 33.9693C40.7164 32.4309 41.0267 30.2141 39.9852 29.0603C38.929 27.8902 36.9524 28.3248 35.6333 29.983Z" fill="#9190FB"/>
<path d="M28.5376 18.4179C28.5376 18.4179 39.7211 23.3231 44.7313 34.4784C46.5351 30.4804 45.757 24.8012 42.1427 20.534C37.9483 15.579 32.0321 14.8992 28.5376 18.4179Z" fill="#C7C5FC"/>
<path d="M10.2311 25.3198C10.1419 25.6122 10.0571 25.9151 9.97879 26.227C8.00378 34.1275 15.3342 42.523 21.7854 47.4919C24.9229 49.9087 29.5208 51.2257 33.4263 51.9052C35.9875 52.3512 37.8763 52.4544 37.895 52.4554C37.9234 52.457 37.9533 52.4539 37.9829 52.4454C38.0024 52.4399 38.5297 52.2844 39.3757 51.9198C38.4307 60.8438 46.666 65.7381 51.8755 60.3794C53.6543 58.5511 54.9554 56.4357 55.7439 54.0904C63.3128 49.8901 65.2976 41.9995 60.0937 38.9336C56.711 36.9419 53.9963 36.8983 52.461 37.1344C53.1669 34.9744 53.402 33.3451 53.4055 33.3204C53.4123 33.2729 53.4061 33.2246 53.3878 33.1803C52.1411 30.1618 50.7145 27.3316 49.1471 24.7684C45.5573 18.8168 41.1262 14.5034 37.8145 12.446L37.8147 12.4457C33.542 9.66576 28.1012 8.06362 23.6679 10.6214C23.4803 8.52318 22.7409 5.01024 20.0363 2.21086C15.8415 -2.13169 8.63039 1.64065 6.3167 9.98546C4.22121 11.2998 2.46843 13.059 1.10604 15.2158C-2.40772 20.7792 2.94253 26.3189 10.2311 25.3198ZM39.9497 51.6613C41.5252 50.9231 43.8351 49.6011 46.0795 47.4399C46.0812 49.483 46.4302 52.4687 47.881 56.0276C47.9367 56.1647 48.0936 56.2315 48.2318 56.1752C48.3693 56.1191 48.4356 55.962 48.3794 55.8243C46.8252 52.0112 46.5642 48.8797 46.6261 46.8955C47.4855 46.0087 48.3249 44.9931 49.0992 43.8358C50.8269 43.4762 53.2394 43.139 55.1388 43.511C55.2858 43.5394 55.4262 43.4444 55.4548 43.2985C55.4834 43.1527 55.3883 43.0111 55.2424 42.9825C53.4407 42.6299 51.227 42.8806 49.5048 43.2063C49.6161 43.0268 49.7263 42.8451 49.8343 42.6592C50.0248 42.3344 51.1997 40.7376 52.2638 37.7151C53.6485 37.4454 56.355 37.3569 59.8204 39.3976C64.5082 42.1593 62.7991 49.2555 55.9783 53.3324C56.8627 50.2146 56.5383 47.867 56.523 47.7622C56.5017 47.615 56.3654 47.5131 56.218 47.5345C56.0708 47.5558 55.9688 47.6923 55.9901 47.8394C55.9938 47.8657 56.3559 50.509 55.2659 53.8214C54.5066 56.1287 53.236 58.2088 51.4893 60.0041C49.4462 62.1055 46.752 62.638 44.2824 61.429C41.841 60.2335 39.2583 56.9614 39.9497 51.6613ZM1.56169 15.5033C2.89946 13.3855 4.62504 11.6641 6.69038 10.3871C6.69051 10.3871 6.69051 10.387 6.69065 10.3869C9.6634 8.54647 12.3124 8.28573 12.3388 8.2833C12.4869 8.26971 12.5959 8.13873 12.5823 7.99066C12.5687 7.84272 12.4392 7.73395 12.2897 7.74715C12.184 7.75684 9.82399 7.98958 6.99931 9.57974C8.35565 5.2349 11.2149 1.95133 14.4113 1.12953C16.3903 0.620434 18.2509 1.13734 19.6494 2.58495C22.3619 5.39253 23.0134 8.96403 23.154 10.9419C21.7472 11.8837 20.6839 13.1332 19.8736 14.5735C17.1164 19.4838 16.1371 24.6451 17.0421 29.5002C18.524 37.4523 24.7526 42.9245 32.1718 46.2669C35.4616 47.7378 38.9604 48.7512 42.5094 47.9699C42.6547 47.938 42.7465 47.7943 42.7144 47.6491C42.6825 47.5039 42.5384 47.4115 42.3937 47.4441C39.3249 48.1193 36.1099 47.3652 33.2411 46.1464C31.0294 45.206 28.9062 44.0908 26.9514 42.7581C15.0717 34.6502 15.7484 23.0189 20.3429 14.8374C25.575 5.53454 39.191 9.48551 48.6865 25.0479C48.689 25.0522 48.6917 25.0564 48.6947 25.0604C50.2326 27.5771 51.6343 30.3545 52.8616 33.3167C52.7777 33.8463 52.1895 37.2425 50.4465 40.5741C49.9304 41.5939 49.3994 42.3172 49.3567 42.4095C45.2321 49.4962 38.4741 51.7297 37.8771 51.9151C37.5749 51.8963 35.8251 51.7764 33.5185 51.3749C29.7098 50.7122 25.1766 49.4246 22.114 47.0654C15.8542 42.2442 8.58866 34.0071 10.5009 26.3581C10.6 25.9643 10.7091 25.5849 10.825 25.2255C12.5484 24.9093 14.2577 24.2495 15.908 23.2608C16.0355 23.1843 16.0769 23.019 16.0006 22.8914C15.9242 22.764 15.759 22.7225 15.6312 22.7988C6.41308 28.3216 -2.51985 21.9649 1.56169 15.5033Z" fill="#3A00DB"/>
<path d="M5.54585 16.8775C12.1477 17.8834 16.2643 15.991 17.014 15.6061C17.0589 14.7368 17.2196 10.2248 15.9367 7.42637C15.8748 7.29122 15.9341 7.13144 16.0693 7.06952C16.2042 7.00733 16.3641 7.06669 16.4262 7.20198C17.9013 10.4196 17.558 15.5732 17.5427 15.7911C17.5365 15.8797 17.4869 15.9594 17.4103 16.0043C17.2658 16.0891 14.426 17.7131 9.35696 17.7131C8.1783 17.7131 6.8785 17.6252 5.46455 17.4098C5.31755 17.3873 5.21659 17.25 5.23894 17.1032C5.26155 16.956 5.39859 16.8553 5.54585 16.8775Z" fill="#3A00DB"/>
<path d="M37.7169 39.4701C42.9837 39.4336 46.1736 34.7282 45.9204 29.2709C45.5921 22.2002 39.5898 15.4886 33.2567 15.9662C30.7005 16.1583 28.5171 17.5219 27.1089 19.8057C25.7386 22.0283 25.276 24.9076 25.8051 27.9165C25.7966 28.1445 25.7026 30.2304 25.1068 32.1684C24.748 33.3348 24.9969 34.7403 25.7563 35.8366C26.7492 37.2702 27.9497 38.6708 29.2737 39.7743C29.2834 39.7834 29.2936 39.7916 29.3047 39.7992C29.7914 40.2027 30.3089 40.579 30.8553 40.9075C31.8479 41.5036 33.0418 41.5326 33.9711 40.983C34.918 40.4255 36.3346 39.7115 37.7169 39.4701ZM37.692 38.9318C37.6772 38.9318 37.6624 38.9332 37.6479 38.9357C36.1781 39.187 34.6886 39.9356 33.6976 40.5194C32.9268 40.9753 31.9684 40.9477 31.1327 40.4461C30.8296 40.2639 30.5362 40.065 30.2514 39.8555C30.7753 39.7279 31.4974 39.3394 32.3504 38.32C32.4458 38.206 32.4308 38.0361 32.3166 37.9408C32.2027 37.8455 32.0328 37.8603 31.9374 37.9745C30.6153 39.5548 29.7529 39.3911 29.5988 39.3448C28.8929 38.7545 28.2553 38.1035 27.6943 37.4586C28.6697 37.5553 29.4958 36.8369 30.0996 36.0645C30.1911 35.9473 30.1702 35.7781 30.0531 35.6866C29.9363 35.5952 29.7668 35.6157 29.6751 35.7329C29.0601 36.52 28.4565 36.9225 27.8817 36.9292C27.5002 36.9343 27.1313 36.7468 26.9077 36.4979C26.6469 36.1602 26.4095 35.8336 26.1992 35.5301C25.5315 34.5664 25.3102 33.339 25.6217 32.3268C26.2339 30.3351 26.364 27.9805 26.3408 27.8532C25.8263 24.9635 26.2618 22.206 27.5673 20.0886C28.8825 17.9554 30.9175 16.6821 33.2971 16.5033C36.0132 16.2986 39.2351 17.5167 41.9373 20.7079C48.163 28.0602 45.5098 38.898 37.692 38.9318Z" fill="#3A00DB"/>
<path d="M34.3633 28.5568C35.7594 26.7253 35.9254 24.1608 34.7334 22.8403C34.2391 22.2925 33.5612 22.0194 32.8245 22.0696C31.781 22.1416 30.7035 22.854 29.9426 23.9752C28.6758 25.8414 28.6154 28.2706 29.8051 29.5055C30.2487 29.9659 30.8399 30.2147 31.4824 30.2147C32.6244 30.2148 33.6661 29.4719 34.3633 28.5568ZM33.9351 28.2304C33.2727 29.0995 32.4206 29.6253 31.5972 29.673C29.4293 29.7971 28.7895 26.6327 30.3881 24.2776C30.9822 23.4025 31.9475 22.602 33.0012 22.602C33.5201 22.602 33.9786 22.8074 34.3339 23.201C35.3433 24.3195 35.1606 26.6226 33.9351 28.2304Z" fill="#3A00DB"/>
<path d="M36.7547 35.6098C37.7312 35.589 38.7523 35.0561 39.5564 34.1478C41.0259 32.4873 41.3078 30.1241 40.1846 28.8799C39.723 28.3685 39.0965 28.1092 38.3757 28.1328C37.3388 28.1651 36.2347 28.7941 35.4223 29.8154C33.4468 32.2989 34.1604 35.6613 36.7547 35.6098ZM36.7433 35.0715C34.6144 35.1128 34.1832 32.2379 35.8437 30.1506C36.4767 29.3547 37.4458 28.6699 38.4602 28.6699C38.9903 28.6699 39.4471 28.8664 39.7849 29.2406C40.7142 30.2701 40.4249 32.3539 39.1531 33.7909C38.4484 34.5871 37.5702 35.0538 36.7433 35.0715Z" fill="#3A00DB"/>
</svg>
