<svg width="12" height="11" viewBox="0 0 12 11" fill="none" xmlns="http://www.w3.org/2000/svg">
<path d="M5.07437 10.6771C5.07273 10.6771 5.07082 10.6771 5.06918 10.6771C5.00137 10.6757 4.93738 10.6467 4.89144 10.597L0.203085 5.49901C0.122694 5.41151 0.115312 5.27972 0.185585 5.18374C0.255859 5.08804 0.383827 5.05522 0.491562 5.10554L4.78262 7.11475C4.81871 7.13171 4.86137 7.1235 4.88898 7.09479L11.4345 0.25366C11.5231 0.160965 11.668 0.150848 11.7687 0.230692C11.8693 0.310535 11.8925 0.453817 11.8223 0.561278L5.31117 10.5357C5.30187 10.5502 5.29094 10.5633 5.27891 10.5757L5.25019 10.6044C5.20344 10.6508 5.14 10.6771 5.07437 10.6771Z" fill="#00A53A"/>
</svg>
