<svg width="38" height="30" viewBox="0 0 38 30" fill="none" xmlns="http://www.w3.org/2000/svg">
<path d="M35.3177 14.9084V14.2196C35.3177 12.9507 34.6608 11.833 33.6697 11.1867V3.67305C33.6697 1.69618 32.0614 0.0878906 30.0845 0.0878906H7.91537C5.9385 0.0878906 4.33014 1.69618 4.33014 3.67305V11.1866C3.33909 11.8329 2.68215 12.9507 2.68215 14.2195V14.9083C1.66737 15.1755 0.916626 16.1009 0.916626 17.1985V25.258C0.916626 26.5259 1.91841 27.5641 3.17203 27.6231V28.5769C3.17203 29.1609 3.64551 29.6344 4.22955 29.6344C4.81358 29.6344 5.28707 29.1609 5.28707 28.5769V27.6259H32.7128V28.5769C32.7128 29.1609 33.1863 29.6344 33.7703 29.6344C34.3543 29.6344 34.8278 29.1609 34.8278 28.5769V27.6231C36.0815 27.564 37.0833 26.5259 37.0833 25.2579V17.1985C37.0833 16.1008 36.3326 15.1755 35.3177 14.9084ZM6.44525 3.67305C6.44525 2.86241 7.10473 2.20293 7.91537 2.20293H30.0845C30.8952 2.20293 31.5547 2.86241 31.5547 3.67305V10.6003H30.1446V8.73631C30.1446 7.43163 29.0832 6.37015 27.7784 6.37015H22.088C20.7833 6.37015 19.7218 7.43163 19.7218 8.73631V10.6003H18.2781V8.73631C18.2781 7.43163 17.2166 6.37015 15.9119 6.37015H10.2215C8.91673 6.37015 7.85533 7.43163 7.85533 8.73631V10.6003H6.44525V3.67305ZM28.0295 8.73624V10.3492C28.0295 10.4876 27.9168 10.6002 27.7784 10.6002H22.088C21.9495 10.6002 21.8369 10.4876 21.8369 10.3492V8.73624C21.8369 8.59779 21.9496 8.4852 22.088 8.4852H27.7784C27.9169 8.4852 28.0295 8.59779 28.0295 8.73624ZM16.163 8.73624V10.3492C16.163 10.4876 16.0503 10.6002 15.9119 10.6002H10.2215C10.083 10.6002 9.97044 10.4876 9.97044 10.3492V8.73624C9.97044 8.59779 10.0831 8.4852 10.2215 8.4852H15.9119C16.0503 8.4852 16.163 8.59779 16.163 8.73624ZM4.79727 14.2195C4.79727 13.3901 5.47207 12.7154 6.3015 12.7154H31.6984C32.5278 12.7154 33.2027 13.3902 33.2027 14.2195V14.8304H4.79727V14.2195ZM34.9682 25.2579C34.9682 25.3973 34.8547 25.5108 34.7152 25.5108H3.28462C3.14518 25.5108 3.03167 25.3973 3.03167 25.2579V17.1985C3.03167 17.059 3.14511 16.9456 3.28462 16.9456H34.7153C34.8547 16.9456 34.9683 17.059 34.9683 17.1985V25.2579H34.9682Z" fill="white"/>
</svg>
