<svg width="41" height="41" viewBox="0 0 41 41" fill="none" xmlns="http://www.w3.org/2000/svg">
<path d="M31.3906 32.909C31.365 32.0954 31.1728 30.2056 29.9492 28.9884C28.3605 27.3996 25.625 27.547 25.625 27.547C25.625 27.547 25.4712 30.276 27.0664 31.8712C28.6551 33.46 31.3906 33.3126 31.3906 33.3126C31.3906 33.3126 34.1197 33.4664 35.7148 31.8712C37.3036 30.2825 37.1562 27.547 37.1562 27.547C37.1562 27.547 34.4272 27.3932 32.832 28.9884C31.6084 30.212 31.4162 32.0954 31.3906 32.909Z" fill="white"/>
<path d="M29.4751 27.0857C29.962 27.3355 30.436 27.6558 30.8588 28.0786C31.0574 28.2772 31.2368 28.495 31.3906 28.7193C31.5507 28.495 31.7237 28.2836 31.9223 28.0786C32.3451 27.6558 32.8192 27.3355 33.306 27.0857C32.6782 25.4457 31.3906 24.2861 31.3906 24.2861C31.3906 24.2861 30.1029 25.4393 29.4751 27.0857Z" fill="white"/>
<path d="M37.7969 33.3124H26.8038C26.5795 33.1522 26.3681 32.9793 26.1631 32.7743C24.19 30.8011 24.3437 27.6108 24.3502 27.4763L24.4142 26.336L25.5609 26.2655C25.5609 26.2655 25.657 26.2655 25.8236 26.2655C26.3425 26.2655 27.2778 26.3232 28.2836 26.6243C29.0203 24.7216 30.4553 23.4147 30.5386 23.3379L31.3906 22.5755V13.5363C31.3906 13.1519 31.0575 12.8572 30.6795 12.9021L26.2656 13.3954V10.1794C27.47 9.89113 28.3733 8.80848 28.3733 7.51441C28.3733 5.15051 25.625 2.5752 25.625 2.5752C25.625 2.5752 22.8767 5.15051 22.8767 7.51441C22.8767 8.80848 23.7736 9.88473 24.9844 10.1794V13.5363L20.4295 14.0424C20.1028 14.0808 19.8594 14.3499 19.8594 14.6766V20.5063C21.9798 20.5063 23.7031 22.2296 23.7031 24.35C23.7031 25.6889 23.0177 26.8613 21.9798 27.5532C23.0177 28.245 23.7031 29.4174 23.7031 30.7563C23.7031 31.7428 23.3252 32.6397 22.7166 33.3188H19.8594C21.2752 33.3188 22.4219 32.1721 22.4219 30.7563C22.4219 29.3405 21.2752 28.1938 19.8594 28.1938H8.64844C8.11672 28.1938 7.6875 28.623 7.6875 29.1547C7.6875 29.6864 8.11672 30.1157 8.64844 30.1157H19.2188C19.5711 30.1157 19.8594 30.4039 19.8594 30.7563C19.8594 31.1086 19.5711 31.3969 19.2188 31.3969H8.64844C7.41203 31.3969 6.40625 30.3911 6.40625 29.1547C6.40625 28.828 6.48313 28.5205 6.60484 28.2386C5.40047 28.45 4.48438 29.4943 4.48438 30.7563C4.48438 32.1721 5.63109 33.3188 7.04688 33.3188H3.20312C2.85078 33.3188 2.5625 33.6071 2.5625 33.9594V35.2407C2.5625 35.593 2.85078 35.8813 3.20312 35.8813H5.125V38.4438H7.6875V35.8813H33.3125V38.4438H35.875V35.8813H37.7969C38.1492 35.8813 38.4375 35.593 38.4375 35.2407V33.9594C38.4375 33.6071 38.1492 33.3188 37.7969 33.3188V33.3124Z" fill="white"/>
<path d="M7.04688 26.9062H19.8594C21.2752 26.9062 22.4219 25.7595 22.4219 24.3438C22.4219 22.928 21.2752 21.7812 19.8594 21.7812H8.64844C8.11672 21.7812 7.6875 22.2105 7.6875 22.7422C7.6875 23.2739 8.11672 23.7031 8.64844 23.7031H19.2188C19.5711 23.7031 19.8594 23.9914 19.8594 24.3438C19.8594 24.6961 19.5711 24.9844 19.2188 24.9844H8.64844C7.41203 24.9844 6.40625 23.9786 6.40625 22.7422C6.40625 22.4155 6.48313 22.108 6.60484 21.8261C5.40047 22.0375 4.48438 23.0817 4.48438 24.3438C4.48438 25.7595 5.63109 26.9062 7.04688 26.9062Z" fill="white"/>
</svg>
