<svg width="36" height="36" viewBox="0 0 36 36" fill="none" xmlns="http://www.w3.org/2000/svg">
<g clip-path="url(#clip0_2377_195)">
<path d="M12.8583 19.0706L15.4673 17.6975L12.8583 16.3244L14.4312 13.8307L11.4851 13.946L11.6005 11L9.10677 12.5729L7.73364 9.96387L6.36051 12.5729L3.86682 11L3.98213 13.946L1.03612 13.8307L2.609 16.3244L0 17.6975L2.609 19.0706L1.03612 21.5643L3.98213 21.449L3.86682 24.395L6.36051 22.8221L7.73364 25.4311L9.10677 22.8221L11.6005 24.395L11.4851 21.4489L14.4312 21.5643L12.8583 19.0706ZM7.73364 21.5643C5.59805 21.5643 3.86682 19.833 3.86682 17.6975C3.86682 15.562 5.59805 13.8307 7.73364 13.8307C9.86923 13.8307 11.6005 15.562 11.6005 17.6975C11.6005 19.833 9.86923 21.5643 7.73364 21.5643Z" fill="white"/>
<path d="M32.3901 33.005C31.6778 33.5059 31.1632 33.8678 29.9969 33.8678C28.8305 33.8678 28.3159 33.5059 27.6035 33.005C26.8137 32.4497 25.8307 31.7586 23.9972 31.7586C22.1637 31.7586 21.1807 32.4498 20.3909 33.005C19.6786 33.5059 19.164 33.8678 17.9978 33.8678C16.8316 33.8678 16.317 33.5059 15.6047 33.005C14.8149 32.4498 13.832 31.7586 11.9986 31.7586C10.165 31.7586 9.18214 32.4498 8.39233 33.005C7.68006 33.5059 7.16545 33.8678 5.99925 33.8678C4.83305 33.8678 4.31851 33.5059 3.60624 33.005C2.81643 32.4497 1.83353 31.7585 0 31.7585V33.8677C1.16613 33.8677 1.68081 34.2295 2.39308 34.7304C3.18289 35.2857 4.16586 35.9769 5.99925 35.9769C7.83278 35.9769 8.81568 35.2857 9.60549 34.7304C10.3178 34.2296 10.8324 33.8677 11.9986 33.8677C13.1648 33.8677 13.6793 34.2295 14.3916 34.7304C15.1814 35.2857 16.1644 35.9769 17.9977 35.9769C19.8311 35.9769 20.8142 35.2858 21.604 34.7304C22.3163 34.2296 22.8309 33.8677 23.9971 33.8677C25.1634 33.8677 25.6781 34.2295 26.3904 34.7304C27.1802 35.2858 28.1633 35.9769 29.9968 35.9769C31.8303 35.9769 32.8133 35.2858 33.6031 34.7304C34.3155 34.2297 34.8301 33.8677 35.9965 33.8677V31.7585C34.163 31.7585 33.18 32.4496 32.3901 33.005Z" fill="white"/>
<path d="M34.9069 7.70329C33.7471 5.21614 31.7906 3.26146 29.3356 2.11059L29.8328 0.744493L27.8507 0.0229492L27.3533 1.38975C21.6225 -0.127027 15.5585 2.96158 13.4924 8.63824L13.0667 9.80802L14.2905 10.0357C16.2683 10.4036 18.1592 11.0919 19.9106 12.0813L20.1568 12.2204L20.4396 12.2176C20.4751 12.2173 20.5107 12.2171 20.5462 12.2171C21.4771 12.2171 22.397 12.3362 23.2856 12.5657L18.3712 26.0677C18.2469 26.0662 18.1227 26.0639 17.9982 26.0639C14.7396 26.0639 11.5394 26.5975 8.48633 27.6499C6.56294 28.3129 4.72196 29.1743 2.98328 30.2201C3.78659 30.5543 4.37848 30.97 4.81913 31.2798C5.43584 31.7134 5.50031 31.7587 5.99918 31.7587C6.49811 31.7587 6.56252 31.7134 7.17902 31.2799C8.04653 30.6699 9.49791 29.6496 11.9985 29.6496C14.4991 29.6496 15.9505 30.6701 16.8176 31.2798C17.4343 31.7134 17.4988 31.7587 17.9977 31.7587C18.4966 31.7587 18.561 31.7134 19.1774 31.2799C20.045 30.67 21.4964 29.6496 23.9971 29.6496C26.498 29.6496 27.9494 30.6701 28.8166 31.2798C29.4333 31.7134 29.4977 31.7587 29.9967 31.7587C30.4957 31.7587 30.5602 31.7134 31.1767 31.2799C31.6174 30.97 32.2095 30.5543 33.013 30.22C31.2743 29.1741 29.4334 28.3127 27.5099 27.6497C25.2663 26.8764 22.9431 26.3844 20.5757 26.1773L25.2675 13.2869C26.1274 13.6973 26.9365 14.221 27.6714 14.85L27.8863 15.0338L28.1643 15.0855C30.1421 15.4535 32.033 16.1417 33.7845 17.1311L34.8684 17.7434L35.2942 16.5735C36.3539 13.6618 36.2165 10.5116 34.9069 7.70329Z" fill="white"/>
</g>
<defs>
<clipPath id="clip0_2377_195">
<rect width="36" height="36" fill="white"/>
</clipPath>
</defs>
</svg>
