<svg width="32" height="36" viewBox="0 0 32 36" fill="none" xmlns="http://www.w3.org/2000/svg">
<path d="M31.5266 18.6828C31.2825 16.4288 30.2624 14.3299 28.6409 12.7453L16.6294 0.745615C16.5471 0.662318 16.4491 0.596183 16.3411 0.551046C16.233 0.505908 16.1171 0.482666 16 0.482666C15.8829 0.482666 15.767 0.505908 15.659 0.551046C15.5509 0.596183 15.4529 0.662318 15.3706 0.745615L3.35907 12.7572C1.73763 14.3417 0.717524 16.4407 0.473444 18.6947C0.317355 20.2877 0.566285 21.8942 1.19712 23.3653C1.82796 24.8363 2.82025 26.1241 4.08187 27.1092C5.34348 28.0942 6.83353 28.7444 8.41366 28.9996C9.99379 29.2548 11.6128 29.1066 13.1203 28.5687C12.899 30.4467 12.2356 32.2455 11.1847 33.8175L10.9769 34.1322C10.8891 34.267 10.8389 34.4229 10.8316 34.5837C10.8243 34.7445 10.8601 34.9043 10.9353 35.0466C11.0109 35.1886 11.1239 35.3074 11.262 35.3901C11.4001 35.4727 11.5581 35.5161 11.7191 35.5156H20.2809C20.4419 35.5161 20.5999 35.4727 20.738 35.3901C20.8761 35.3074 20.9891 35.1886 21.0647 35.0466C21.1399 34.9043 21.1757 34.7445 21.1684 34.5837C21.1611 34.4229 21.111 34.267 21.0231 34.1322L20.8153 33.8175C19.7644 32.2455 19.101 30.4467 18.8797 28.5687C19.9053 28.9333 20.9856 29.1201 22.0741 29.1209C23.4007 29.1208 24.7125 28.8428 25.9251 28.3049C27.1378 27.767 28.2243 26.9811 29.1147 25.9978C30.0052 25.0144 30.6799 23.8555 31.0952 22.5957C31.5106 21.3358 31.6576 20.0029 31.5266 18.6828Z" fill="white"/>
</svg>
