<svg width="34" height="34" viewBox="0 0 34 34" fill="none" xmlns="http://www.w3.org/2000/svg">
<path fill-rule="evenodd" clip-rule="evenodd" d="M4.92071 13.9648L17.5165 1.36901C18.1851 0.700443 19.0911 0.325195 20.0352 0.325195C20.9805 0.325195 21.8865 0.700443 22.5551 1.36901C25.1355 3.95063 30.0494 8.86451 32.631 11.4449C33.2996 12.1135 33.6748 13.0196 33.6748 13.9648C33.6748 14.9089 33.2984 15.8149 32.631 16.4835L20.0352 29.0793L17.5165 26.5594C17.0534 26.0963 16.3005 26.0963 15.8374 26.5594C15.3731 27.0238 15.3731 27.7754 15.8374 28.2386L18.3561 30.7584L16.5713 32.5433C15.9027 33.2118 14.9966 33.5871 14.0514 33.5871C13.1073 33.5871 12.2013 33.2118 11.5327 32.5433C10.2514 31.2619 8.70408 29.7146 8.70408 29.7146C8.23977 29.2515 8.23977 28.4986 8.70408 28.0355C8.70408 28.0355 9.0259 27.7137 9.4534 27.2862C9.79421 26.9454 9.9854 26.4834 9.9854 26.0013C9.9854 25.5192 9.79421 25.0573 9.4534 24.7164L9.45221 24.7141C9.1114 24.3733 8.64828 24.1821 8.16734 24.1821C7.68521 24.1821 7.22327 24.3733 6.88246 24.7141C6.45377 25.1428 6.13196 25.4634 6.13196 25.4634C5.66883 25.9277 4.91714 25.9277 4.45283 25.4634C4.45283 25.4634 2.79746 23.808 1.45677 22.4673C0.788211 21.7988 0.412964 20.8927 0.412964 19.9486C0.412964 19.0034 0.788211 18.0973 1.45677 17.4288L3.24158 15.6439L5.76027 18.1626C6.22459 18.6258 6.97628 18.6258 7.44059 18.1626C7.90371 17.6995 7.90371 16.9466 7.44059 16.4835L4.92071 13.9648ZM18.9332 11.2063L21.2429 9.54495C21.6027 9.28488 22.0789 9.24807 22.4755 9.44994C22.871 9.65182 23.1215 10.0579 23.1239 10.5033L23.137 13.3473L25.43 15.03C25.7886 15.2936 25.9703 15.7342 25.9003 16.1736C25.8314 16.6129 25.5226 16.9763 25.0999 17.1153L22.3983 18.0071L21.5065 20.7086C21.3676 21.1302 21.0042 21.4389 20.5648 21.509C20.1255 21.5779 19.6849 21.3974 19.4225 21.0388L17.7386 18.7445L14.8945 18.7314C14.4504 18.7291 14.0443 18.4797 13.8424 18.0831C13.6405 17.6876 13.6761 17.2114 13.9362 16.8504L15.5975 14.5419L14.7307 11.8321C14.5953 11.4081 14.7081 10.945 15.0228 10.6303C15.3363 10.3168 15.8006 10.204 16.2233 10.3394L18.9332 11.2063Z" fill="white"/>
</svg>
