<svg width="34" height="34" viewBox="0 0 34 34" fill="none" xmlns="http://www.w3.org/2000/svg">
<path d="M33.9242 5.94951C33.77 5.5773 33.4068 5.33459 33.0039 5.33459H26.8734L30.5073 1.70065C30.8963 1.31171 30.8963 0.680915 30.5073 0.291975C30.1184 -0.0970325 29.4876 -0.0969661 29.0986 0.291975L24.0561 5.33459H0.996081C0.593195 5.33459 0.230019 5.57724 0.0758245 5.94951C-0.0783041 6.32165 0.00689494 6.75017 0.291777 7.03505L16.0039 22.7472V32.0077H9.53146C8.98135 32.0077 8.53537 32.4537 8.53537 33.0038C8.53537 33.5539 8.98135 33.9999 9.53146 33.9999H24.4685C25.0186 33.9999 25.4645 33.5539 25.4645 33.0038C25.4645 32.4537 25.0186 32.0077 24.4685 32.0077H17.996V22.7472L27.3054 13.4378C27.3063 13.437 27.307 13.4362 27.3078 13.4353L33.7081 7.03505C33.9931 6.75017 34.0783 6.32172 33.9242 5.94951ZM17.6543 11.7361H7.81028L3.40091 7.32677H22.0638L17.6543 11.7361ZM26.1897 11.7362H20.4717L24.8811 7.32684H30.5991L26.1897 11.7362Z" fill="white"/>
</svg>
