<svg width="88" height="88" viewBox="0 0 88 88" fill="none" xmlns="http://www.w3.org/2000/svg">
<path d="M5.78174 20.5918V67.5134H82.2185V20.5918H5.78174ZM30.1401 21.0318H57.8513V67.0734H30.1401V21.0318Z" fill="#888888"/>
<path d="M40.2686 52.4833C40.1982 52.0257 39.811 51.5417 39.2126 51.2601C38.6318 50.9785 38.0158 50.9697 37.6198 51.1897C37.2942 50.9609 36.9862 50.7145 36.687 50.4417C36.731 50.0369 36.5814 49.5441 36.2558 49.1041C35.8862 48.6201 35.3846 48.3385 34.9446 48.3209C34.7422 47.9953 34.5398 47.6609 34.355 47.3001C34.355 47.2913 34.3462 47.2737 34.3374 47.2649C34.5398 46.8689 34.531 46.2793 34.2758 45.7161C34.0734 45.2673 33.7478 44.9329 33.4134 44.7657C33.3254 44.4401 33.255 44.1233 33.1934 43.8329C33.5454 43.5161 33.7038 42.8825 33.5718 42.2137C33.387 41.3249 32.7534 40.7089 32.1462 40.8321C31.539 40.9553 31.1958 41.7737 31.3806 42.6625C31.5126 43.3225 31.8998 43.8329 32.3398 44.0001C32.3926 44.2377 32.4454 44.4929 32.5158 44.7481C32.0142 45.0473 31.891 45.8745 32.2518 46.6577C32.5598 47.3265 33.123 47.7401 33.6158 47.7401C33.783 48.0745 33.9678 48.4089 34.1702 48.7345C33.9238 49.1745 34.0294 49.8785 34.4782 50.4681C34.971 51.1105 35.6926 51.4009 36.1942 51.1809C36.5022 51.4537 36.8278 51.7265 37.1886 51.9641C37.2238 52.4393 37.6286 52.9673 38.2534 53.2665C38.8694 53.5657 39.5206 53.5569 39.9166 53.3017" fill="#888888"/>
<path d="M35.3231 39.0025C35.6663 39.2049 35.9127 39.3457 35.9831 40.0321C36.1239 41.3433 36.4055 41.8185 36.9775 42.5225C37.0743 42.6457 37.1623 42.7689 37.2503 42.8921C37.5847 43.3673 37.9015 43.8161 38.6759 43.8161C38.8431 43.8161 39.0367 43.7897 39.2567 43.7369C39.4063 43.9481 39.5823 43.9657 39.8727 43.9657H39.9783C40.3743 43.9657 40.8231 43.5081 41.0871 43.2265C41.1487 43.1649 41.1927 43.1121 41.2367 43.0769C41.2543 43.0681 41.2807 43.0681 41.3159 43.0769C41.2103 43.5257 43.6919 44.7489 43.9031 44.0009C44.0791 43.3409 45.3375 44.4497 45.6983 44.9425L45.6015 44.9953C45.4079 44.9953 44.2727 45.0569 44.0879 45.9105C44.0791 45.9721 44.0879 46.0161 44.0879 46.0689C43.7799 45.9369 43.4191 45.8401 43.0143 45.7961C42.2135 45.7081 41.5095 45.8577 41.1399 46.1393C40.8847 45.7609 40.3391 45.3825 39.6527 45.1537C39.2215 45.0041 38.7991 44.9425 38.4383 44.9425C38.2183 44.5993 37.8575 44.2385 37.3911 43.9393C36.4407 43.3321 35.4287 43.2001 35.1383 43.6577C34.8479 44.1153 35.3847 44.9777 36.3439 45.5849C36.7839 45.8665 37.2327 46.0425 37.6199 46.1041C37.9015 46.4473 38.4031 46.7817 39.0279 46.9929C39.8727 47.2833 40.6647 47.2657 41.0607 47.0017C41.3599 47.3537 42.0199 47.6441 42.8119 47.7321C43.6127 47.8201 44.3255 47.6705 44.6863 47.3889C44.7303 47.4417 44.7831 47.4945 44.8359 47.5385C44.7655 47.7497 44.7039 47.9873 44.6687 48.2337C44.6599 48.3129 44.6687 48.3833 44.6511 48.4625H42.3367C41.6591 48.4625 41.1135 49.0081 41.1135 49.6857C38.4647 48.8761 37.3383 47.4153 37.3207 47.3889C37.1799 47.1953 36.8983 47.1513 36.7047 47.2921C36.5111 47.4329 36.4671 47.7057 36.6079 47.9081C36.6783 48.0049 38.0071 49.7473 41.1135 50.6185V50.6889C41.1135 51.3665 41.6591 51.9121 42.3367 51.9121H46.1911C46.7807 51.9121 47.2735 51.4897 47.3879 50.9265C51.1015 50.3017 51.7791 48.4009 51.8143 48.3041C51.8847 48.0753 51.7615 47.8289 51.5327 47.7585C51.3039 47.6881 51.0575 47.8025 50.9783 48.0313C50.9783 48.0489 50.3975 49.4833 47.4143 50.0289V49.6945C47.4143 49.1665 47.0711 48.7177 46.5959 48.5505C46.5959 48.5505 46.5959 48.5417 46.5959 48.5329C46.6135 48.4009 46.6311 48.2689 46.6399 48.1457C47.1327 48.1809 47.5903 48.1193 47.9335 47.9961C48.3383 48.1545 48.9015 48.2073 49.5175 48.1193C50.6351 47.9609 51.4887 47.3977 51.4095 46.8609C51.3303 46.3241 50.3623 46.0249 49.2447 46.1833C49.1215 46.2009 49.0247 46.2361 48.9103 46.2625C48.8839 46.1569 48.8311 46.0513 48.6903 45.9281C48.6463 45.8841 48.6111 45.6465 48.5847 45.4705C48.5583 45.3209 48.5319 45.1625 48.4967 45.0041C48.7695 45.0569 49.1479 45.0041 50.2039 44.9425C52.0343 44.8281 52.2631 44.4849 51.2599 43.7017C50.2567 42.9097 47.3087 41.5281 47.2207 40.1993C47.1327 38.8617 47.1151 38.0257 47.8015 38.9497C48.4879 39.8737 48.5583 40.7977 50.1599 41.4665C51.7615 42.1353 52.4479 43.3761 52.9759 43.5873C53.5039 43.7985 53.3631 41.6777 53.3895 41.0353C53.4159 40.3929 54.0495 39.2665 53.4775 37.7705C52.9055 36.2745 52.0343 33.3177 48.7871 31.8569C45.5399 30.3961 42.8031 30.1057 42.6535 31.0297C42.5039 31.9537 44.3431 32.1737 44.3695 32.9833C44.3959 33.7929 42.2575 31.7953 40.9375 31.8657C40.1895 31.9009 38.5263 33.3529 38.4911 34.0745C38.4295 33.9953 38.3679 33.8633 38.3327 33.6081C38.3063 33.4321 38.3327 33.2913 38.3679 33.1769C38.3943 33.0537 38.4207 32.9393 38.3415 32.8513C38.2535 32.7545 38.1039 32.7457 37.6991 32.7985C37.3911 32.8425 37.1095 33.0097 36.9247 33.2825C36.6871 33.6257 36.6079 34.0745 36.7135 34.5321C36.8191 35.0161 36.8983 35.1921 37.0215 35.2625C37.1271 35.3241 37.2327 35.2889 37.3471 35.2449L37.3999 35.2273C37.5935 35.1657 37.9191 35.3241 38.0247 35.3857L38.0951 35.4297C38.1039 35.6057 38.2095 35.7817 38.5175 35.9401C38.7463 36.0633 38.8871 36.0633 38.9927 36.0105C39.1247 36.1689 39.3095 36.4417 39.2831 36.6617C39.2743 36.7585 39.2127 36.8377 39.1159 36.8905C39.0279 36.9433 38.9311 36.9873 38.8343 37.0401C38.2271 37.3569 37.3911 37.7793 37.4263 39.3281C37.4527 40.4897 38.2799 40.7361 38.9399 40.9385C39.3271 41.0529 39.6703 41.1585 39.8023 41.4049V41.4137C39.7495 41.4137 39.7143 41.4137 39.6439 41.4225C38.9751 41.5193 38.8431 41.6865 38.6055 42.0561C38.5351 42.1705 38.5439 42.3201 38.5879 42.4697C38.5263 42.4697 38.4647 42.4873 38.4207 42.4697C38.2007 42.4345 38.0511 42.2937 37.9807 42.0649C37.8575 41.6249 37.6551 41.2025 37.4615 40.8065C37.1359 40.1113 36.8191 39.4601 36.8279 38.6681C36.8279 38.1841 36.4847 37.7793 35.8863 37.5769C35.3759 37.4009 34.6983 37.4009 34.4695 37.7089C34.3991 37.7969 34.3199 37.9817 34.5135 38.2545C34.7951 38.6681 35.0855 38.8353 35.3407 38.9849L35.3231 39.0025ZM44.7567 46.5441C44.7567 46.5441 44.7303 46.5177 44.7127 46.5089H44.8271C44.8095 46.5265 44.7743 46.5353 44.7567 46.5529V46.5441ZM46.5167 50.7065C46.5167 50.8913 46.3671 51.0497 46.1735 51.0497H42.3191C42.1343 51.0497 41.9759 50.9001 41.9759 50.7065V49.7121C41.9759 49.5273 42.1255 49.3689 42.3191 49.3689H46.1735C46.3583 49.3689 46.5167 49.5185 46.5167 49.7121V50.7065ZM41.1663 34.7081C41.3335 34.0569 41.4655 34.9105 41.4655 35.5793C41.4655 36.2481 40.7175 37.4185 40.9375 39.0905C41.1575 40.7625 42.2575 41.0001 42.1607 41.7217C42.1167 42.0121 42.0287 42.2145 41.9231 42.3817C41.8615 42.3641 41.8087 42.3553 41.7647 42.3465L41.3951 41.4577C41.3951 41.3961 41.4039 41.3257 41.3951 41.2641C41.3511 40.8769 40.8055 40.6657 40.2335 40.4457C39.7231 40.2521 39.1423 40.0233 39.0015 39.6801C38.9487 39.5481 38.9575 39.3985 39.0367 39.2313C39.2039 38.8705 39.4943 38.5273 39.7759 38.1929C40.4447 37.4009 41.1223 36.5913 40.3655 35.4121C40.7439 35.3681 41.0431 35.1217 41.1487 34.7081H41.1663Z" fill="#888888"/>
<path d="M56.5663 40.8321C55.9591 40.7089 55.3255 41.3249 55.1407 42.2137C54.9911 42.9353 55.2023 43.6041 55.6071 43.8945C55.5279 44.2025 55.4223 44.5193 55.3079 44.8625C54.9119 45.0033 54.5159 45.3729 54.2783 45.8921C54.0319 46.4289 54.0143 46.9921 54.1815 47.3881C53.9967 47.7225 53.7943 48.0305 53.5919 48.3297C53.1343 48.3121 52.5887 48.5937 52.1927 49.1129C51.8671 49.5353 51.7263 50.0105 51.7615 50.4153C51.4711 50.6705 51.1631 50.9081 50.8375 51.1369C50.4415 50.9785 49.8959 51.0137 49.3679 51.2689C48.8223 51.5329 48.4439 51.9729 48.3383 52.3953V52.4129C42.7503 54.4457 37.9455 51.4537 37.8927 51.4185L37.4175 52.1577C37.4175 52.1577 40.3567 54.0057 44.3343 54.0057C45.6631 54.0057 47.1063 53.7945 48.6111 53.2577C48.9983 53.5745 49.6847 53.6009 50.3447 53.2841C51.0399 52.9497 51.4623 52.3425 51.4007 51.8233C51.6911 51.6209 51.9727 51.4009 52.2279 51.1809C52.7295 51.4185 53.4687 51.1369 53.9703 50.4857C54.3927 49.9313 54.5159 49.2713 54.3223 48.8313C54.5247 48.5321 54.7095 48.2329 54.8855 47.9337C55.4047 47.9777 55.9943 47.5465 56.3199 46.8513C56.6543 46.1297 56.5839 45.3729 56.1791 45.0209C56.3023 44.6513 56.4079 44.2905 56.4959 43.9561C56.8831 43.7449 57.2087 43.2785 57.3319 42.6801C57.5167 41.7913 57.1647 40.9729 56.5663 40.8497V40.8321Z" fill="#888888"/>
</svg>
