<svg width="91" height="37" viewBox="0 0 91 37" fill="none" xmlns="http://www.w3.org/2000/svg">
<path d="M5.62736 36.2223H0.0671924C0.0223975 36.2223 0 36.1928 0 36.1337L0.0167981 23.6916C0.0167981 23.6326 0.0447949 23.6031 0.100789 23.6031H2.01577C2.07176 23.6031 2.09976 23.6326 2.09976 23.6916L2.08296 33.9907H5.62736C5.68335 33.9907 5.71135 34.0202 5.71135 34.0792V36.1337C5.71135 36.1928 5.68335 36.2223 5.62736 36.2223Z" fill="#CDB06C"/>
<path d="M10.3473 36.3994C9.74256 36.3994 9.18262 36.2341 8.66748 35.9035C8.15234 35.5729 7.74078 35.1301 7.43282 34.5752C7.13045 34.0143 6.97927 33.4033 6.97927 32.7421L7.01287 23.6739C7.01287 23.6267 7.03526 23.6031 7.08006 23.6031H9.01184C9.05663 23.6031 9.07903 23.6267 9.07903 23.6739V32.7421C9.07903 33.1494 9.20222 33.4977 9.44859 33.787C9.69496 34.0704 9.99453 34.2121 10.3473 34.2121C10.7168 34.2121 11.0248 34.0704 11.2712 33.787C11.5176 33.4977 11.6407 33.1494 11.6407 32.7421V23.6739C11.6407 23.6267 11.6631 23.6031 11.7079 23.6031H13.6397C13.6845 23.6031 13.7069 23.6267 13.7069 23.6739L13.7405 32.7421C13.7405 33.4092 13.5893 34.0232 13.287 34.584C12.979 35.139 12.5702 35.5817 12.0607 35.9124C11.5512 36.2371 10.98 36.3994 10.3473 36.3994Z" fill="#CDB06C"/>
<path d="M16.8394 36.2223H14.9076C14.8684 36.2223 14.8516 36.1928 14.8572 36.1337L16.8226 29.6603L14.8908 23.6739C14.8796 23.6267 14.8964 23.6031 14.9412 23.6031H16.873C16.929 23.6031 16.9626 23.6267 16.9738 23.6739L18.1245 27.9866L19.2919 23.6739C19.3031 23.6267 19.3395 23.6031 19.4011 23.6031H21.3077C21.3525 23.6031 21.3693 23.6267 21.3581 23.6739L19.4347 29.6426L21.3749 36.1337C21.3973 36.1928 21.3805 36.2223 21.3245 36.2223H19.4011C19.3507 36.2223 19.3143 36.1928 19.2919 36.1337L18.1245 31.4491L16.9402 36.1337C16.9346 36.1928 16.901 36.2223 16.8394 36.2223Z" fill="#CDB06C"/>
<path d="M25.9016 36.3994C25.2969 36.3994 24.737 36.2341 24.2218 35.9035C23.7067 35.5729 23.2951 35.1301 22.9872 34.5752C22.6848 34.0143 22.5336 33.4033 22.5336 32.7421L22.5672 23.6739C22.5672 23.6267 22.5896 23.6031 22.6344 23.6031H24.5662C24.611 23.6031 24.6334 23.6267 24.6334 23.6739V32.7421C24.6334 33.1494 24.7566 33.4977 25.003 33.787C25.2493 34.0704 25.5489 34.2121 25.9016 34.2121C26.2712 34.2121 26.5792 34.0704 26.8255 33.787C27.0719 33.4977 27.1951 33.1494 27.1951 32.7421V23.6739C27.1951 23.6267 27.2175 23.6031 27.2623 23.6031H29.1941C29.2389 23.6031 29.2613 23.6267 29.2613 23.6739L29.2949 32.7421C29.2949 33.4092 29.1437 34.0232 28.8413 34.584C28.5333 35.139 28.1246 35.5817 27.6151 35.9124C27.1055 36.2371 26.5344 36.3994 25.9016 36.3994Z" fill="#CDB06C"/>
<path d="M33.0069 36.2223H31.0583C31.0135 36.2223 30.9911 36.1928 30.9911 36.1337L31.0247 23.6739C31.0247 23.6267 31.0471 23.6031 31.0919 23.6031H34.5691C35.1907 23.6031 35.7618 23.7625 36.2825 24.0813C36.8033 24.4001 37.2176 24.8281 37.5256 25.3654C37.8392 25.9026 37.9959 26.5107 37.9959 27.1896C37.9959 27.6324 37.9315 28.0338 37.8028 28.394C37.674 28.7541 37.5228 29.0581 37.3492 29.3061C37.1812 29.554 37.0272 29.7371 36.8873 29.8551C37.5088 30.5813 37.8196 31.4344 37.8196 32.4144L37.8364 36.1337C37.8364 36.1928 37.8084 36.2223 37.7524 36.2223H35.8038C35.759 36.2223 35.7366 36.2046 35.7366 36.1692V32.4144C35.7366 31.9775 35.591 31.5997 35.2998 31.2809C35.0087 30.9621 34.6503 30.8027 34.2248 30.8027H33.0909L33.0741 36.1337C33.0741 36.1928 33.0517 36.2223 33.0069 36.2223ZM34.5691 25.7727H33.0909V28.6242H34.5691C34.9219 28.6242 35.2355 28.4855 35.5098 28.208C35.7898 27.9305 35.9298 27.5911 35.9298 27.1896C35.9298 26.8059 35.7954 26.4753 35.5266 26.1978C35.2579 25.9144 34.9387 25.7727 34.5691 25.7727Z" fill="#CDB06C"/>
<path d="M42.6991 36.2223H40.7253C40.6861 36.2223 40.6665 36.1987 40.6665 36.1515L40.6833 30.9975L38.382 23.6739C38.3708 23.6267 38.3876 23.6031 38.4324 23.6031H40.3473C40.4033 23.6031 40.4369 23.6267 40.4481 23.6739L41.7164 28.5534L43.0098 23.6739C43.021 23.6267 43.049 23.6031 43.0938 23.6031H45.0256C45.0704 23.6031 45.0872 23.6267 45.076 23.6739L42.7495 30.9267L42.7663 36.1515C42.7663 36.1987 42.7439 36.2223 42.6991 36.2223Z" fill="#CDB06C"/>
<path d="M48.3765 36.2223H46.4279C46.3831 36.2223 46.3607 36.1928 46.3607 36.1337L46.3775 23.6739C46.3775 23.6267 46.4055 23.6031 46.4615 23.6031H48.3765C48.4325 23.6031 48.4605 23.6267 48.4605 23.6739L48.4437 28.6065H51.0222V23.6739C51.0222 23.6267 51.0446 23.6031 51.0894 23.6031H53.0044C53.0604 23.6031 53.0883 23.6267 53.0883 23.6739L53.1219 36.1337C53.1219 36.1928 53.0939 36.2223 53.038 36.2223H51.1062C51.0502 36.2223 51.0222 36.1928 51.0222 36.1337V30.8027H48.4437V36.1337C48.4437 36.1928 48.4213 36.2223 48.3765 36.2223Z" fill="#CDB06C"/>
<path d="M58.0518 36.3994C57.4415 36.3994 56.8788 36.2341 56.3636 35.9035C55.8541 35.5729 55.4425 35.1331 55.129 34.584C54.821 34.0291 54.667 33.421 54.667 32.7598L54.6838 27.0125C54.6838 26.3395 54.8378 25.7343 55.1458 25.1971C55.4481 24.654 55.8569 24.22 56.372 23.8953C56.8872 23.5647 57.4471 23.3994 58.0518 23.3994C58.679 23.3994 59.2417 23.5618 59.7401 23.8865C60.244 24.2112 60.6472 24.6481 60.9495 25.1971C61.2575 25.7402 61.4115 26.3454 61.4115 27.0125L61.4283 32.7598C61.4283 33.421 61.2771 34.0261 60.9747 34.5752C60.6668 35.1301 60.258 35.5729 59.7485 35.9035C59.2389 36.2341 58.6734 36.3994 58.0518 36.3994ZM58.0518 34.2121C58.399 34.2121 58.7014 34.0645 58.9589 33.7693C59.2165 33.4682 59.3453 33.1317 59.3453 32.7598L59.3285 27.0125C59.3285 26.611 59.2081 26.2716 58.9673 25.9941C58.7266 25.7166 58.4214 25.5779 58.0518 25.5779C57.6991 25.5779 57.3967 25.7137 57.1448 25.9852C56.8928 26.2568 56.7668 26.5992 56.7668 27.0125V32.7598C56.7668 33.1553 56.8928 33.4977 57.1448 33.787C57.3967 34.0704 57.6991 34.2121 58.0518 34.2121Z" fill="#CDB06C"/>
<path d="M66.3918 36.2223H64.4516C64.4012 36.2223 64.376 36.1928 64.376 36.1337V25.7904H62.1418C62.0859 25.7904 62.0579 25.7609 62.0579 25.7019L62.0747 23.6739C62.0747 23.6267 62.0971 23.6031 62.1418 23.6031H68.6763C68.7379 23.6031 68.7687 23.6267 68.7687 23.6739V25.7019C68.7687 25.7609 68.7463 25.7904 68.7015 25.7904H66.4422L66.459 36.1337C66.459 36.1928 66.4366 36.2223 66.3918 36.2223Z" fill="#CDB06C"/>
<path d="M75.58 36.2223H70.0198C69.975 36.2223 69.9526 36.1928 69.9526 36.1337L69.9694 23.6739C69.9694 23.6267 69.9918 23.6031 70.0366 23.6031H75.5632C75.608 23.6031 75.6304 23.6326 75.6304 23.6916V25.7196C75.6304 25.7668 75.608 25.7904 75.5632 25.7904H72.0356V28.6242H75.5632C75.608 28.6242 75.6304 28.6478 75.6304 28.6951L75.6472 30.7495C75.6472 30.7968 75.6248 30.8204 75.58 30.8204H72.0356V33.9907H75.58C75.6248 33.9907 75.6472 34.0202 75.6472 34.0792V36.1515C75.6472 36.1987 75.6248 36.2223 75.58 36.2223Z" fill="#CDB06C"/>
<path d="M83.1472 36.2223H77.587C77.5422 36.2223 77.5198 36.1928 77.5198 36.1337L77.5366 23.6916C77.5366 23.6326 77.5646 23.6031 77.6206 23.6031H79.5356C79.5916 23.6031 79.6196 23.6326 79.6196 23.6916L79.6028 33.9907H83.1472C83.2032 33.9907 83.2312 34.0202 83.2312 34.0792V36.1337C83.2312 36.1928 83.2032 36.2223 83.1472 36.2223Z" fill="#CDB06C"/>
<path d="M87.6235 36.3994C87.0132 36.3994 86.4505 36.2341 85.9353 35.9035C85.4258 35.5729 85.017 35.1331 84.7091 34.584C84.4067 34.0291 84.2555 33.421 84.2555 32.7598V31.9273C84.2555 31.8624 84.2835 31.8299 84.3395 31.8299H86.2713C86.3161 31.8299 86.3385 31.8624 86.3385 31.9273V32.7598C86.3385 33.1553 86.4645 33.4977 86.7164 33.787C86.9684 34.0704 87.2708 34.2121 87.6235 34.2121C87.9819 34.2121 88.2871 34.0674 88.539 33.7782C88.791 33.483 88.917 33.1435 88.917 32.7598C88.917 32.317 88.6426 31.9303 88.0939 31.5997C88.0043 31.5406 87.8867 31.4698 87.7411 31.3871C87.6012 31.2986 87.4332 31.1982 87.2372 31.0861C87.0412 30.9739 86.8508 30.8647 86.6661 30.7584C86.4813 30.6462 86.3021 30.54 86.1285 30.4396C85.5014 30.05 85.0338 29.5629 84.7259 28.9784C84.4235 28.3881 84.2723 27.7268 84.2723 26.9948C84.2723 26.3218 84.4291 25.7137 84.7427 25.1705C85.0562 24.6333 85.465 24.2082 85.9689 23.8953C86.4785 23.5765 87.03 23.4171 87.6235 23.4171C88.2339 23.4171 88.7938 23.5765 89.3034 23.8953C89.8129 24.22 90.2188 24.651 90.5212 25.1882C90.8292 25.7255 90.9832 26.3277 90.9832 26.9948V28.4825C90.9832 28.5297 90.9608 28.5534 90.916 28.5534H88.9842C88.9394 28.5534 88.917 28.5297 88.917 28.4825L88.9002 26.9948C88.9002 26.5697 88.7742 26.2243 88.5222 25.9587C88.2703 25.693 87.9707 25.5602 87.6235 25.5602C87.2708 25.5602 86.9684 25.7019 86.7164 25.9852C86.4645 26.2686 86.3385 26.6051 86.3385 26.9948C86.3385 27.3903 86.4169 27.7209 86.5737 27.9866C86.736 28.2523 87.03 28.5061 87.4556 28.7482C87.5004 28.7718 87.604 28.8308 87.7663 28.9253C87.9287 29.0198 88.1079 29.126 88.3039 29.2441C88.5054 29.3563 88.6874 29.4596 88.8498 29.554C89.0122 29.6426 89.1102 29.6957 89.1438 29.7134C89.7149 30.05 90.1657 30.4632 90.496 30.9532C90.832 31.4432 91 32.0454 91 32.7598C91 33.4505 90.8488 34.0704 90.5464 34.6194C90.2384 35.1685 89.8297 35.6024 89.3202 35.9212C88.8106 36.24 88.2451 36.3994 87.6235 36.3994Z" fill="#CDB06C"/>
<path d="M29.9296 19.5C28.9645 19.5 28.082 19.252 27.2822 18.7561C26.491 18.2602 25.8606 17.596 25.3911 16.7636C24.9303 15.9223 24.7 14.9881 24.7 13.9608L24.726 5.47275C24.726 4.46321 24.9521 3.55109 25.4042 2.73637C25.8563 1.91281 26.4779 1.25306 27.2691 0.757152C28.069 0.252384 28.9558 0 29.9296 0C30.9207 0 31.8032 0.243529 32.577 0.730586C33.3595 1.21764 33.9811 1.87738 34.4419 2.70981C34.9114 3.53338 35.1461 4.45436 35.1461 5.47275V6.72139C35.1461 6.79223 35.1114 6.82765 35.0418 6.82765H32.0423C31.9727 6.82765 31.9379 6.79223 31.9379 6.72139V5.47275C31.9379 4.87057 31.7467 4.35252 31.3641 3.9186C30.9816 3.48467 30.5034 3.26771 29.9296 3.26771C29.2949 3.26771 28.808 3.4891 28.4689 3.93188C28.1298 4.37466 27.9603 4.88828 27.9603 5.47275V13.9608C27.9603 14.625 28.1516 15.1696 28.5341 15.5947C28.9167 16.0109 29.3818 16.219 29.9296 16.219C30.5034 16.219 30.9816 15.9888 31.3641 15.5283C31.7467 15.0589 31.9379 14.5364 31.9379 13.9608V12.6989C31.9379 12.6281 31.9727 12.5926 32.0423 12.5926H35.0679C35.1374 12.5926 35.1722 12.6281 35.1722 12.6989V13.9608C35.1722 14.9792 34.9375 15.9091 34.468 16.7503C33.9898 17.5828 33.3595 18.2514 32.577 18.7561C31.7945 19.252 30.912 19.5 29.9296 19.5Z" fill="#555555"/>
<path d="M36.7497 19.1015L40.0622 0.411785C40.0796 0.34094 40.1231 0.305518 40.1926 0.305518H44.0659C44.1355 0.305518 44.179 0.34094 44.1964 0.411785L47.3785 19.1015C47.3872 19.19 47.3524 19.2343 47.2741 19.2343H44.3137C44.2268 19.2343 44.179 19.19 44.1703 19.1015L43.8834 17.109H40.2448L39.9579 19.1015C39.9492 19.19 39.9057 19.2343 39.8275 19.2343H36.854C36.7845 19.2343 36.7497 19.19 36.7497 19.1015ZM41.9793 6.56199L40.7795 14.1999H43.3487L42.2532 6.56199L42.0967 5.55245L41.9793 6.56199Z" fill="#555555"/>
<path d="M54.1204 19.5C53.1727 19.5 52.2989 19.252 51.499 18.7561C50.7078 18.2602 50.0732 17.6005 49.595 16.7769C49.1255 15.9445 48.8907 15.0324 48.8907 14.0405V12.7919C48.8907 12.6945 48.9342 12.6458 49.0212 12.6458H52.0207C52.0902 12.6458 52.125 12.6945 52.125 12.7919V14.0405C52.125 14.6338 52.3206 15.1475 52.7119 15.5814C53.1031 16.0065 53.5726 16.219 54.1204 16.219C54.6768 16.219 55.1506 16.002 55.5419 15.5681C55.9331 15.1253 56.1287 14.6161 56.1287 14.0405C56.1287 13.3764 55.7027 12.7963 54.8507 12.3004C54.7116 12.2118 54.529 12.1056 54.3029 11.9816C54.0856 11.8488 53.8247 11.6982 53.5204 11.53C53.2161 11.3617 52.9205 11.1979 52.6336 11.0385C52.3467 10.8702 52.0685 10.7108 51.799 10.5603C50.8252 9.97581 50.0992 9.24523 49.6211 8.36853C49.1516 7.48297 48.9168 6.49114 48.9168 5.39305C48.9168 4.38351 49.1603 3.47139 49.6471 2.65667C50.134 1.85082 50.7687 1.21321 51.5512 0.743869C52.3424 0.265667 53.1988 0.0265667 54.1204 0.0265667C55.068 0.0265667 55.9375 0.265667 56.7286 0.743869C57.5198 1.23093 58.1502 1.87738 58.6196 2.68324C59.0978 3.4891 59.3369 4.39237 59.3369 5.39305V7.62466C59.3369 7.6955 59.3021 7.73092 59.2326 7.73092H56.2331C56.1635 7.73092 56.1287 7.6955 56.1287 7.62466L56.1026 5.39305C56.1026 4.75545 55.907 4.2374 55.5158 3.83889C55.1245 3.44039 54.6594 3.24114 54.1204 3.24114C53.5726 3.24114 53.1031 3.45368 52.7119 3.87875C52.3206 4.30381 52.125 4.80858 52.125 5.39305C52.125 5.98637 52.2467 6.48229 52.4902 6.88079C52.7423 7.27929 53.1988 7.66008 53.8595 8.02316C53.9291 8.05858 54.0899 8.14714 54.3421 8.28883C54.5942 8.43051 54.8724 8.58991 55.1767 8.76703C55.4897 8.93528 55.7723 9.09025 56.0244 9.23194C56.2765 9.36478 56.4287 9.44448 56.4809 9.47105C57.3677 9.97581 58.0676 10.5957 58.5805 11.3307C59.1022 12.0657 59.363 12.969 59.363 14.0405C59.363 15.0766 59.1283 16.0065 58.6588 16.83C58.1806 17.6536 57.5459 18.3045 56.7547 18.7827C55.9635 19.2609 55.0854 19.5 54.1204 19.5Z" fill="#555555"/>
<path d="M64.9051 19.2343H61.8795C61.7925 19.2343 61.7491 19.19 61.7491 19.1015L61.7751 0.411785C61.7751 0.34094 61.8099 0.305518 61.8795 0.305518H64.879C64.9486 0.305518 64.9833 0.34094 64.9833 0.411785L65.0094 19.1015C65.0094 19.19 64.9746 19.2343 64.9051 19.2343Z" fill="#555555"/>
<path d="M70.7993 19.2343H68.1258C67.9867 19.2343 67.9171 19.1723 67.9171 19.0484L67.891 0.518052C67.891 0.376362 67.9606 0.305518 68.0997 0.305518H70.5124L75.0247 11.0252L74.8943 0.518052C74.8943 0.376362 74.9725 0.305518 75.129 0.305518H77.7764C77.8808 0.305518 77.9329 0.376362 77.9329 0.518052L77.959 19.0749C77.959 19.1812 77.9156 19.2343 77.8286 19.2343H75.4812L70.8515 9.21866L71.0471 19.0218C71.0471 19.1635 70.9645 19.2343 70.7993 19.2343Z" fill="#555555"/>
<path d="M85.7573 19.5C84.8096 19.5 83.9358 19.252 83.136 18.7561C82.3448 18.2602 81.7057 17.6005 81.2189 16.7769C80.7407 15.9445 80.5016 15.0324 80.5016 14.0405L80.5277 5.41962C80.5277 4.41008 80.7668 3.50238 81.2449 2.69652C81.7144 1.88181 82.3491 1.23093 83.149 0.743869C83.9489 0.247956 84.8183 0 85.7573 0C86.731 0 87.6048 0.243529 88.3786 0.730586C89.1611 1.21764 89.7871 1.87296 90.2566 2.69652C90.7348 3.51124 90.9738 4.41894 90.9738 5.41962L90.9999 14.0405C90.9999 15.0324 90.7652 15.94 90.2957 16.7636C89.8175 17.596 89.1828 18.2602 88.3916 18.7561C87.6005 19.252 86.7223 19.5 85.7573 19.5ZM85.7573 16.219C86.2963 16.219 86.7658 15.9976 87.1658 15.5548C87.5657 15.1032 87.7657 14.5984 87.7657 14.0405L87.7396 5.41962C87.7396 4.81744 87.5526 4.30824 87.1788 3.89203C86.8049 3.47582 86.3311 3.26771 85.7573 3.26771C85.2095 3.26771 84.74 3.47139 84.3488 3.87875C83.9576 4.2861 83.7619 4.79973 83.7619 5.41962V14.0405C83.7619 14.6338 83.9576 15.1475 84.3488 15.5814C84.74 16.0065 85.2095 16.219 85.7573 16.219Z" fill="#555555"/>
<path d="M9.75 0C7.82163 0 5.93657 0.571827 4.33319 1.64317C2.72981 2.71451 1.48013 4.23726 0.742179 6.01884C0.00422454 7.80041 -0.188858 9.76081 0.187348 11.6521C0.563554 13.5434 1.49215 15.2807 2.85571 16.6443C4.21927 18.0078 5.95656 18.9364 7.84787 19.3127C9.73919 19.6889 11.6996 19.4958 13.4812 18.7578C15.2627 18.0199 16.7855 16.7702 17.8568 15.1668C18.9282 13.5634 19.5 11.6784 19.5 9.75C19.4972 7.165 18.4691 4.68667 16.6412 2.8588C14.8133 1.03092 12.335 0.00279588 9.75 0ZM16.7513 7.64969L14.4186 8.34925C14.1863 7.57696 13.7662 6.87427 13.196 6.30401C12.6257 5.73375 11.923 5.31369 11.1508 5.08137L11.8503 2.74869C13.0079 3.09827 14.0612 3.72866 14.9163 4.58374C15.7713 5.43882 16.4017 6.49205 16.7513 7.64969ZM9.75 12.8521L7.423 9.75L9.75 6.64787L12.077 9.75L9.75 12.8521ZM7.64969 2.74869L8.34925 5.08137C7.57696 5.31369 6.87428 5.73375 6.30402 6.30401C5.73375 6.87427 5.31369 7.57696 5.08138 8.34925L2.74869 7.64969C3.09853 6.49219 3.72901 5.43909 4.58405 4.58405C5.43909 3.729 6.49219 3.09853 7.64969 2.74869ZM2.74869 11.8487L5.08138 11.1491C5.31382 11.9213 5.73393 12.624 6.30417 13.1942C6.87441 13.7644 7.57703 14.1846 8.34925 14.417L7.64969 16.7497C6.49238 16.4 5.4394 15.7698 4.58437 14.915C3.72934 14.0603 3.09876 13.0075 2.74869 11.8503V11.8487ZM11.8487 16.7497L11.1491 14.417C11.9213 14.1846 12.624 13.7644 13.1942 13.1942C13.7644 12.624 14.1846 11.9213 14.417 11.1491L16.7497 11.8487C16.4005 13.0064 15.7704 14.0599 14.9157 14.9152C14.0609 15.7706 13.0078 16.4013 11.8503 16.7513L11.8487 16.7497Z" fill="#CDB06C"/>
</svg>
