<svg width="93" height="37" viewBox="0 0 93 37" fill="none" xmlns="http://www.w3.org/2000/svg">
<path d="M5.72012 36.82H0.0683C0.0227667 36.82 0 36.79 0 36.73L0.017075 24.0828C0.017075 24.0228 0.0455333 23.9928 0.10245 23.9928H2.049C2.10592 23.9928 2.13437 24.0228 2.13437 24.0828L2.1173 34.5516H5.72012C5.77704 34.5516 5.8055 34.5816 5.8055 34.6416V36.73C5.8055 36.79 5.77704 36.82 5.72012 36.82Z" fill="#CDB06C"/>
<path d="M10.5179 37.0001C9.90315 37.0001 9.33399 36.832 8.81035 36.496C8.28672 36.1599 7.86838 35.7098 7.55534 35.1457C7.24799 34.5756 7.09432 33.9545 7.09432 33.2824L7.12847 24.0648C7.12847 24.0168 7.15123 23.9928 7.19677 23.9928H9.16039C9.20592 23.9928 9.22869 24.0168 9.22869 24.0648V33.2824C9.22869 33.6965 9.35391 34.0505 9.60434 34.3446C9.85477 34.6326 10.1593 34.7767 10.5179 34.7767C10.8935 34.7767 11.2065 34.6326 11.457 34.3446C11.7074 34.0505 11.8326 33.6965 11.8326 33.2824V24.0648C11.8326 24.0168 11.8554 23.9928 11.9009 23.9928H13.8646C13.9101 23.9928 13.9329 24.0168 13.9329 24.0648L13.967 33.2824C13.967 33.9605 13.8133 34.5846 13.506 35.1547C13.1929 35.7188 12.7774 36.1689 12.2595 36.505C11.7416 36.835 11.161 37.0001 10.5179 37.0001Z" fill="#CDB06C"/>
<path d="M17.117 36.82H15.1534C15.1135 36.82 15.0965 36.79 15.1021 36.73L17.0999 30.1499L15.1363 24.0648C15.1249 24.0168 15.142 23.9928 15.1875 23.9928H17.1511C17.2081 23.9928 17.2422 24.0168 17.2536 24.0648L18.4232 28.4486L19.6099 24.0648C19.6213 24.0168 19.6583 23.9928 19.7209 23.9928H21.6589C21.7045 23.9928 21.7216 24.0168 21.7102 24.0648L19.7551 30.1319L21.7272 36.73C21.75 36.79 21.7329 36.82 21.676 36.82H19.7209C19.6697 36.82 19.6327 36.79 19.6099 36.73L18.4232 31.9682L17.2194 36.73C17.2138 36.79 17.1796 36.82 17.117 36.82Z" fill="#CDB06C"/>
<path d="M26.3286 37.0001C25.7139 37.0001 25.1447 36.832 24.6211 36.496C24.0975 36.1599 23.6791 35.7098 23.3661 35.1457C23.0587 34.5756 22.9051 33.9545 22.9051 33.2824L22.9392 24.0648C22.9392 24.0168 22.962 23.9928 23.0075 23.9928H24.9711C25.0167 23.9928 25.0394 24.0168 25.0394 24.0648V33.2824C25.0394 33.6965 25.1647 34.0505 25.4151 34.3446C25.6655 34.6326 25.97 34.7767 26.3286 34.7767C26.7043 34.7767 27.0173 34.6326 27.2677 34.3446C27.5182 34.0505 27.6434 33.6965 27.6434 33.2824V24.0648C27.6434 24.0168 27.6662 23.9928 27.7117 23.9928H29.6753C29.7208 23.9928 29.7436 24.0168 29.7436 24.0648L29.7778 33.2824C29.7778 33.9605 29.6241 34.5846 29.3167 35.1547C29.0037 35.7188 28.5882 36.1689 28.0703 36.505C27.5523 36.835 26.9718 37.0001 26.3286 37.0001Z" fill="#CDB06C"/>
<path d="M33.551 36.82H31.5703C31.5248 36.82 31.502 36.79 31.502 36.73L31.5361 24.0648C31.5361 24.0168 31.5589 23.9928 31.6044 23.9928H35.139C35.7707 23.9928 36.3513 24.1548 36.8806 24.4789C37.4099 24.8029 37.8311 25.238 38.1442 25.7841C38.4629 26.3302 38.6223 26.9483 38.6223 27.6384C38.6223 28.0885 38.5568 28.4966 38.4259 28.8626C38.295 29.2287 38.1413 29.5378 37.9649 29.7898C37.7941 30.0418 37.6376 30.2279 37.4953 30.3479C38.1271 31.086 38.443 31.9532 38.443 32.9494L38.46 36.73C38.46 36.79 38.4316 36.82 38.3747 36.82H36.394C36.3484 36.82 36.3257 36.802 36.3257 36.766V32.9494C36.3257 32.5053 36.1777 32.1212 35.8817 31.7972C35.5858 31.4731 35.2215 31.3111 34.7889 31.3111H33.6364L33.6193 36.73C33.6193 36.79 33.5965 36.82 33.551 36.82ZM35.139 26.1982H33.6364V29.0967H35.139C35.4975 29.0967 35.8163 28.9557 36.0952 28.6736C36.3797 28.3916 36.522 28.0465 36.522 27.6384C36.522 27.2484 36.3854 26.9123 36.1122 26.6303C35.839 26.3422 35.5146 26.1982 35.139 26.1982Z" fill="#CDB06C"/>
<path d="M43.4029 36.82H41.3966C41.3568 36.82 41.3368 36.796 41.3368 36.748L41.3539 31.5091L39.0146 24.0648C39.0033 24.0168 39.0203 23.9928 39.0659 23.9928H41.0124C41.0693 23.9928 41.1035 24.0168 41.1149 24.0648L42.404 29.0247L43.7188 24.0648C43.7302 24.0168 43.7586 23.9928 43.8042 23.9928H45.7678C45.8133 23.9928 45.8304 24.0168 45.819 24.0648L43.4541 31.4371L43.4712 36.748C43.4712 36.796 43.4485 36.82 43.4029 36.82Z" fill="#CDB06C"/>
<path d="M49.1739 36.82H47.1932C47.1477 36.82 47.1249 36.79 47.1249 36.73L47.142 24.0648C47.142 24.0168 47.1705 23.9928 47.2274 23.9928H49.1739C49.2308 23.9928 49.2593 24.0168 49.2593 24.0648L49.2422 29.0787H51.8632V24.0648C51.8632 24.0168 51.886 23.9928 51.9315 23.9928H53.8781C53.935 23.9928 53.9635 24.0168 53.9635 24.0648L53.9976 36.73C53.9976 36.79 53.9691 36.82 53.9122 36.82H51.9486C51.8917 36.82 51.8632 36.79 51.8632 36.73V31.3111H49.2422V36.73C49.2422 36.79 49.2195 36.82 49.1739 36.82Z" fill="#CDB06C"/>
<path d="M59.0088 37.0001C58.3884 37.0001 57.8164 36.832 57.2927 36.496C56.7748 36.1599 56.3565 35.7128 56.0377 35.1547C55.7247 34.5906 55.5682 33.9725 55.5682 33.3004L55.5852 27.4584C55.5852 26.7743 55.7418 26.1592 56.0548 25.6131C56.3621 25.061 56.7776 24.6199 57.3013 24.2899C57.8249 23.9538 58.3941 23.7858 59.0088 23.7858C59.6462 23.7858 60.2183 23.9508 60.7248 24.2809C61.2371 24.6109 61.6469 25.055 61.9542 25.6131C62.2673 26.1652 62.4238 26.7803 62.4238 27.4584L62.4408 33.3004C62.4408 33.9725 62.2872 34.5876 61.9798 35.1457C61.6668 35.7098 61.2513 36.1599 60.7333 36.496C60.2154 36.832 59.6405 37.0001 59.0088 37.0001ZM59.0088 34.7767C59.3617 34.7767 59.669 34.6266 59.9308 34.3266C60.1926 34.0205 60.3235 33.6785 60.3235 33.3004L60.3065 27.4584C60.3065 27.0503 60.1841 26.7053 59.9394 26.4232C59.6946 26.1412 59.3844 26.0001 59.0088 26.0001C58.6502 26.0001 58.3428 26.1382 58.0867 26.4142C57.8306 26.6903 57.7025 27.0383 57.7025 27.4584V33.3004C57.7025 33.7025 57.8306 34.0505 58.0867 34.3446C58.3428 34.6326 58.6502 34.7767 59.0088 34.7767Z" fill="#CDB06C"/>
<path d="M67.4862 36.82H65.514C65.4628 36.82 65.4372 36.79 65.4372 36.73V26.2162H63.1662C63.1093 26.2162 63.0808 26.1862 63.0808 26.1262L63.0979 24.0648C63.0979 24.0168 63.1207 23.9928 63.1662 23.9928H69.8084C69.871 23.9928 69.9023 24.0168 69.9023 24.0648V26.1262C69.9023 26.1862 69.8795 26.2162 69.834 26.2162H67.5374L67.5545 36.73C67.5545 36.79 67.5317 36.82 67.4862 36.82Z" fill="#CDB06C"/>
<path d="M76.8258 36.82H71.174C71.1285 36.82 71.1057 36.79 71.1057 36.73L71.1228 24.0648C71.1228 24.0168 71.1456 23.9928 71.1911 23.9928H76.8088C76.8543 23.9928 76.8771 24.0228 76.8771 24.0828V26.1442C76.8771 26.1922 76.8543 26.2162 76.8088 26.2162H73.223V29.0967H76.8088C76.8543 29.0967 76.8771 29.1207 76.8771 29.1687L76.8941 31.2571C76.8941 31.3051 76.8714 31.3291 76.8258 31.3291H73.223V34.5516H76.8258C76.8714 34.5516 76.8941 34.5816 76.8941 34.6416V36.748C76.8941 36.796 76.8714 36.82 76.8258 36.82Z" fill="#CDB06C"/>
<path d="M84.5178 36.82H78.866C78.8204 36.82 78.7977 36.79 78.7977 36.73L78.8147 24.0828C78.8147 24.0228 78.8432 23.9928 78.9001 23.9928H80.8467C80.9036 23.9928 80.932 24.0228 80.932 24.0828L80.915 34.5516H84.5178C84.5747 34.5516 84.6032 34.5816 84.6032 34.6416V36.73C84.6032 36.79 84.5747 36.82 84.5178 36.82Z" fill="#CDB06C"/>
<path d="M89.0679 37.0001C88.4475 37.0001 87.8755 36.832 87.3519 36.496C86.834 36.1599 86.4185 35.7128 86.1054 35.1547C85.7981 34.5906 85.6444 33.9725 85.6444 33.3004V32.4543C85.6444 32.3883 85.6729 32.3552 85.7298 32.3552H87.6934C87.7389 32.3552 87.7617 32.3883 87.7617 32.4543V33.3004C87.7617 33.7025 87.8898 34.0505 88.1459 34.3446C88.402 34.6326 88.7094 34.7767 89.0679 34.7767C89.4322 34.7767 89.7424 34.6296 89.9985 34.3356C90.2546 34.0355 90.3827 33.6905 90.3827 33.3004C90.3827 32.8503 90.1038 32.4573 89.546 32.1212C89.455 32.0612 89.3354 31.9892 89.1875 31.9052C89.0452 31.8152 88.8744 31.7131 88.6752 31.5991C88.476 31.4851 88.2825 31.3741 88.0947 31.2661C87.9068 31.152 87.7247 31.044 87.5483 30.942C86.9108 30.5459 86.4355 30.0508 86.1225 29.4567C85.8151 28.8566 85.6615 28.1845 85.6615 27.4404C85.6615 26.7563 85.8208 26.1382 86.1396 25.5861C86.4583 25.04 86.8738 24.6079 87.386 24.2899C87.904 23.9658 88.4646 23.8038 89.0679 23.8038C89.6883 23.8038 90.2575 23.9658 90.7754 24.2899C91.2934 24.6199 91.706 25.058 92.0134 25.6041C92.3264 26.1502 92.4829 26.7623 92.4829 27.4404V28.9527C92.4829 29.0007 92.4602 29.0247 92.4146 29.0247H90.451C90.4055 29.0247 90.3827 29.0007 90.3827 28.9527L90.3656 27.4404C90.3656 27.0083 90.2376 26.6573 89.9814 26.3872C89.7253 26.1172 89.4208 25.9821 89.0679 25.9821C88.7094 25.9821 88.402 26.1262 88.1459 26.4142C87.8898 26.7023 87.7617 27.0443 87.7617 27.4404C87.7617 27.8425 87.8414 28.1785 88.0007 28.4486C88.1658 28.7186 88.4646 28.9767 88.8972 29.2227C88.9427 29.2467 89.048 29.3067 89.2131 29.4027C89.3781 29.4988 89.5603 29.6068 89.7595 29.7268C89.9644 29.8408 90.1493 29.9458 90.3144 30.0418C90.4795 30.1319 90.5791 30.1859 90.6132 30.2039C91.1938 30.5459 91.6519 30.966 91.9878 31.4641C92.3293 31.9622 92.5 32.5743 92.5 33.3004C92.5 34.0025 92.3463 34.6326 92.039 35.1907C91.7259 35.7488 91.3104 36.1899 90.7925 36.514C90.2746 36.838 89.6997 37.0001 89.0679 37.0001Z" fill="#CDB06C"/>
<path d="M30.423 19.8214C29.442 19.8214 28.545 19.5694 27.7319 19.0653C26.9277 18.5612 26.287 17.8861 25.8098 17.0399C25.3414 16.1848 25.1072 15.2351 25.1072 14.191L25.1337 5.56296C25.1337 4.53678 25.3635 3.60962 25.823 2.78148C26.2826 1.94434 26.9145 1.27372 27.7187 0.769633C28.5317 0.256544 29.4332 0 30.423 0C31.4305 0 32.3275 0.247543 33.114 0.742628C33.9094 1.23771 34.5413 1.90833 35.0097 2.75448C35.4869 3.59162 35.7255 4.52778 35.7255 5.56296V6.83218C35.7255 6.90419 35.6902 6.9402 35.6195 6.9402H32.5705C32.4998 6.9402 32.4645 6.90419 32.4645 6.83218V5.56296C32.4645 4.95086 32.27 4.42427 31.8812 3.98319C31.4923 3.54211 31.0063 3.32157 30.423 3.32157C29.7778 3.32157 29.2829 3.54661 28.9383 3.99669C28.5936 4.44677 28.4213 4.96886 28.4213 5.56296V14.191C28.4213 14.8661 28.6157 15.4197 29.0046 15.8517C29.3934 16.2748 29.8662 16.4864 30.423 16.4864C31.0063 16.4864 31.4923 16.2523 31.8812 15.7842C32.27 15.3071 32.4645 14.7761 32.4645 14.191V12.9082C32.4645 12.8362 32.4998 12.8002 32.5705 12.8002H35.646C35.7167 12.8002 35.7521 12.8362 35.7521 12.9082V14.191C35.7521 15.2261 35.5134 16.1713 35.0362 17.0264C34.5501 17.8726 33.9094 18.5522 33.114 19.0653C32.3187 19.5694 31.4216 19.8214 30.423 19.8214Z" fill="url(#paint0_linear_2331_321)"/>
<path d="M37.3556 19.4164L40.7227 0.418572C40.7404 0.34656 40.7845 0.310554 40.8552 0.310554H44.7924C44.8631 0.310554 44.9073 0.34656 44.925 0.418572L48.1595 19.4164C48.1684 19.5064 48.133 19.5514 48.0535 19.5514H45.0443C44.9559 19.5514 44.9073 19.5064 44.8984 19.4164L44.6068 17.391H40.9083L40.6166 19.4164C40.6078 19.5064 40.5636 19.5514 40.4841 19.5514H37.4616C37.3909 19.5514 37.3556 19.5064 37.3556 19.4164ZM42.6714 6.67015L41.4518 14.434H44.0633L42.9498 6.67015L42.7907 5.64398L42.6714 6.67015Z" fill="url(#paint1_linear_2331_321)"/>
<path d="M55.0125 19.8214C54.0492 19.8214 53.1611 19.5694 52.348 19.0653C51.5438 18.5612 50.8986 17.8906 50.4126 17.0534C49.9353 16.2073 49.6967 15.2801 49.6967 14.272V13.0027C49.6967 12.9037 49.7409 12.8542 49.8293 12.8542H52.8783C52.949 12.8542 52.9843 12.9037 52.9843 13.0027V14.272C52.9843 14.8751 53.1832 15.3972 53.5809 15.8382C53.9785 16.2703 54.4558 16.4864 55.0125 16.4864C55.5781 16.4864 56.0598 16.2658 56.4575 15.8247C56.8552 15.3747 57.054 14.8571 57.054 14.272C57.054 13.5969 56.621 13.0072 55.7549 12.5032C55.6135 12.4131 55.4279 12.3051 55.1981 12.1791C54.9772 12.0441 54.7121 11.8911 54.4027 11.72C54.0934 11.549 53.793 11.3825 53.5013 11.2204C53.2097 11.0494 52.9269 10.8874 52.6529 10.7344C51.6631 10.1403 50.9252 9.39762 50.4391 8.50647C49.9619 7.60632 49.7232 6.59814 49.7232 5.48195C49.7232 4.45577 49.9707 3.52861 50.4656 2.70047C50.9605 1.88133 51.6056 1.23321 52.401 0.756131C53.2053 0.270047 54.0758 0.0270047 55.0125 0.0270047C55.9758 0.0270047 56.8596 0.270047 57.6638 0.756131C58.468 1.25122 59.1088 1.90833 59.586 2.72747C60.0721 3.54661 60.3151 4.46477 60.3151 5.48195V7.75034C60.3151 7.82235 60.2798 7.85836 60.209 7.85836H57.1601C57.0894 7.85836 57.054 7.82235 57.054 7.75034L57.0275 5.48195C57.0275 4.83384 56.8287 4.30724 56.431 3.90217C56.0333 3.4971 55.5605 3.29457 55.0125 3.29457C54.4558 3.29457 53.9785 3.51061 53.5809 3.94268C53.1832 4.37476 52.9843 4.88785 52.9843 5.48195C52.9843 6.08505 53.108 6.58914 53.3555 6.99421C53.6118 7.39928 54.0758 7.78635 54.7474 8.15541C54.8181 8.19142 54.9816 8.28143 55.2379 8.42546C55.4942 8.56948 55.777 8.73151 56.0863 8.91154C56.4045 9.08257 56.6917 9.2401 56.948 9.38412C57.2043 9.51915 57.3589 9.60016 57.4119 9.62716C58.3134 10.1403 59.0248 10.7704 59.5462 11.5175C60.0765 12.2646 60.3416 13.1828 60.3416 14.272C60.3416 15.3252 60.103 16.2703 59.6258 17.1075C59.1397 17.9446 58.4946 18.6062 57.6903 19.0923C56.8861 19.5784 55.9935 19.8214 55.0125 19.8214Z" fill="url(#paint2_linear_2331_321)"/>
<path d="M65.9751 19.5514H62.8996C62.8112 19.5514 62.767 19.5064 62.767 19.4164L62.7935 0.418572C62.7935 0.34656 62.8289 0.310554 62.8996 0.310554H65.9485C66.0192 0.310554 66.0546 0.34656 66.0546 0.418572L66.0811 19.4164C66.0811 19.5064 66.0457 19.5514 65.9751 19.5514Z" fill="url(#paint3_linear_2331_321)"/>
<path d="M71.9664 19.5514H69.2488C69.1074 19.5514 69.0367 19.4884 69.0367 19.3623L69.0102 0.526591C69.0102 0.382566 69.0809 0.310554 69.2223 0.310554H71.6748L76.2615 11.2069L76.1289 0.526591C76.1289 0.382566 76.2085 0.310554 76.3675 0.310554H79.0586C79.1646 0.310554 79.2177 0.382566 79.2177 0.526591L79.2442 19.3894C79.2442 19.4974 79.2 19.5514 79.1116 19.5514H76.7255L72.0194 9.37062L72.2183 19.3353C72.2183 19.4794 72.1343 19.5514 71.9664 19.5514Z" fill="url(#paint4_linear_2331_321)"/>
<path d="M87.171 19.8214C86.2077 19.8214 85.3195 19.5694 84.5064 19.0653C83.7022 18.5612 83.0526 17.8906 82.5577 17.0534C82.0717 16.2073 81.8286 15.2801 81.8286 14.272L81.8552 5.50895C81.8552 4.48278 82.0982 3.56012 82.5843 2.74097C83.0615 1.91283 83.7066 1.25122 84.5197 0.756131C85.3327 0.252044 86.2165 0 87.171 0C88.1608 0 89.049 0.247543 89.8355 0.742628C90.6309 1.23771 91.2672 1.90383 91.7444 2.74097C92.2305 3.56912 92.4735 4.49178 92.4735 5.50895L92.5 14.272C92.5 15.2801 92.2614 16.2028 91.7842 17.0399C91.2981 17.8861 90.653 18.5612 89.8488 19.0653C89.0445 19.5694 88.1519 19.8214 87.171 19.8214ZM87.171 16.4864C87.7189 16.4864 88.1961 16.2613 88.6027 15.8112C89.0092 15.3522 89.2125 14.8391 89.2125 14.272L89.1859 5.50895C89.1859 4.89685 88.9959 4.37926 88.6159 3.95618C88.2359 3.53311 87.7542 3.32157 87.171 3.32157C86.6142 3.32157 86.137 3.52861 85.7393 3.94268C85.3416 4.35675 85.1427 4.87884 85.1427 5.50895V14.272C85.1427 14.8751 85.3416 15.3972 85.7393 15.8382C86.137 16.2703 86.6142 16.4864 87.171 16.4864Z" fill="url(#paint5_linear_2331_321)"/>
<path d="M9.91072 0C7.95056 0 6.03443 0.581253 4.40462 1.67026C2.77481 2.75926 1.50453 4.3071 0.754413 6.11805C0.00429417 7.929 -0.191971 9.92171 0.190436 11.8442C0.572843 13.7667 1.51675 15.5326 2.90279 16.9186C4.28882 18.3047 6.05474 19.2486 7.97723 19.631C9.89972 20.0134 11.8924 19.8171 13.7034 19.067C15.5143 18.3169 17.0622 17.0466 18.1512 15.4168C19.2402 13.787 19.8214 11.8709 19.8214 9.91072C19.8186 7.2831 18.7735 4.76392 16.9155 2.90592C15.0575 1.04792 12.5383 0.00284196 9.91072 0ZM17.0274 7.77578L14.6563 8.48688C14.4202 7.70186 13.9932 6.98759 13.4135 6.40793C12.8338 5.82827 12.1196 5.40128 11.3346 5.16513L12.0457 2.794C13.2224 3.14934 14.293 3.79012 15.1621 4.65929C16.0313 5.52847 16.6721 6.59907 17.0274 7.77578ZM9.91072 13.064L7.54536 9.91072L9.91072 6.75746L12.2761 9.91072L9.91072 13.064ZM7.77579 2.794L8.48688 5.16513C7.70186 5.40128 6.98759 5.82827 6.40793 6.40793C5.82827 6.98759 5.40128 7.70186 5.16514 8.48688L2.794 7.77578C3.14961 6.5992 3.79048 5.52874 4.65961 4.65961C5.52875 3.79047 6.59921 3.1496 7.77579 2.794ZM2.794 12.044L5.16514 11.3329C5.40141 12.1179 5.82845 12.8321 6.40809 13.4117C6.98773 13.9913 7.70193 14.4184 8.48688 14.6546L7.77579 17.0258C6.59939 16.6703 5.52906 16.0297 4.65994 15.1609C3.79082 14.292 3.14984 13.2219 2.794 12.0456V12.044ZM12.044 17.0258L11.3329 14.6546C12.1179 14.4184 12.8321 13.9913 13.4117 13.4117C13.9913 12.8321 14.4184 12.1179 14.6546 11.3329L17.0258 12.044C16.6708 13.2208 16.0304 14.2916 15.1615 15.1611C14.2926 16.0306 13.2222 16.6717 12.0457 17.0274L12.044 17.0258Z" fill="white"/>
<defs>
<linearGradient id="paint0_linear_2331_321" x1="59.9848" y1="-0.0360094" x2="85.096" y2="70.7742" gradientUnits="userSpaceOnUse">
<stop stop-color="white"/>
<stop offset="1" stop-color="#999999"/>
</linearGradient>
<linearGradient id="paint1_linear_2331_321" x1="59.9848" y1="-0.0360094" x2="85.096" y2="70.7742" gradientUnits="userSpaceOnUse">
<stop stop-color="white"/>
<stop offset="1" stop-color="#999999"/>
</linearGradient>
<linearGradient id="paint2_linear_2331_321" x1="59.9848" y1="-0.0360094" x2="85.096" y2="70.7742" gradientUnits="userSpaceOnUse">
<stop stop-color="white"/>
<stop offset="1" stop-color="#999999"/>
</linearGradient>
<linearGradient id="paint3_linear_2331_321" x1="59.9848" y1="-0.0360094" x2="85.096" y2="70.7742" gradientUnits="userSpaceOnUse">
<stop stop-color="white"/>
<stop offset="1" stop-color="#999999"/>
</linearGradient>
<linearGradient id="paint4_linear_2331_321" x1="59.9848" y1="-0.0360094" x2="85.096" y2="70.7742" gradientUnits="userSpaceOnUse">
<stop stop-color="white"/>
<stop offset="1" stop-color="#999999"/>
</linearGradient>
<linearGradient id="paint5_linear_2331_321" x1="59.9848" y1="-0.0360094" x2="85.096" y2="70.7742" gradientUnits="userSpaceOnUse">
<stop stop-color="white"/>
<stop offset="1" stop-color="#999999"/>
</linearGradient>
</defs>
</svg>
