<svg width="136" height="64" viewBox="0 0 136 64" fill="none" xmlns="http://www.w3.org/2000/svg">
<path d="M23.1536 63.7365L19.6792 55.6658V63.7365H16.4117V47.2239H19.2649L22.6705 55.2948V47.2239H25.9378V63.7365H23.1536Z" fill="white"/>
<path d="M28.4688 63.7365V47.2239H31.7363V63.7365H28.4688Z" fill="white"/>
<path d="M41.7458 62.7395C40.9173 63.5279 39.928 63.922 38.5704 63.922C36.7295 63.922 35.7631 63.18 35.0037 62.2754C33.6922 60.6984 33.7842 57.7302 33.7842 55.5031C33.7842 53.276 33.6922 50.262 35.0037 48.685C35.7631 47.7804 36.7293 47.0381 38.5704 47.0381C39.928 47.0381 40.9173 47.4319 41.7458 48.221C42.5971 49.0327 43.1263 50.3315 43.1947 51.9086H39.9274C39.9042 51.4446 39.8582 50.9811 39.6742 50.633C39.4901 50.2392 39.1679 50.0067 38.5698 50.0067C37.9717 50.0067 37.6723 50.2857 37.4883 50.656C37.0976 51.4215 37.0509 53.4857 37.0509 55.4801C37.0509 57.4746 37.0971 59.5388 37.4883 60.3043C37.6723 60.6756 37.9715 60.9535 38.5698 60.9535C39.1681 60.9535 39.513 60.6986 39.6972 60.3043C39.8813 59.9566 39.9274 59.4925 39.9501 59.0287H43.2177C43.1493 60.6057 42.5971 61.9277 41.7458 62.7395Z" fill="white"/>
<path d="M45.1742 63.7365V47.2239H52.7215V50.1925H48.4417V53.9261H52.1234V56.8948H48.4417V60.7672H52.7215V63.7358L45.1742 63.7365Z" fill="white"/>
<path d="M68.0841 51.7322H67.4996V54.2983H66.0929V47.189H68.0841C69.6098 47.189 70.0655 48.0586 70.0655 49.4456C70.0655 50.8436 69.6098 51.7322 68.0841 51.7322ZM68.094 48.4669H67.4996V50.4539H68.094C68.629 50.4539 68.6588 49.9049 68.6588 49.4555C68.6588 49.006 68.629 48.467 68.094 48.467V48.4669Z" fill="white"/>
<path d="M73.1858 54.2983L72.9579 53.1899H71.3334L71.1054 54.2983H69.6393L71.452 47.189H72.8389L74.6518 54.2983H73.1858ZM72.1457 49.2761L71.6008 51.9118H72.6904L72.1457 49.2761Z" fill="white"/>
<path d="M75.157 54.2983V47.189H76.5639V53.0202H78.4066V54.2983H75.157Z" fill="white"/>
<path d="M82.3486 54.2983L82.1207 53.1899H80.4961L80.2682 54.2983H78.8019L80.6148 47.189H82.0013L83.8143 54.2983H82.3486ZM81.3085 49.2761L80.7641 51.9118H81.8538L81.3085 49.2761Z" fill="white"/>
<path d="M84.3196 54.2983V47.189H85.7263V54.2983H84.3196Z" fill="white"/>
<path d="M90.0158 53.8489C89.6988 54.1583 89.1645 54.3779 88.4807 54.3779C87.7874 54.3779 87.2721 54.1782 86.9552 53.8586C86.6084 53.5091 86.4896 53.0099 86.4896 52.2809H87.8963C87.8963 52.5706 87.9162 52.7804 88.0448 52.9298C88.1241 53.0199 88.2629 53.0998 88.4807 53.0998C88.6986 53.0998 88.8373 53.0399 88.9265 52.9193C89.0256 52.7999 89.0654 52.6099 89.0654 52.3204C89.0654 51.6413 88.9563 51.5218 88.451 51.3118L87.5595 50.9426C86.8463 50.643 86.549 50.2636 86.549 49.1552C86.549 48.4962 86.757 47.9472 87.1829 47.5777C87.5199 47.2882 87.9458 47.1284 88.4807 47.1284C89.1049 47.1284 89.5606 47.2882 89.8676 47.5777C90.2539 47.9372 90.4125 48.5062 90.4125 49.2253H89.0058C89.0058 48.9757 89.0058 48.746 88.8869 48.5862C88.8076 48.4762 88.6888 48.4057 88.4807 48.4057C88.2826 48.4057 88.1538 48.4854 88.0746 48.5953C87.9853 48.7151 87.9557 48.8649 87.9557 49.104C87.9557 49.5536 88.0348 49.6834 88.441 49.8531L89.3227 50.2126C90.2144 50.5819 90.4719 50.9815 90.4719 52.2692C90.4714 52.9901 90.3822 53.4894 90.0158 53.8489Z" fill="white"/>
<path d="M96.3751 53.6091C96.0582 53.9787 95.6224 54.2983 94.8299 54.2983H92.8387V47.189H94.8299C95.6224 47.189 96.0582 47.5084 96.3751 47.8781C96.9399 48.5373 96.9003 49.8153 96.9003 50.7437C96.9003 51.6721 96.9399 52.9505 96.3751 53.6091ZM95.3253 48.7765C95.2361 48.597 95.0578 48.467 94.8001 48.467H94.2454V53.0202H94.8001C95.0578 53.0202 95.2361 52.8904 95.3253 52.7106C95.4936 52.3811 95.4936 51.5226 95.4936 50.7335C95.4936 49.9445 95.4936 49.106 95.3253 48.7765Z" fill="white"/>
<path d="M97.6827 54.2983V47.189H100.932V48.467H99.0893V50.0751H100.674V51.3531H99.0893V53.0207H100.932V54.2988L97.6827 54.2983Z" fill="white"/>
<path d="M103.279 54.2983V47.189H104.686V53.0202H106.528V54.2983H103.279Z" fill="white"/>
<path d="M110.471 54.2983L110.243 53.1899H108.619L108.391 54.2983H106.925L108.738 47.189H110.125L111.937 54.2983H110.471ZM109.431 49.2761L108.886 51.9118H109.976L109.431 49.2761Z" fill="white"/>
<path d="M69.7484 63.7706V60.0663L68.9757 62.5025H68.2526L67.4996 60.0762V63.7706H66.0929V56.6614H67.3311L68.6194 60.1461L69.9072 56.6614H71.1554V63.7706H69.7484Z" fill="white"/>
<path d="M72.2444 63.7706V56.6614H75.4937V57.9388H73.6511V59.5468H75.2361V60.8249H73.6511V62.4923H75.4937V63.7704L72.2444 63.7706Z" fill="white"/>
<path d="M79.892 63.0816C79.575 63.4511 79.139 63.7707 78.3465 63.7707H76.3553V56.6614H78.3465C79.139 56.6614 79.575 56.9809 79.892 57.3505C80.4566 58.0095 80.417 59.2876 80.417 60.2161C80.417 61.1447 80.4566 62.4226 79.892 63.0816ZM78.8419 58.2489C78.7527 58.0694 78.5744 57.9394 78.3167 57.9394H77.7621V62.4925H78.3167C78.5744 62.4925 78.7527 62.3629 78.8419 62.183C79.0103 61.8535 79.0103 60.995 79.0103 60.206C79.0103 59.4169 79.0103 58.5787 78.8419 58.2489Z" fill="white"/>
<path d="M81.2984 63.7706V56.6614H82.705V63.7706H81.2984Z" fill="white"/>
<path d="M86.0435 57.9387V63.7698H84.6367V57.9387H83.4483V56.6606H87.2325V57.9387H86.0435Z" fill="white"/>
<path d="M87.9751 63.7706V56.6614H91.2242V57.9388H89.3817V59.5468H90.9667V60.8249H89.3817V62.4923H91.2242V63.7704L87.9751 63.7706Z" fill="white"/>
<path d="M94.8201 63.7706L93.9582 61.0051H93.4924V63.7706H92.0859V56.6614H94.0972C95.6326 56.6614 96.0586 57.4705 96.0586 58.8273C96.0586 59.5862 95.9396 60.2652 95.2562 60.6944L96.2866 63.7697L94.8201 63.7706ZM94.0875 57.9394H93.4929V59.7273H94.0875C94.6224 59.7273 94.6521 59.2379 94.6521 58.8285C94.6521 58.4191 94.6219 57.9388 94.087 57.9388L94.0875 57.9394Z" fill="white"/>
<path d="M99.8126 63.7706L98.9506 61.0051H98.4852V63.7706H97.0784V56.6614H99.0895C100.625 56.6614 101.051 57.4705 101.051 58.8273C101.051 59.5862 100.932 60.2652 100.248 60.6944L101.279 63.7697L99.8126 63.7706ZM99.0789 57.9388H98.4845V59.7273H99.0789C99.6138 59.7273 99.6436 59.2379 99.6436 58.8285C99.6436 58.4191 99.6145 57.9388 99.0789 57.9388Z" fill="white"/>
<path d="M105.132 63.7706L104.904 62.6623H103.279L103.051 63.7706H101.586L103.399 56.6614H104.786L106.599 63.7706H105.132ZM104.092 58.7484L103.547 61.3846H104.637L104.092 58.7484Z" fill="white"/>
<path d="M110.105 63.7706L108.609 60.296V63.7706H107.203V56.6614H108.431L109.897 60.1362V56.6614H111.304V63.7706H110.105Z" fill="white"/>
<path d="M112.393 63.7706V56.6614H115.642V57.9388H113.8V59.5468H115.385V60.8249H113.8V62.4923H115.642V63.7704L112.393 63.7706Z" fill="white"/>
<path d="M116.504 63.7706V56.6614H119.753V57.9388H117.911V59.5468H119.496V60.8249H117.911V62.4923H119.753V63.7704L116.504 63.7706Z" fill="white"/>
<path d="M61.2354 47.24H59.4426V63.7368H61.2354V47.24Z" fill="white"/>
<path d="M74.2175 56.2123H73.3439L73.9753 54.9985H75.0066L74.2175 56.2123Z" fill="white"/>
<path d="M114.366 56.2123H113.493L114.124 54.9985H115.155L114.366 56.2123Z" fill="white"/>
<path d="M41.4407 34.198L42.722 40.4301H50.966" fill="white"/>
<path d="M20.8304 38.016C18.8248 39.925 16.4298 40.8793 13.1435 40.8793C8.68709 40.8793 6.34768 39.0829 4.50953 36.8933C1.33497 33.0755 1.55718 25.8891 1.55718 20.499C1.55718 15.109 1.33497 7.81043 4.50953 3.99314C6.34768 1.80374 8.68709 0.00683594 13.1435 0.00683594C16.4298 0.00683594 18.8252 0.961323 20.8304 2.8703C22.8914 4.83522 24.1726 7.97927 24.3396 11.7966H16.4298C16.3742 10.6742 16.2635 9.55138 15.817 8.70929C15.3716 7.7548 14.5914 7.19314 13.1435 7.19314C11.6956 7.19314 10.9711 7.8672 10.5252 8.76524C9.57841 10.6179 9.46705 15.6148 9.46705 20.4432C9.46705 25.2716 9.57841 30.268 10.5252 32.1212C10.9711 33.0191 11.6949 33.6928 13.1435 33.6928C14.5921 33.6928 15.4272 33.0755 15.873 32.1212C16.3184 31.2786 16.4298 30.156 16.4854 29.0333H24.3953C24.2283 32.8507 22.8914 36.0512 20.8304 38.016Z" fill="white"/>
<path d="M70.1277 37.9039C68.3452 39.6444 65.3372 40.8793 61.4939 40.8793C57.5947 40.8793 54.6982 39.7566 52.9154 37.9597C50.9661 35.9949 50.2976 33.1876 50.2976 29.0891H58.2073C58.2073 30.7176 58.3188 31.8966 59.0428 32.7386C59.4885 33.2439 60.2683 33.6928 61.4939 33.6928C62.7194 33.6928 63.4991 33.3559 64.001 32.6824C64.5581 32.0086 64.7808 30.9417 64.7808 29.3139C64.7808 25.4959 64.168 24.8223 61.3273 23.6434L56.3132 21.5659C52.3028 19.8817 50.6315 17.7484 50.6315 11.5163C50.6315 7.81091 51.8012 4.72314 54.1968 2.64582C56.0908 1.01759 58.4859 0.118896 61.4939 0.118896C65.003 0.118896 67.5662 1.01727 69.2919 2.64582C71.4643 4.66686 72.3556 7.86719 72.3556 11.9096H64.4461C64.4461 10.5059 64.4461 9.2145 63.7774 8.31613C63.332 7.69867 62.6636 7.30552 61.4939 7.30552C60.3795 7.30552 59.6557 7.75479 59.2098 8.37208C58.7086 9.04582 58.5415 9.88758 58.5415 11.2355C58.5415 13.7625 58.9871 14.4918 61.271 15.4461L66.2285 17.4672C71.2416 19.5445 72.6901 21.7904 72.6901 29.0329C72.6901 33.0757 72.1889 35.883 70.1277 37.9039Z" fill="white"/>
<path d="M74.8622 40.4306V0.456055H82.772V40.4306H74.8622Z" fill="white"/>
<path d="M102.435 40.4306L94.0242 20.8921V40.4306H86.1143V0.456055H93.0215L101.265 19.9937V0.456055H109.175V40.4306H102.435Z" fill="white"/>
<path d="M131.679 36.8933C129.841 39.0829 127.39 40.8793 122.934 40.8793C118.477 40.8793 116.138 39.0829 114.3 36.8933C111.126 33.0755 111.348 25.8328 111.348 20.4432C111.348 15.0537 111.125 7.81043 114.3 3.99314C116.138 1.80374 118.477 0.00683594 122.934 0.00683594C127.39 0.00683594 129.841 1.80374 131.679 3.99314C134.854 7.81092 134.631 15.0533 134.631 20.4432C134.631 25.8331 134.854 33.0755 131.679 36.8933ZM125.664 8.76524C125.218 7.8672 124.383 7.19314 122.934 7.19314C121.486 7.19314 120.762 7.8672 120.316 8.76524C119.369 10.6179 119.258 15.6148 119.258 20.4432C119.258 25.2716 119.369 30.268 120.316 32.1212C120.762 33.0191 121.486 33.6928 122.934 33.6928C124.382 33.6928 125.218 33.0191 125.664 32.1212C126.611 30.268 126.722 25.2718 126.722 20.4432C126.722 15.6147 126.61 10.6179 125.664 8.76524Z" fill="white"/>
<path d="M40.7724 0.456055H32.9744L22.7803 40.4306H31.0244L32.3056 34.1985H41.4407L42.722 40.4306H50.966L40.7724 0.456055ZM32.6365 30.2071L31.2268 30.7509V17.5597C31.1454 15.3143 32.3869 14.0222 33.9997 13.8116C33.0076 14.7706 32.6365 15.5181 32.6365 16.5598V30.2071ZM34.957 30.4409L33.5471 30.9963V17.4194C33.4602 15.1097 34.7017 13.7831 36.3202 13.5662C35.3282 14.5484 34.957 15.3203 34.957 16.3903V30.4409ZM37.144 15.94V30.4234L35.74 30.9957V17.0043C35.6528 14.6186 36.9003 13.2503 38.5131 13.0283C37.411 13.7831 37.144 14.8349 37.144 15.94ZM42.4753 20.5124C42.4753 21.5124 41.3963 23.091 38.8728 23.0502C40.938 22.138 41.1062 20.9686 41.1469 19.3899V14.2619C41.1469 12.4435 39.8241 12.7709 39.534 12.73C41.0192 12.0692 42.4289 13.2095 42.4753 14.5021V20.5124Z" fill="white"/>
</svg>
