<svg width="60" height="60" viewBox="0 0 60 60" fill="none" xmlns="http://www.w3.org/2000/svg">
<path d="M30 48.9837L25.2485 60L24.1337 48.0546L16.2105 57.0634L18.8416 45.3581L8.52237 51.4776L14.6419 41.1584L2.93661 43.7895L11.9454 35.8663L0 34.7515L11.0163 30L0 25.2485L11.9454 24.1337L2.93661 16.2105L14.6419 18.8416L8.52237 8.52237L18.8416 14.6419L16.2105 2.93661L24.1337 11.9454L25.2485 0L30 11.0163L34.7515 0L35.8663 11.9454L43.7895 2.93661L41.1584 14.6419L51.4776 8.52237L45.3581 18.8416L57.0634 16.2105L48.0546 24.1337L60 25.2485L48.9837 30L60 34.7515L48.0546 35.8663L57.0634 43.7895L45.3581 41.1584L51.4776 51.4776L41.1584 45.3581L43.7895 57.0634L35.8663 48.0546L34.7515 60L30 48.9837ZM30 46.3636C39.0374 46.3636 46.3636 39.0374 46.3636 30C46.3636 20.9626 39.0374 13.6364 30 13.6364C20.9626 13.6364 13.6364 20.9626 13.6364 30C13.6364 39.0374 20.9626 46.3636 30 46.3636Z" fill="#888888"/>
</svg>
