<svg width="206" height="60" viewBox="0 0 206 60" fill="none" xmlns="http://www.w3.org/2000/svg">
<path d="M77.6169 22.8126C77.7538 23.3256 77.5827 23.6334 77.1723 23.7703L73.239 24.9331C72.7602 25.07 72.5208 24.9331 72.3498 24.4543C71.7341 22.4364 70.4344 21.3761 68.0061 21.3761C64.3122 21.3761 63.0467 23.565 63.0467 26.5065V33.2785C63.0467 36.22 64.278 38.4089 68.0061 38.4089C71.0501 38.4089 72.6576 37.0066 72.6576 33.8942V33.0049H68.6559C68.3139 33.0049 68.1087 32.8339 68.1087 32.4235V28.6612C68.0745 28.3876 68.2797 28.114 68.5875 28.0798C68.6217 28.0798 68.6559 28.0798 68.6559 28.0798H77.5485C77.9248 28.0798 78.13 28.2508 78.13 28.627V34.2362C78.13 39.5718 74.1967 43.6077 68.0745 43.6077C60.8235 43.6077 57.4375 39.2982 57.4375 33.4154V26.267C57.4375 20.3842 60.8235 16.0747 68.0745 16.0747C73.9231 16.1089 76.5567 19.4608 77.6169 22.8126ZM97.557 29.4821V42.6158C97.5912 42.8894 97.3518 43.1289 97.0781 43.1631C97.0439 43.1631 97.0439 43.1631 97.0097 43.1631H93.0081C92.7344 43.1973 92.4608 42.992 92.4266 42.6842C92.4266 42.65 92.4266 42.6158 92.4266 42.6158V40.4611C91.2637 42.4106 89.1774 43.6077 86.8858 43.5735C83.0893 43.5735 80.661 41.1451 80.661 37.3828C80.661 33.7232 82.9525 31.5684 88.5617 31.158C89.7588 31.0554 90.9901 31.0554 92.2214 31.1238V29.6531C92.2214 27.7035 91.1953 26.9169 89.451 26.9169C87.6725 26.9169 87.1594 27.6351 86.6806 28.7638C86.5096 29.2085 86.3386 29.2769 85.9623 29.1743L81.9607 28.1482C81.5502 28.0456 81.516 27.8061 81.5844 27.5325C82.1317 24.6595 84.8679 22.539 89.6562 22.539C94.7182 22.5732 97.557 25.0016 97.557 29.4821ZM92.2214 36.391V34.4756C91.1611 34.4414 90.0666 34.4756 89.0064 34.5782C86.9542 34.8177 85.8939 35.4675 85.8939 37.0066C85.8939 38.4089 86.8516 39.1956 88.3907 39.1956C90.1693 39.1956 91.5716 38.2379 92.2214 36.391ZM111.99 22.5732C114.521 22.5732 116.197 24.0781 116.984 26.2328C118.489 24.0439 120.302 22.5732 122.833 22.5732C126.355 22.5732 128.373 25.3778 128.373 29.5505V42.6158C128.373 42.9578 128.066 43.1631 127.724 43.1631H123.551C123.175 43.1631 122.901 42.9578 122.901 42.6158V30.5081C122.901 28.6954 122.114 27.6009 120.678 27.6009C119.173 27.6009 118.078 28.8322 117.565 30.7134V42.6158C117.6 42.8894 117.36 43.1289 117.087 43.1631H117.052H112.538C112.196 43.1631 112.059 42.9578 112.059 42.6158V30.5081C112.059 28.6954 111.238 27.6009 109.836 27.6009C108.297 27.6009 107.202 28.9006 106.723 30.7818V42.65C106.757 42.9236 106.552 43.1631 106.279 43.1973C106.244 43.1973 106.21 43.1973 106.176 43.1973H101.764C101.49 43.2315 101.251 43.0262 101.217 42.7526C101.217 42.7184 101.217 42.6842 101.217 42.65V23.565C101.217 23.2914 101.456 23.052 101.73 23.052H101.764H106.005C106.279 23.0178 106.518 23.223 106.552 23.5308V23.565V25.8566C107.715 24.1465 109.459 22.5732 111.99 22.5732ZM151.255 23.0178C151.357 23.4966 151.221 23.8387 150.776 23.9755L146.911 25.1042C146.432 25.241 146.193 25.07 146.022 24.6253C145.475 22.8126 144.517 21.3419 141.849 21.3419C138.532 21.3419 137.471 23.5308 137.471 26.4723V33.2443C137.471 36.1858 138.668 38.3747 141.849 38.3747C144.688 38.3747 145.782 36.7672 146.227 34.7835C146.33 34.3388 146.638 34.1336 147.116 34.3046L150.981 35.5359C151.426 35.6727 151.563 36.0147 151.46 36.4936C150.537 40.4269 147.698 43.6419 141.815 43.6419C135.18 43.6419 131.862 39.3324 131.862 33.4496V26.3012C131.862 20.4184 135.282 16.1089 141.815 16.1089C147.561 16.1089 150.263 19.1529 151.255 23.0178ZM170.648 29.4821V42.6158C170.682 42.8894 170.442 43.1289 170.169 43.1631C170.135 43.1631 170.135 43.1631 170.1 43.1631H166.099C165.825 43.1973 165.551 42.992 165.517 42.6842C165.517 42.65 165.517 42.6158 165.517 42.6158V40.4611C164.354 42.4106 162.268 43.6077 159.976 43.5735C156.18 43.5735 153.752 41.1451 153.752 37.3828C153.752 33.7232 156.043 31.5684 161.652 31.158C162.849 31.0554 164.081 31.0554 165.312 31.1238V29.6531C165.312 27.7035 164.286 26.9169 162.542 26.9169C160.763 26.9169 160.25 27.6351 159.771 28.7638C159.6 29.2085 159.429 29.2769 159.053 29.1743L155.051 28.1482C154.641 28.0456 154.607 27.8061 154.675 27.5325C155.222 24.6595 157.959 22.539 162.747 22.539C167.809 22.5732 170.648 25.0016 170.648 29.4821ZM165.278 36.391V34.4756C164.218 34.4414 163.123 34.4756 162.063 34.5782C160.011 34.8177 158.95 35.4675 158.95 37.0066C158.95 38.4089 159.908 39.1956 161.447 39.1956C163.26 39.1956 164.628 38.2379 165.278 36.391ZM186.21 23.394V27.2931C186.21 27.772 186.039 27.943 185.56 27.943H184.978C182.071 27.943 180.361 29.2426 179.78 31.4316V42.65C179.814 42.9236 179.609 43.1631 179.335 43.1973H179.301H174.718C174.444 43.1973 174.239 42.9578 174.239 42.6842C174.239 42.6842 174.239 42.6842 174.239 42.65V23.5308C174.239 23.2572 174.444 23.0178 174.684 23.0178C174.718 23.0178 174.752 23.0178 174.752 23.0178H178.89C179.335 23.0178 179.438 23.2914 179.438 23.5992V26.3012C180.395 24.5227 182.174 22.7784 185.286 22.7784C186.073 22.7784 186.21 22.881 186.21 23.394ZM193.358 34.7835V35.5359C193.358 37.6565 194.453 39.1272 197.018 39.1272C199.515 39.1272 200.233 38.1695 200.883 36.9724C201.225 36.4252 201.361 36.3568 201.943 36.5962L204.816 38.0669C205.397 38.3747 205.432 38.6483 205.192 39.1956C203.961 42.0002 200.848 43.6077 197.018 43.6077C191.203 43.6077 188.125 40.1532 188.125 35.4333V30.7818C188.125 26.1986 190.998 22.6074 196.949 22.6074C202.627 22.6074 205.397 26.1986 205.397 30.6792V33.8942C205.397 34.4414 205.226 34.8177 204.44 34.8177L193.358 34.7835ZM193.358 30.5081V31.1922H200.37V30.5081C200.37 28.5586 199.275 27.0195 196.881 27.0195C194.487 27.0195 193.358 28.5586 193.358 30.5081Z" fill="#888888"/>
<path d="M25.3214 0.273193H0.900896C0.490466 0.273193 0.148438 0.615217 0.148438 1.02565V36.5278C0.148438 49.1827 10.4092 59.4776 23.0983 59.4776H25.3214C37.9764 59.4776 48.2371 49.2169 48.2371 36.5278V23.223C48.2713 10.5339 38.0106 0.273193 25.3214 0.273193ZM40.9178 36.904C40.9178 45.523 34.5561 52.0557 24.7058 52.0557C13.0086 52.0557 7.53617 45.1126 7.53617 35.6043V24.0781C7.53617 14.5698 13.0086 7.62672 24.7058 7.62672C34.1799 7.62672 38.4552 13.0307 40.1653 18.4347C40.4047 19.2556 40.0969 19.7344 39.4471 19.9738L33.0854 21.8549C32.333 22.0944 31.9225 21.8549 31.6831 21.1025C30.6912 17.8533 28.5707 16.1089 24.7058 16.1089C18.7204 16.1089 16.7024 19.6318 16.7024 24.3859V35.3307C16.7024 40.0849 18.6862 43.6077 24.7058 43.6077C29.631 43.6077 32.2303 41.3161 32.2303 36.3226V34.9203H25.6635C25.1504 34.9203 24.7742 34.6125 24.7742 33.9968V27.943C24.7742 27.3615 25.1162 26.9853 25.6635 26.9853H39.9943C40.5757 26.9853 40.9178 27.2931 40.9178 27.8746V36.904Z" fill="#888888"/>
</svg>
