<svg width="158" height="158" viewBox="0 0 158 158" fill="none" xmlns="http://www.w3.org/2000/svg">
<path d="M157.269 101.19L146.626 84.5769L153.867 77.3354C155.857 75.3472 155.626 72.0502 153.372 70.3594C147.076 65.637 141.165 50.9402 138.563 43.1905C144.826 38.1311 152.754 29.3454 152.754 17.2812C152.754 4.69155 145.372 0 140.719 0C129.666 0 116.507 9.42137 110.859 13.9148C90.7877 2.33019 67.1056 2.34716 47.0421 13.9722C39.8762 7.33929 29.5084 0 19.7504 0C15.0974 0 7.7152 4.69155 7.7152 17.2812C7.7152 28.9023 14.3453 37.5185 19.6494 42.5529C17.168 50.1061 11.1029 65.5043 4.62926 70.3594C2.37868 72.0477 2.14076 75.3435 4.13366 77.3354L11.3748 84.5769L0.731719 101.19C-0.0931521 102.478 -0.228933 104.09 0.369121 105.498C0.592235 106.023 5.36494 116.971 16.4573 121.565C16.1272 123.294 15.9179 125.383 16.0553 127.721C16.3959 133.515 18.9884 141.983 29.4035 149.423C31.7148 151.074 34.9625 150.27 36.2342 147.726C37.5429 145.109 39.309 142.565 41.5031 140.126C44.7779 143.606 49.0603 146.125 53.8808 147.213C56.539 150.823 63.7416 158 79.0004 158C94.2591 158 101.462 150.823 104.12 147.213C108.94 146.125 113.222 143.607 116.497 140.126C118.691 142.566 120.457 145.109 121.766 147.726C123.038 150.269 126.283 151.076 128.597 149.423C139.012 141.984 141.604 133.515 141.945 127.721C142.083 125.384 141.874 123.294 141.544 121.565C152.636 116.971 157.408 106.023 157.632 105.498C158.23 104.091 158.094 102.478 157.269 101.19ZM140.563 9.25905C141.276 9.51827 143.496 11.4266 143.496 17.2812C143.496 24.8739 138.581 30.9192 134.091 34.8591C129.881 29.1812 124.673 23.8012 118.969 19.3732C124.931 14.972 134.028 9.34792 140.563 9.25905ZM16.973 17.2812C16.973 11.4269 19.1933 9.51857 19.9062 9.25905C26.2515 9.34977 34.1071 14.9254 39.1341 19.2951C33.5497 23.6154 28.5187 28.7745 24.4002 34.2039C20.7524 30.2897 16.973 24.4956 16.973 17.2812ZM64.9201 145.102L79.0004 136.302L93.0806 145.102C90.3048 146.952 85.8514 148.742 79.0004 148.742C72.1493 148.742 67.6959 146.952 64.9201 145.102ZM134.874 113.961C131.888 114.558 130.275 117.837 131.642 120.57C131.654 120.596 132.93 123.339 132.704 127.177C132.46 131.326 130.581 135.164 127.105 138.631C125.525 136.346 123.673 134.138 121.565 132.019C123.571 126.704 123.722 120.78 121.584 115.048L131.267 107.302C133.263 105.705 133.587 102.792 131.99 100.796C130.392 98.7988 127.48 98.475 125.484 100.073L117.065 106.808C115.696 104.858 114.264 103.05 112.885 101.27L123.861 92.4893C125.857 90.8923 126.181 87.9795 124.584 85.9832C122.986 83.9863 120.073 83.6625 118.078 85.2601L107.682 93.5764C106.547 91.3178 105.848 88.9849 105.848 86.4062C105.848 83.8499 103.775 81.7773 101.219 81.7773C98.6627 81.7773 96.5902 83.8499 96.5902 86.4062C96.5902 103.072 113.871 110.96 113.871 123.438C113.871 131.356 107.754 137.872 99.9965 138.508L83.6293 128.278V118.509L88.9741 114.945C91.1016 113.527 91.6762 110.653 90.2579 108.526C88.8399 106.399 85.9656 105.824 83.8388 107.243L79.0004 110.468L74.1616 107.243C72.0351 105.824 69.1605 106.399 67.7425 108.526C66.3246 110.653 66.8995 113.527 69.0266 114.945L74.3714 118.508V128.278L58.0043 138.507C50.2468 137.872 44.1293 131.356 44.1293 123.438C44.1293 110.913 61.4105 103.141 61.4105 86.4062C61.4105 83.8499 59.338 81.7773 56.7816 81.7773C54.2252 81.7773 52.1527 83.8499 52.1527 86.4062C52.1527 88.9849 51.4537 91.3178 50.3187 93.5767L39.9234 85.2604C37.9268 83.6632 35.014 83.9875 33.4174 85.9835C31.8204 87.9798 32.1441 90.8926 34.1401 92.4896L45.1161 101.271C43.6917 103.106 42.2811 104.892 40.9359 106.808L32.5172 100.073C30.5206 98.4757 27.6078 98.7997 26.0111 100.796C24.4141 102.792 24.7378 105.705 26.7338 107.302L36.4169 115.049C34.2777 120.783 34.4305 126.707 36.4357 132.019C34.3283 134.138 32.4755 136.346 30.8958 138.631C27.5331 135.275 25.6636 131.569 25.3254 127.571C24.9983 123.704 26.25 120.817 26.3709 120.548C27.7303 117.931 26.2771 114.591 23.1273 113.961C16.1392 112.564 11.8559 106.965 9.98891 103.903L21.1798 86.4346C22.353 84.6031 22.0929 82.2023 20.5552 80.6646L14.0158 74.1251C22.1756 64.73 27.7374 47.7805 28.9474 43.8718C29.9892 42.1977 34.3027 35.6376 41.6722 29.1902C51.5374 20.5582 62.5187 15.6988 74.3714 14.7005V19.1668L59.8956 25.3707C57.5457 26.378 56.4573 29.0988 57.4645 31.4488C58.4715 33.7981 61.1926 34.8862 63.5426 33.8799L74.3714 29.2386V36.4477L59.8956 42.6517C57.5457 43.6589 56.4573 46.3798 57.4645 48.7297C58.4715 51.0791 61.1926 52.1675 63.5426 51.1608L74.3714 46.5199V51.8438C74.3714 54.4001 76.444 56.4727 79.0004 56.4727C81.5567 56.4727 83.6293 54.4001 83.6293 51.8438V46.5199L94.4581 51.1608C96.8028 52.1662 99.5274 51.084 100.536 48.7297C101.543 46.3798 100.455 43.6586 98.1051 42.6517L83.6293 36.4477V29.2386L94.4581 33.8796C96.8028 34.885 99.5274 33.8027 100.536 31.4485C101.543 29.0985 100.455 26.3774 98.1051 25.3704L83.6293 19.1665V14.7005C95.482 15.6988 106.463 20.5582 116.329 29.1899C123.705 35.6429 128.019 42.2088 129.054 43.8709C130.264 47.7793 135.825 64.7297 143.986 74.1248L137.446 80.6642C135.908 82.202 135.649 84.6031 136.822 86.4343L148.012 103.902C146.14 106.973 141.857 112.565 134.874 113.961Z" fill="black"/>
<path d="M95.4769 63.3834L90.5394 68.3209C88.7317 70.1283 88.7317 73.0594 90.5394 74.8671C92.3475 76.6751 95.2779 76.6748 97.0856 74.8671L102.023 69.9296C103.831 68.1222 103.831 65.1911 102.023 63.3834C100.215 61.5757 97.2843 61.5757 95.4769 63.3834Z" fill="black"/>
<path d="M62.5231 63.3834C60.7157 61.576 57.7846 61.576 55.9769 63.3834C54.1692 65.1908 54.1692 68.1219 55.9769 69.9296L60.9144 74.8671C62.7225 76.6752 65.6529 76.6748 67.4606 74.8671C69.2683 73.0597 69.2683 70.1286 67.4606 68.3209L62.5231 63.3834Z" fill="black"/>
</svg>
