<svg width="52" height="52" viewBox="0 0 52 52" fill="none" xmlns="http://www.w3.org/2000/svg">
<path d="M51.7594 33.3032L48.2566 27.8354L50.6397 25.4522C51.2944 24.7978 51.2184 23.7127 50.4766 23.1562C48.4044 21.602 46.4591 16.7651 45.6028 14.2146C47.6641 12.5495 50.2734 9.65798 50.2734 5.6875C50.2734 1.54405 47.8438 0 46.3125 0C42.6746 0 38.3438 3.1007 36.4852 4.57955C29.8793 0.766898 22.0852 0.772484 15.482 4.59845C13.1237 2.41546 9.71146 0 6.49996 0C4.9686 0 2.53902 1.54405 2.53902 5.6875C2.53902 9.51214 4.72109 12.3479 6.46674 14.0048C5.65008 16.4906 3.65397 21.5584 1.52339 23.1562C0.782697 23.7119 0.704393 24.7966 1.36028 25.4522L3.74345 27.8354L0.240658 33.3032C-0.0308184 33.7271 -0.0755058 34.2575 0.121322 34.7209C0.194752 34.8935 1.76552 38.4968 5.41618 40.0086C5.30751 40.5778 5.23865 41.2655 5.28385 42.0347C5.39597 43.9416 6.2492 46.7287 9.67693 49.1771C10.4376 49.7204 11.5065 49.4559 11.925 48.6187C12.3557 47.7573 12.937 46.9201 13.6591 46.1173C14.7369 47.2628 16.1463 48.0917 17.7328 48.4499C18.6076 49.6381 20.9781 52 26 52C31.0218 52 33.3924 49.6381 34.267 48.45C35.8537 48.0919 37.2629 47.2629 38.3407 46.1174C39.0628 46.9204 39.6441 47.7573 40.0748 48.6188C40.4932 49.4557 41.5615 49.7212 42.323 49.1772C45.7507 46.7288 46.6038 43.9417 46.7161 42.0348C46.7614 41.2656 46.6925 40.5778 46.5838 40.0087C50.2344 38.4968 51.8052 34.8936 51.8786 34.721C52.0754 34.2576 52.0308 33.7271 51.7594 33.3032ZM46.2611 3.04728C46.4957 3.13259 47.2265 3.76066 47.2265 5.6875C47.2265 8.18634 45.6089 10.176 44.1312 11.4726C42.7456 9.60395 41.0313 7.83331 39.1541 6.37599C41.1162 4.92751 44.1103 3.07653 46.2611 3.04728ZM5.58589 5.6875C5.58589 3.76076 6.31664 3.1327 6.55124 3.04728C8.63957 3.07714 11.2249 4.91217 12.8794 6.3503C11.0415 7.77217 9.38575 9.47009 8.0303 11.257C6.82973 9.96877 5.58589 8.06183 5.58589 5.6875ZM21.366 47.7552L26 44.8589L30.634 47.7552C29.7204 48.3639 28.2547 48.9531 26 48.9531C23.7452 48.9531 22.2795 48.3639 21.366 47.7552ZM44.3888 37.5061C43.4059 37.7026 42.8753 38.7819 43.3249 39.6813C43.3292 39.6898 43.7488 40.5926 43.6745 41.8558C43.5941 43.2213 42.9758 44.4844 41.8319 45.6254C41.312 44.8734 40.7022 44.1467 40.0086 43.4494C40.6688 41.6999 40.7184 39.7502 40.0148 37.864L43.2016 35.3145C43.8587 34.7889 43.9651 33.8303 43.4396 33.1733C42.9138 32.516 41.9551 32.4095 41.2983 32.9353L38.5276 35.1519C38.0771 34.5102 37.6057 33.9153 37.1517 33.3294L40.7641 30.4395C41.4212 29.9139 41.5276 28.9553 41.0021 28.2983C40.4764 27.641 39.5175 27.5345 38.8608 28.0603L35.4395 30.7973C35.0659 30.054 34.8359 29.2862 34.8359 28.4375C34.8359 27.5962 34.1538 26.9141 33.3125 26.9141C32.4711 26.9141 31.789 27.5962 31.789 28.4375C31.789 33.9226 37.4765 36.5184 37.4765 40.625C37.4765 43.2311 35.4631 45.3757 32.9101 45.5848L27.5234 42.2182V39.0028L29.2825 37.8301C29.9826 37.3634 30.1717 36.4176 29.705 35.7175C29.2383 35.0173 28.2923 34.8282 27.5924 35.295L26 36.3566L24.4075 35.295C23.7076 34.8282 22.7615 35.0173 22.2949 35.7175C21.8282 36.4176 22.0174 37.3634 22.7175 37.8301L24.4765 39.0027V42.2181L19.0898 45.5847C16.5368 45.3757 14.5234 43.2311 14.5234 40.625C14.5234 36.503 20.2109 33.945 20.2109 28.4375C20.2109 27.5962 19.5288 26.9141 18.6875 26.9141C17.8461 26.9141 17.164 27.5962 17.164 28.4375C17.164 29.2862 16.934 30.054 16.5604 30.7974L13.1392 28.0604C12.4821 27.5347 11.5234 27.6415 10.998 28.2984C10.4724 28.9554 10.5789 29.914 11.2358 30.4396L14.8482 33.3296C14.3794 33.9338 13.9151 34.5215 13.4724 35.1519L10.7017 32.9354C10.0446 32.4097 9.08594 32.5164 8.56046 33.1734C8.03487 33.8304 8.14141 34.789 8.79832 35.3146L11.9851 37.8641C11.2811 39.7514 11.3314 41.7012 11.9913 43.4495C11.2978 44.1467 10.688 44.8734 10.1681 45.6254C9.06136 44.5209 8.4461 43.3013 8.33478 41.9853C8.22713 40.7127 8.63907 39.7624 8.67888 39.6742C9.12626 38.8126 8.648 37.7135 7.61135 37.5061C5.31147 37.0462 3.90178 35.2038 3.28733 34.1959L6.97039 28.4468C7.35653 27.8441 7.27092 27.0539 6.76483 26.5478L4.61262 24.3956C7.29814 21.3035 9.1286 15.7252 9.52682 14.4388C9.8697 13.8879 11.2893 11.7288 13.7148 9.6069C16.9615 6.76599 20.5756 5.16669 24.4765 4.83813V6.30805L19.7123 8.34986C18.9389 8.68136 18.5807 9.57684 18.9122 10.3502C19.2436 11.1234 20.1392 11.4815 20.9126 11.1503L24.4765 9.62284V11.9954L19.7123 14.0373C18.9389 14.3688 18.5807 15.2642 18.9122 16.0376C19.2436 16.8108 20.1392 17.169 20.9126 16.8377L24.4765 15.3103V17.0625C24.4765 17.9038 25.1586 18.5859 26 18.5859C26.8413 18.5859 27.5234 17.9038 27.5234 17.0625V15.3103L31.0873 16.8377C31.859 17.1686 32.7557 16.8125 33.0877 16.0376C33.4192 15.2642 33.0609 14.3687 32.2876 14.0373L27.5234 11.9954V9.62284L31.0873 11.1502C31.859 11.4811 32.7557 11.125 33.0877 10.3501C33.4192 9.57673 33.0609 8.68116 32.2876 8.34976L27.5234 6.30795V4.83813C31.4243 5.16669 35.0384 6.76599 38.2854 9.6068C40.7128 11.7306 42.1328 13.8915 42.4732 14.4385C42.8714 15.7248 44.7019 21.3034 47.3875 24.3955L45.2353 26.5477C44.7292 27.0538 44.6437 27.8441 45.0297 28.4467L48.7127 34.1956C48.0964 35.2062 46.687 37.0465 44.3888 37.5061Z" fill="white"/>
<path d="M31.4228 20.8603L29.7978 22.4853C29.2028 23.0801 29.2028 24.0448 29.7978 24.6397C30.3928 25.2348 31.3573 25.2347 31.9522 24.6397L33.5772 23.0147C34.1722 22.4199 34.1722 21.4552 33.5772 20.8603C32.9823 20.2653 32.0176 20.2653 31.4228 20.8603Z" fill="white"/>
<path d="M20.5772 20.8604C19.9824 20.2656 19.0177 20.2656 18.4228 20.8604C17.8278 21.4553 17.8278 22.4199 18.4228 23.0149L20.0478 24.6399C20.6428 25.2349 21.6073 25.2348 22.2022 24.6399C22.7972 24.045 22.7972 23.0804 22.2022 22.4854L20.5772 20.8604Z" fill="white"/>
</svg>
