<svg width="55" height="55" viewBox="0 0 55 55" fill="none" xmlns="http://www.w3.org/2000/svg">
<g clip-path="url(#clip0_1901_2025)">
<path d="M27.5 50.7146C40.3219 50.7146 50.7146 40.3219 50.7146 27.5C50.7146 14.6781 40.3219 4.28542 27.5 4.28542C14.6781 4.28542 4.28542 14.6781 4.28542 27.5C4.28542 40.3219 14.6781 50.7146 27.5 50.7146ZM27.5 55C12.3131 55 0 42.6869 0 27.5C0 12.3131 12.3131 0 27.5 0C42.6869 0 55 12.3131 55 27.5C55 42.6869 42.6869 55 27.5 55Z" fill="#888888"/>
<path fill-rule="evenodd" clip-rule="evenodd" d="M25.195 26.9414C23.6825 26.1691 22.9263 24.9866 22.9263 23.3962C22.9263 20.7677 25.0529 18.8633 27.9336 18.8633C30.7913 18.8633 32.8217 20.7677 32.8217 23.4191C32.8217 25.0347 32.0884 26.1462 30.4842 26.9414C32.3496 27.6885 33.3167 29.0383 33.3167 30.9197C33.3167 33.7385 31.0502 35.7666 27.9084 35.7666C24.7229 35.7666 22.3854 33.7408 22.3854 30.9679C22.3854 29.8106 22.8094 28.6991 23.5657 27.9291C24.0148 27.5189 24.3677 27.2783 25.195 26.9414ZM27.8625 21.1527C26.6823 21.1527 25.69 22.1908 25.69 23.3962C25.69 24.6497 26.6594 25.6627 27.8854 25.6627C29.0909 25.6627 30.0579 24.6497 30.0579 23.4191C30.0579 22.1656 29.0679 21.1527 27.8625 21.1527ZM27.8396 28.2431C26.5402 28.2431 25.4563 29.3752 25.4563 30.7272C25.4563 32.1252 26.5173 33.2824 27.8625 33.2824C29.1619 33.2824 30.2459 32.1252 30.2459 30.7502C30.2459 29.3522 29.1848 28.2431 27.8396 28.2431ZM14.7382 35.7666V24.0195H10.5215V21.4735C11.1952 21.4735 12.6527 21.4208 13.8811 20.7424C15.1117 20.0641 15.5907 19.1314 15.5907 18.8633H18.1V35.7666H14.7382ZM37.7832 25.6191L34.4167 25.6329V28.9993H37.7854V32.3589H41.1473V28.9993H44.5069V25.6306H41.1473V22.2733H37.7832V25.6191Z" fill="#888888"/>
</g>
<defs>
<clipPath id="clip0_1901_2025">
<rect width="55" height="55" fill="white"/>
</clipPath>
</defs>
</svg>
