<svg width="76" height="76" viewBox="0 0 76 76" fill="none" xmlns="http://www.w3.org/2000/svg">
<path d="M73.625 12.1719H2.375C1.82385 12.1719 1.29527 12.3908 0.905544 12.7805C0.51582 13.1703 0.296875 13.6988 0.296875 14.25V61.75C0.296875 62.3012 0.51582 62.8297 0.905544 63.2195C1.29527 63.6092 1.82385 63.8281 2.375 63.8281H73.625C74.1762 63.8281 74.7047 63.6092 75.0945 63.2195C75.4842 62.8297 75.7031 62.3012 75.7031 61.75V14.25C75.7031 13.6988 75.4842 13.1703 75.0945 12.7805C74.7047 12.3908 74.1762 12.1719 73.625 12.1719ZM4.45312 16.3281H31.1362L4.45312 34.1169V16.3281ZM4.45312 59.6719V41.8831L31.1362 59.6719H4.45312ZM6.12156 38L38 16.7438L69.8784 38L38 59.2563L6.12156 38ZM71.5528 59.6719H44.8637L71.5469 41.8831L71.5528 59.6719ZM71.5528 34.1169L44.8637 16.3281H71.5469L71.5528 34.1169Z" fill="#888888"/>
<path d="M38 24.0469C35.2403 24.0469 32.5426 24.8652 30.2481 26.3984C27.9535 27.9316 26.1651 30.1108 25.109 32.6604C24.0529 35.21 23.7766 38.0155 24.315 40.7221C24.8534 43.4288 26.1823 45.915 28.1337 47.8664C30.085 49.8177 32.5712 51.1466 35.2779 51.685C37.9845 52.2234 40.79 51.9471 43.3396 50.891C45.8892 49.8349 48.0684 48.0465 49.6016 45.7519C51.1348 43.4574 51.9531 40.7597 51.9531 38C51.949 34.3007 50.4777 30.754 47.8618 28.1382C45.246 25.5223 41.6994 24.051 38 24.0469ZM38 47.7969C36.4204 47.797 34.8641 47.4152 33.464 46.6839C32.0638 45.9526 30.8613 44.8935 29.9589 43.597C29.0566 42.3005 28.4811 40.805 28.2817 39.238C28.0822 37.671 28.2647 36.079 28.8135 34.5978C30.8884 34.027 33.0772 34.0138 35.1589 34.5595C37.2405 35.1051 39.1414 36.1903 40.6695 37.7055C42.7784 39.8027 44.0375 42.6056 44.2047 45.5751C42.4573 47.0138 40.2635 47.7994 38 47.7969ZM47.4109 40.7241C46.28 37.6214 44.2333 34.9354 41.5419 33.0218C38.8504 31.1082 35.6412 30.0572 32.3392 30.0081C33.9969 28.834 35.9785 28.2042 38.0099 28.206C40.0413 28.2079 42.0218 28.8412 43.6774 30.0183C45.333 31.1954 46.5816 32.858 47.2505 34.7761C47.9194 36.6942 47.9755 38.7728 47.4109 40.7241Z" fill="#888888"/>
</svg>
