<svg width="58" height="58" viewBox="0 0 58 58" fill="none" xmlns="http://www.w3.org/2000/svg">
<path d="M39.3086 20.6172C29.0022 20.6172 20.6172 29.0022 20.6172 39.3086C20.6172 49.615 29.0022 58 39.3086 58C49.615 58 58 49.615 58 39.3086C58 29.0022 49.615 20.6172 39.3086 20.6172ZM39.3086 37.6094C42.1196 37.6094 44.4062 39.8961 44.4062 42.707C44.4062 44.9194 42.9814 46.7879 41.0078 47.4917V51.2031H37.6094V47.4917C35.6358 46.7879 34.2109 44.9194 34.2109 42.707H37.6094C37.6094 43.6445 38.3711 44.4062 39.3086 44.4062C40.2461 44.4062 41.0078 43.6445 41.0078 42.707C41.0078 41.7695 40.2461 41.0078 39.3086 41.0078C36.4976 41.0078 34.2109 38.7211 34.2109 35.9102C34.2109 33.6978 35.6358 31.8293 37.6094 31.1255V27.4141H41.0078V31.1255C42.9814 31.8293 44.4062 33.6978 44.4062 35.9102H41.0078C41.0078 34.9726 40.2461 34.2109 39.3086 34.2109C38.3711 34.2109 37.6094 34.9726 37.6094 35.9102C37.6094 36.8477 38.3711 37.6094 39.3086 37.6094Z" fill="#888888"/>
<path d="M18.918 20.6172C29.3988 20.6172 37.6094 16.1385 37.6094 10.4219C37.6094 4.70525 29.3988 0 18.918 0C8.43719 0 0 4.70525 0 10.4219C0 16.1385 8.43719 20.6172 18.918 20.6172Z" fill="#888888"/>
<path d="M0 38.2391V41.0078C0 46.7245 8.43719 51.2032 18.918 51.2032C19.5125 51.2032 20.0885 51.1484 20.6738 51.1198C19.3704 49.0704 18.3983 46.7964 17.8259 44.3654C10.2469 44.1562 3.66601 41.8272 0 38.2391Z" fill="#888888"/>
<path d="M17.3004 40.9213C17.2615 40.3868 17.2188 39.8529 17.2188 39.3086C17.2188 37.5372 17.4509 35.8228 17.8467 34.171C10.2582 33.9654 3.66929 31.6352 0 28.0438V30.8125C0 36.2259 7.61952 40.4802 17.3004 40.9213Z" fill="#888888"/>
<path d="M18.918 30.8125C18.9198 30.8125 18.9213 30.8123 18.9232 30.8123C20.0439 28.1339 21.673 25.7194 23.6961 23.6964C22.1614 23.8904 20.5755 24.0157 18.918 24.0157C10.8504 24.0157 3.84318 21.6099 0 17.8485V20.6172C0 26.3338 8.43719 30.8125 18.918 30.8125Z" fill="#888888"/>
</svg>
